<svg width="146" height="147" viewBox="0 0 146 147" fill="none" xmlns="http://www.w3.org/2000/svg">
<path d="M2 4C3.10457 4 4 3.10457 4 2C4 0.895431 3.10457 0 2 0C0.895431 0 0 0.895431 0 2C0 3.10457 0.895431 4 2 4Z" fill="#B6C0CE"/>
<path d="M2 146.017C3.10457 146.017 4 145.121 4 144.017C4 142.912 3.10457 142.017 2 142.017C0.895431 142.017 0 142.912 0 144.017C0 145.121 0.895431 146.017 2 146.017Z" fill="#B6C0CE"/>
<path d="M20 4C21.1046 4 22 3.10457 22 2C22 0.895431 21.1046 0 20 0C18.8954 0 18 0.895431 18 2C18 3.10457 18.8954 4 20 4Z" fill="#B6C0CE"/>
<path d="M91 4C92.1046 4 93 3.10457 93 2C93 0.895431 92.1046 0 91 0C89.8954 0 89 0.895431 89 2C89 3.10457 89.8954 4 91 4Z" fill="#B6C0CE"/>
<path d="M20 146.017C21.1046 146.017 22 145.121 22 144.017C22 142.912 21.1046 142.017 20 142.017C18.8954 142.017 18 142.912 18 144.017C18 145.121 18.8954 146.017 20 146.017Z" fill="#B6C0CE"/>
<path d="M91 146.017C92.1046 146.017 93 145.121 93 144.017C93 142.912 92.1046 142.017 91 142.017C89.8954 142.017 89 142.912 89 144.017C89 145.121 89.8954 146.017 91 146.017Z" fill="#B6C0CE"/>
<path d="M37 4C38.1046 4 39 3.10457 39 2C39 0.895431 38.1046 0 37 0C35.8954 0 35 0.895431 35 2C35 3.10457 35.8954 4 37 4Z" fill="#B6C0CE"/>
<path d="M108 4C109.105 4 110 3.10457 110 2C110 0.895431 109.105 0 108 0C106.895 0 106 0.895431 106 2C106 3.10457 106.895 4 108 4Z" fill="#B6C0CE"/>
<path d="M37 146.017C38.1046 146.017 39 145.121 39 144.017C39 142.912 38.1046 142.017 37 142.017C35.8954 142.017 35 142.912 35 144.017C35 145.121 35.8954 146.017 37 146.017Z" fill="#B6C0CE"/>
<path d="M108 146.017C109.105 146.017 110 145.121 110 144.017C110 142.912 109.105 142.017 108 142.017C106.895 142.017 106 142.912 106 144.017C106 145.121 106.895 146.017 108 146.017Z" fill="#B6C0CE"/>
<path d="M55 4C56.1046 4 57 3.10457 57 2C57 0.895431 56.1046 0 55 0C53.8954 0 53 0.895431 53 2C53 3.10457 53.8954 4 55 4Z" fill="#B6C0CE"/>
<path d="M126 4C127.105 4 128 3.10457 128 2C128 0.895431 127.105 0 126 0C124.895 0 124 0.895431 124 2C124 3.10457 124.895 4 126 4Z" fill="#B6C0CE"/>
<path d="M55 146.017C56.1046 146.017 57 145.121 57 144.017C57 142.912 56.1046 142.017 55 142.017C53.8954 142.017 53 142.912 53 144.017C53 145.121 53.8954 146.017 55 146.017Z" fill="#B6C0CE"/>
<path d="M126 146.017C127.105 146.017 128 145.121 128 144.017C128 142.912 127.105 142.017 126 142.017C124.895 142.017 124 142.912 124 144.017C124 145.121 124.895 146.017 126 146.017Z" fill="#B6C0CE"/>
<path d="M73 4C74.1046 4 75 3.10457 75 2C75 0.895431 74.1046 0 73 0C71.8954 0 71 0.895431 71 2C71 3.10457 71.8954 4 73 4Z" fill="#B6C0CE"/>
<path d="M144 4C145.105 4 146 3.10457 146 2C146 0.895431 145.105 0 144 0C142.895 0 142 0.895431 142 2C142 3.10457 142.895 4 144 4Z" fill="#B6C0CE"/>
<path d="M73 146.017C74.1046 146.017 75 145.121 75 144.017C75 142.912 74.1046 142.017 73 142.017C71.8954 142.017 71 142.912 71 144.017C71 145.121 71.8954 146.017 73 146.017Z" fill="#B6C0CE"/>
<path d="M144 146.017C145.105 146.017 146 145.121 146 144.017C146 142.912 145.105 142.017 144 142.017C142.895 142.017 142 142.912 142 144.017C142 145.121 142.895 146.017 144 146.017Z" fill="#B6C0CE"/>
<path d="M2 22.002C3.10457 22.002 4 21.1065 4 20.002C4 18.8974 3.10457 18.002 2 18.002C0.895431 18.002 0 18.8974 0 20.002C0 21.1065 0.895431 22.002 2 22.002Z" fill="#B6C0CE"/>
<path d="M20 22.002C21.1046 22.002 22 21.1065 22 20.002C22 18.8974 21.1046 18.002 20 18.002C18.8954 18.002 18 18.8974 18 20.002C18 21.1065 18.8954 22.002 20 22.002Z" fill="#B6C0CE"/>
<path d="M91 22.002C92.1046 22.002 93 21.1065 93 20.002C93 18.8974 92.1046 18.002 91 18.002C89.8954 18.002 89 18.8974 89 20.002C89 21.1065 89.8954 22.002 91 22.002Z" fill="#B6C0CE"/>
<path d="M37 22.002C38.1046 22.002 39 21.1065 39 20.002C39 18.8974 38.1046 18.002 37 18.002C35.8954 18.002 35 18.8974 35 20.002C35 21.1065 35.8954 22.002 37 22.002Z" fill="#B6C0CE"/>
<path d="M108 22.002C109.105 22.002 110 21.1065 110 20.002C110 18.8974 109.105 18.002 108 18.002C106.895 18.002 106 18.8974 106 20.002C106 21.1065 106.895 22.002 108 22.002Z" fill="#B6C0CE"/>
<path d="M55 22.002C56.1046 22.002 57 21.1065 57 20.002C57 18.8974 56.1046 18.002 55 18.002C53.8954 18.002 53 18.8974 53 20.002C53 21.1065 53.8954 22.002 55 22.002Z" fill="#B6C0CE"/>
<path d="M126 22.002C127.105 22.002 128 21.1065 128 20.002C128 18.8974 127.105 18.002 126 18.002C124.895 18.002 124 18.8974 124 20.002C124 21.1065 124.895 22.002 126 22.002Z" fill="#B6C0CE"/>
<path d="M73 22.002C74.1046 22.002 75 21.1065 75 20.002C75 18.8974 74.1046 18.002 73 18.002C71.8954 18.002 71 18.8974 71 20.002C71 21.1065 71.8954 22.002 73 22.002Z" fill="#B6C0CE"/>
<path d="M144 22.002C145.105 22.002 146 21.1065 146 20.002C146 18.8974 145.105 18.002 144 18.002C142.895 18.002 142 18.8974 142 20.002C142 21.1065 142.895 22.002 144 22.002Z" fill="#B6C0CE"/>
<path d="M2 39.0039C3.10457 39.0039 4 38.1085 4 37.0039C4 35.8993 3.10457 35.0039 2 35.0039C0.895431 35.0039 0 35.8993 0 37.0039C0 38.1085 0.895431 39.0039 2 39.0039Z" fill="#B6C0CE"/>
<path d="M20 39.0039C21.1046 39.0039 22 38.1085 22 37.0039C22 35.8993 21.1046 35.0039 20 35.0039C18.8954 35.0039 18 35.8993 18 37.0039C18 38.1085 18.8954 39.0039 20 39.0039Z" fill="#B6C0CE"/>
<path d="M91 39.0039C92.1046 39.0039 93 38.1085 93 37.0039C93 35.8993 92.1046 35.0039 91 35.0039C89.8954 35.0039 89 35.8993 89 37.0039C89 38.1085 89.8954 39.0039 91 39.0039Z" fill="#B6C0CE"/>
<path d="M37 39.0039C38.1046 39.0039 39 38.1085 39 37.0039C39 35.8993 38.1046 35.0039 37 35.0039C35.8954 35.0039 35 35.8993 35 37.0039C35 38.1085 35.8954 39.0039 37 39.0039Z" fill="#B6C0CE"/>
<path d="M108 39.0039C109.105 39.0039 110 38.1085 110 37.0039C110 35.8993 109.105 35.0039 108 35.0039C106.895 35.0039 106 35.8993 106 37.0039C106 38.1085 106.895 39.0039 108 39.0039Z" fill="#B6C0CE"/>
<path d="M55 39.0039C56.1046 39.0039 57 38.1085 57 37.0039C57 35.8993 56.1046 35.0039 55 35.0039C53.8954 35.0039 53 35.8993 53 37.0039C53 38.1085 53.8954 39.0039 55 39.0039Z" fill="#B6C0CE"/>
<path d="M126 39.0039C127.105 39.0039 128 38.1085 128 37.0039C128 35.8993 127.105 35.0039 126 35.0039C124.895 35.0039 124 35.8993 124 37.0039C124 38.1085 124.895 39.0039 126 39.0039Z" fill="#B6C0CE"/>
<path d="M73 39.0039C74.1046 39.0039 75 38.1085 75 37.0039C75 35.8993 74.1046 35.0039 73 35.0039C71.8954 35.0039 71 35.8993 71 37.0039C71 38.1085 71.8954 39.0039 73 39.0039Z" fill="#B6C0CE"/>
<path d="M144 39.0039C145.105 39.0039 146 38.1085 146 37.0039C146 35.8993 145.105 35.0039 144 35.0039C142.895 35.0039 142 35.8993 142 37.0039C142 38.1085 142.895 39.0039 144 39.0039Z" fill="#B6C0CE"/>
<path d="M2 57.0063C3.10457 57.0063 4 56.1109 4 55.0063C4 53.9018 3.10457 53.0063 2 53.0063C0.895431 53.0063 0 53.9018 0 55.0063C0 56.1109 0.895431 57.0063 2 57.0063Z" fill="#B6C0CE"/>
<path d="M20 57.0063C21.1046 57.0063 22 56.1109 22 55.0063C22 53.9018 21.1046 53.0063 20 53.0063C18.8954 53.0063 18 53.9018 18 55.0063C18 56.1109 18.8954 57.0063 20 57.0063Z" fill="#B6C0CE"/>
<path d="M91 57.0063C92.1046 57.0063 93 56.1109 93 55.0063C93 53.9018 92.1046 53.0063 91 53.0063C89.8954 53.0063 89 53.9018 89 55.0063C89 56.1109 89.8954 57.0063 91 57.0063Z" fill="#B6C0CE"/>
<path d="M37 57.0063C38.1046 57.0063 39 56.1109 39 55.0063C39 53.9018 38.1046 53.0063 37 53.0063C35.8954 53.0063 35 53.9018 35 55.0063C35 56.1109 35.8954 57.0063 37 57.0063Z" fill="#B6C0CE"/>
<path d="M108 57.0063C109.105 57.0063 110 56.1109 110 55.0063C110 53.9018 109.105 53.0063 108 53.0063C106.895 53.0063 106 53.9018 106 55.0063C106 56.1109 106.895 57.0063 108 57.0063Z" fill="#B6C0CE"/>
<path d="M55 57.0063C56.1046 57.0063 57 56.1109 57 55.0063C57 53.9018 56.1046 53.0063 55 53.0063C53.8954 53.0063 53 53.9018 53 55.0063C53 56.1109 53.8954 57.0063 55 57.0063Z" fill="#B6C0CE"/>
<path d="M126 57.0063C127.105 57.0063 128 56.1109 128 55.0063C128 53.9018 127.105 53.0063 126 53.0063C124.895 53.0063 124 53.9018 124 55.0063C124 56.1109 124.895 57.0063 126 57.0063Z" fill="#B6C0CE"/>
<path d="M73 57.0063C74.1046 57.0063 75 56.1109 75 55.0063C75 53.9018 74.1046 53.0063 73 53.0063C71.8954 53.0063 71 53.9018 71 55.0063C71 56.1109 71.8954 57.0063 73 57.0063Z" fill="#B6C0CE"/>
<path d="M144 57.0063C145.105 57.0063 146 56.1109 146 55.0063C146 53.9018 145.105 53.0063 144 53.0063C142.895 53.0063 142 53.9018 142 55.0063C142 56.1109 142.895 57.0063 144 57.0063Z" fill="#B6C0CE"/>
<path d="M2 75.0083C3.10457 75.0083 4 74.1129 4 73.0083C4 71.9037 3.10457 71.0083 2 71.0083C0.895431 71.0083 0 71.9037 0 73.0083C0 74.1129 0.895431 75.0083 2 75.0083Z" fill="#B6C0CE"/>
<path d="M20 75.0083C21.1046 75.0083 22 74.1129 22 73.0083C22 71.9037 21.1046 71.0083 20 71.0083C18.8954 71.0083 18 71.9037 18 73.0083C18 74.1129 18.8954 75.0083 20 75.0083Z" fill="#B6C0CE"/>
<path d="M91 75.0083C92.1046 75.0083 93 74.1129 93 73.0083C93 71.9037 92.1046 71.0083 91 71.0083C89.8954 71.0083 89 71.9037 89 73.0083C89 74.1129 89.8954 75.0083 91 75.0083Z" fill="#B6C0CE"/>
<path d="M37 75.0083C38.1046 75.0083 39 74.1129 39 73.0083C39 71.9037 38.1046 71.0083 37 71.0083C35.8954 71.0083 35 71.9037 35 73.0083C35 74.1129 35.8954 75.0083 37 75.0083Z" fill="#B6C0CE"/>
<path d="M108 75.0083C109.105 75.0083 110 74.1129 110 73.0083C110 71.9037 109.105 71.0083 108 71.0083C106.895 71.0083 106 71.9037 106 73.0083C106 74.1129 106.895 75.0083 108 75.0083Z" fill="#B6C0CE"/>
<path d="M55 75.0083C56.1046 75.0083 57 74.1129 57 73.0083C57 71.9037 56.1046 71.0083 55 71.0083C53.8954 71.0083 53 71.9037 53 73.0083C53 74.1129 53.8954 75.0083 55 75.0083Z" fill="#B6C0CE"/>
<path d="M126 75.0083C127.105 75.0083 128 74.1129 128 73.0083C128 71.9037 127.105 71.0083 126 71.0083C124.895 71.0083 124 71.9037 124 73.0083C124 74.1129 124.895 75.0083 126 75.0083Z" fill="#B6C0CE"/>
<path d="M73 75.0083C74.1046 75.0083 75 74.1129 75 73.0083C75 71.9037 74.1046 71.0083 73 71.0083C71.8954 71.0083 71 71.9037 71 73.0083C71 74.1129 71.8954 75.0083 73 75.0083Z" fill="#B6C0CE"/>
<path d="M144 75.0083C145.105 75.0083 146 74.1129 146 73.0083C146 71.9037 145.105 71.0083 144 71.0083C142.895 71.0083 142 71.9037 142 73.0083C142 74.1129 142.895 75.0083 144 75.0083Z" fill="#B6C0CE"/>
<path d="M2 92.0103C3.10457 92.0103 4 91.1148 4 90.0103C4 88.9057 3.10457 88.0103 2 88.0103C0.895431 88.0103 0 88.9057 0 90.0103C0 91.1148 0.895431 92.0103 2 92.0103Z" fill="#B6C0CE"/>
<path d="M20 92.0103C21.1046 92.0103 22 91.1148 22 90.0103C22 88.9057 21.1046 88.0103 20 88.0103C18.8954 88.0103 18 88.9057 18 90.0103C18 91.1148 18.8954 92.0103 20 92.0103Z" fill="#B6C0CE"/>
<path d="M91 92.0103C92.1046 92.0103 93 91.1148 93 90.0103C93 88.9057 92.1046 88.0103 91 88.0103C89.8954 88.0103 89 88.9057 89 90.0103C89 91.1148 89.8954 92.0103 91 92.0103Z" fill="#B6C0CE"/>
<path d="M37 92.0103C38.1046 92.0103 39 91.1148 39 90.0103C39 88.9057 38.1046 88.0103 37 88.0103C35.8954 88.0103 35 88.9057 35 90.0103C35 91.1148 35.8954 92.0103 37 92.0103Z" fill="#B6C0CE"/>
<path d="M108 92.0103C109.105 92.0103 110 91.1148 110 90.0103C110 88.9057 109.105 88.0103 108 88.0103C106.895 88.0103 106 88.9057 106 90.0103C106 91.1148 106.895 92.0103 108 92.0103Z" fill="#B6C0CE"/>
<path d="M55 92.0103C56.1046 92.0103 57 91.1148 57 90.0103C57 88.9057 56.1046 88.0103 55 88.0103C53.8954 88.0103 53 88.9057 53 90.0103C53 91.1148 53.8954 92.0103 55 92.0103Z" fill="#B6C0CE"/>
<path d="M126 92.0103C127.105 92.0103 128 91.1148 128 90.0103C128 88.9057 127.105 88.0103 126 88.0103C124.895 88.0103 124 88.9057 124 90.0103C124 91.1148 124.895 92.0103 126 92.0103Z" fill="#B6C0CE"/>
<path d="M73 92.0103C74.1046 92.0103 75 91.1148 75 90.0103C75 88.9057 74.1046 88.0103 73 88.0103C71.8954 88.0103 71 88.9057 71 90.0103C71 91.1148 71.8954 92.0103 73 92.0103Z" fill="#B6C0CE"/>
<path d="M144 92.0103C145.105 92.0103 146 91.1148 146 90.0103C146 88.9057 145.105 88.0103 144 88.0103C142.895 88.0103 142 88.9057 142 90.0103C142 91.1148 142.895 92.0103 144 92.0103Z" fill="#B6C0CE"/>
<path d="M2 110.012C3.10457 110.012 4 109.117 4 108.012C4 106.908 3.10457 106.012 2 106.012C0.895431 106.012 0 106.908 0 108.012C0 109.117 0.895431 110.012 2 110.012Z" fill="#B6C0CE"/>
<path d="M20 110.012C21.1046 110.012 22 109.117 22 108.012C22 106.908 21.1046 106.012 20 106.012C18.8954 106.012 18 106.908 18 108.012C18 109.117 18.8954 110.012 20 110.012Z" fill="#B6C0CE"/>
<path d="M91 110.012C92.1046 110.012 93 109.117 93 108.012C93 106.908 92.1046 106.012 91 106.012C89.8954 106.012 89 106.908 89 108.012C89 109.117 89.8954 110.012 91 110.012Z" fill="#B6C0CE"/>
<path d="M37 110.012C38.1046 110.012 39 109.117 39 108.012C39 106.908 38.1046 106.012 37 106.012C35.8954 106.012 35 106.908 35 108.012C35 109.117 35.8954 110.012 37 110.012Z" fill="#B6C0CE"/>
<path d="M108 110.012C109.105 110.012 110 109.117 110 108.012C110 106.908 109.105 106.012 108 106.012C106.895 106.012 106 106.908 106 108.012C106 109.117 106.895 110.012 108 110.012Z" fill="#B6C0CE"/>
<path d="M55 110.012C56.1046 110.012 57 109.117 57 108.012C57 106.908 56.1046 106.012 55 106.012C53.8954 106.012 53 106.908 53 108.012C53 109.117 53.8954 110.012 55 110.012Z" fill="#B6C0CE"/>
<path d="M126 110.012C127.105 110.012 128 109.117 128 108.012C128 106.908 127.105 106.012 126 106.012C124.895 106.012 124 106.908 124 108.012C124 109.117 124.895 110.012 126 110.012Z" fill="#B6C0CE"/>
<path d="M73 110.012C74.1046 110.012 75 109.117 75 108.012C75 106.908 74.1046 106.012 73 106.012C71.8954 106.012 71 106.908 71 108.012C71 109.117 71.8954 110.012 73 110.012Z" fill="#B6C0CE"/>
<path d="M144 110.012C145.105 110.012 146 109.117 146 108.012C146 106.908 145.105 106.012 144 106.012C142.895 106.012 142 106.908 142 108.012C142 109.117 142.895 110.012 144 110.012Z" fill="#B6C0CE"/>
<path d="M2 128.015C3.10457 128.015 4 127.119 4 126.015C4 124.91 3.10457 124.015 2 124.015C0.895431 124.015 0 124.91 0 126.015C0 127.119 0.895431 128.015 2 128.015Z" fill="#B6C0CE"/>
<path d="M20 128.015C21.1046 128.015 22 127.119 22 126.015C22 124.91 21.1046 124.015 20 124.015C18.8954 124.015 18 124.91 18 126.015C18 127.119 18.8954 128.015 20 128.015Z" fill="#B6C0CE"/>
<path d="M91 128.015C92.1046 128.015 93 127.119 93 126.015C93 124.91 92.1046 124.015 91 124.015C89.8954 124.015 89 124.91 89 126.015C89 127.119 89.8954 128.015 91 128.015Z" fill="#B6C0CE"/>
<path d="M37 128.015C38.1046 128.015 39 127.119 39 126.015C39 124.91 38.1046 124.015 37 124.015C35.8954 124.015 35 124.91 35 126.015C35 127.119 35.8954 128.015 37 128.015Z" fill="#B6C0CE"/>
<path d="M108 128.015C109.105 128.015 110 127.119 110 126.015C110 124.91 109.105 124.015 108 124.015C106.895 124.015 106 124.91 106 126.015C106 127.119 106.895 128.015 108 128.015Z" fill="#B6C0CE"/>
<path d="M55 128.015C56.1046 128.015 57 127.119 57 126.015C57 124.91 56.1046 124.015 55 124.015C53.8954 124.015 53 124.91 53 126.015C53 127.119 53.8954 128.015 55 128.015Z" fill="#B6C0CE"/>
<path d="M126 128.015C127.105 128.015 128 127.119 128 126.015C128 124.91 127.105 124.015 126 124.015C124.895 124.015 124 124.91 124 126.015C124 127.119 124.895 128.015 126 128.015Z" fill="#B6C0CE"/>
<path d="M73 128.015C74.1046 128.015 75 127.119 75 126.015C75 124.91 74.1046 124.015 73 124.015C71.8954 124.015 71 124.91 71 126.015C71 127.119 71.8954 128.015 73 128.015Z" fill="#B6C0CE"/>
<path d="M144 128.015C145.105 128.015 146 127.119 146 126.015C146 124.91 145.105 124.015 144 124.015C142.895 124.015 142 124.91 142 126.015C142 127.119 142.895 128.015 144 128.015Z" fill="#B6C0CE"/>
</svg>
