<svg width="56" height="164" fill="none" xmlns="http://www.w3.org/2000/svg"><path d="M1.5 3.619c.828 0 1.5-.757 1.5-1.692C3 .993 2.328.235 1.5.235S0 .993 0 1.927C0 2.862.672 3.62 1.5 3.62zm0 160.178c.828 0 1.5-.758 1.5-1.692 0-.934-.672-1.692-1.5-1.692s-1.5.758-1.5 1.692c0 .934.672 1.692 1.5 1.692zm17-160.178c.828 0 1.5-.757 1.5-1.692 0-.934-.672-1.692-1.5-1.692S17 .993 17 1.927c0 .935.672 1.692 1.5 1.692zm0 160.178c.828 0 1.5-.758 1.5-1.692 0-.934-.672-1.692-1.5-1.692s-1.5.758-1.5 1.692c0 .934.672 1.692 1.5 1.692zm18-160.178c.828 0 1.5-.757 1.5-1.692 0-.934-.672-1.692-1.5-1.692S35 .993 35 1.927c0 .935.672 1.692 1.5 1.692zm0 160.178c.828 0 1.5-.758 1.5-1.692 0-.934-.672-1.692-1.5-1.692s-1.5.758-1.5 1.692c0 .934.672 1.692 1.5 1.692zm18-160.178c.828 0 1.5-.757 1.5-1.692 0-.934-.672-1.692-1.5-1.692S53 .993 53 1.927c0 .935.672 1.692 1.5 1.692zm0 160.178c.828 0 1.5-.758 1.5-1.692 0-.934-.672-1.692-1.5-1.692s-1.5.758-1.5 1.692c0 .934.672 1.692 1.5 1.692zM1.5 23.923c.828 0 1.5-.757 1.5-1.692 0-.934-.672-1.691-1.5-1.691S0 21.297 0 22.23c0 .935.672 1.692 1.5 1.692zm17 0c.828 0 1.5-.757 1.5-1.692 0-.934-.672-1.691-1.5-1.691s-1.5.757-1.5 1.691c0 .935.672 1.692 1.5 1.692zm18 0c.828 0 1.5-.757 1.5-1.692 0-.934-.672-1.691-1.5-1.691s-1.5.757-1.5 1.691c0 .935.672 1.692 1.5 1.692zm18 0c.828 0 1.5-.757 1.5-1.692 0-.934-.672-1.691-1.5-1.691s-1.5.757-1.5 1.691c0 .935.672 1.692 1.5 1.692zM1.5 43.1c.828 0 1.5-.758 1.5-1.692 0-.935-.672-1.692-1.5-1.692S0 40.473 0 41.408c0 .934.672 1.691 1.5 1.691zm17 0c.828 0 1.5-.758 1.5-1.692 0-.935-.672-1.692-1.5-1.692s-1.5.757-1.5 1.692c0 .934.672 1.691 1.5 1.691zm18 0c.828 0 1.5-.758 1.5-1.692 0-.935-.672-1.692-1.5-1.692s-1.5.757-1.5 1.692c0 .934.672 1.691 1.5 1.691zm18 0c.828 0 1.5-.758 1.5-1.692 0-.935-.672-1.692-1.5-1.692s-1.5.757-1.5 1.692c0 .934.672 1.691 1.5 1.691zm-53 20.303c.828 0 1.5-.757 1.5-1.692 0-.934-.672-1.691-1.5-1.691S0 60.776 0 61.71c0 .935.672 1.692 1.5 1.692zm17 0c.828 0 1.5-.757 1.5-1.692 0-.934-.672-1.691-1.5-1.691s-1.5.757-1.5 1.691c0 .935.672 1.692 1.5 1.692zm18 0c.828 0 1.5-.757 1.5-1.692 0-.934-.672-1.691-1.5-1.691s-1.5.757-1.5 1.691c0 .935.672 1.692 1.5 1.692zm18 0c.828 0 1.5-.757 1.5-1.692 0-.934-.672-1.691-1.5-1.691s-1.5.757-1.5 1.691c0 .935.672 1.692 1.5 1.692zm-53 20.305c.828 0 1.5-.757 1.5-1.692 0-.934-.672-1.691-1.5-1.691S0 81.082 0 82.016c0 .935.672 1.692 1.5 1.692zm17 0c.828 0 1.5-.757 1.5-1.692 0-.934-.672-1.691-1.5-1.691s-1.5.757-1.5 1.691c0 .935.672 1.692 1.5 1.692zm18 0c.828 0 1.5-.757 1.5-1.692 0-.934-.672-1.691-1.5-1.691s-1.5.757-1.5 1.691c0 .935.672 1.692 1.5 1.692zm18 0c.828 0 1.5-.757 1.5-1.692 0-.934-.672-1.691-1.5-1.691s-1.5.757-1.5 1.691c0 .935.672 1.692 1.5 1.692zm-53 19.176c.828 0 1.5-.757 1.5-1.692 0-.934-.672-1.691-1.5-1.691s-1.5.757-1.5 1.691c0 .935.672 1.692 1.5 1.692zm17 0c.828 0 1.5-.757 1.5-1.692 0-.934-.672-1.691-1.5-1.691s-1.5.757-1.5 1.691c0 .935.672 1.692 1.5 1.692zm18 0c.828 0 1.5-.757 1.5-1.692 0-.934-.672-1.691-1.5-1.691s-1.5.757-1.5 1.691c0 .935.672 1.692 1.5 1.692zm18 0c.828 0 1.5-.757 1.5-1.692 0-.934-.672-1.691-1.5-1.691s-1.5.757-1.5 1.691c0 .935.672 1.692 1.5 1.692zm-53 20.304c.828 0 1.5-.757 1.5-1.691 0-.935-.672-1.692-1.5-1.692s-1.5.757-1.5 1.692c0 .934.672 1.691 1.5 1.691zm17 0c.828 0 1.5-.757 1.5-1.691 0-.935-.672-1.692-1.5-1.692s-1.5.757-1.5 1.692c0 .934.672 1.691 1.5 1.691zm18 0c.828 0 1.5-.757 1.5-1.691 0-.935-.672-1.692-1.5-1.692s-1.5.757-1.5 1.692c0 .934.672 1.691 1.5 1.691zm18 0c.828 0 1.5-.757 1.5-1.691 0-.935-.672-1.692-1.5-1.692s-1.5.757-1.5 1.692c0 .934.672 1.691 1.5 1.691zm-53 20.305c.828 0 1.5-.758 1.5-1.692 0-.935-.672-1.692-1.5-1.692s-1.5.757-1.5 1.692c0 .934.672 1.692 1.5 1.692zm17 0c.828 0 1.5-.758 1.5-1.692 0-.935-.672-1.692-1.5-1.692s-1.5.757-1.5 1.692c0 .934.672 1.692 1.5 1.692zm18 0c.828 0 1.5-.758 1.5-1.692 0-.935-.672-1.692-1.5-1.692s-1.5.757-1.5 1.692c0 .934.672 1.692 1.5 1.692zm18 0c.828 0 1.5-.758 1.5-1.692 0-.935-.672-1.692-1.5-1.692s-1.5.757-1.5 1.692c0 .934.672 1.692 1.5 1.692z" opacity=".7" fill="#fff"/></svg>