<svg width="80" height="80" fill="none" xmlns="http://www.w3.org/2000/svg"><g opacity=".1" clip-path="url(#clip0)"><mask id="a" maskUnits="userSpaceOnUse" x="-120" y="0" width="200" height="200"><path fill="#F7F7F9" d="M-120 0H80v200h-200z"/></mask><g mask="url(#a)" fill="#216B70"><path d="M-197.432 74.777l7.071-7.071L23.186 281.252l-7.072 7.071zm14.143-14.142l7.071-7.071L37.33 267.11l-7.071 7.071zm14.142-14.143l7.07-7.071L51.47 252.967l-7.071 7.071zm14.142-14.142l7.07-7.071L65.613 238.825l-7.071 7.071zm70.71-70.71l7.071-7.071 213.547 213.546-7.071 7.071zm-56.568 56.568l7.07-7.071L79.755 224.683l-7.07 7.071zm70.711-70.71l7.071-7.071 213.547 213.546-7.071 7.07zm-56.569 56.568l7.071-7.071L93.896 210.54l-7.07 7.071zm70.711-70.711l7.07-7.07L164.608 139.83l-7.07 7.071zm-56.569 56.569l7.071-7.071 213.546 213.546-7.07 7.071zm70.711-70.711l7.07-7.071L178.75 125.688l-7.071 7.071zm-56.568 56.569l7.071-7.071 213.546 213.546-7.07 7.07zm70.71-70.711l7.071-7.07 213.546 213.545-7.07 7.072z"/></g></g><defs><clipPath id="clip0"><path fill="#fff" d="M0 0h80v80H0z"/></clipPath></defs></svg>