<svg width="56" height="164" viewBox="0 0 56 164" fill="none" xmlns="http://www.w3.org/2000/svg">
<g opacity="0.7">
<path d="M1.5 3.619C2.32843 3.619 3 2.86155 3 1.92718C3 0.992808 2.32843 0.235352 1.5 0.235352C0.671573 0.235352 0 0.992808 0 1.92718C0 2.86155 0.671573 3.619 1.5 3.619Z" fill="white"/>
<path d="M1.5 163.797C2.32843 163.797 3 163.039 3 162.105C3 161.171 2.32843 160.413 1.5 160.413C0.671573 160.413 0 161.171 0 162.105C0 163.039 0.671573 163.797 1.5 163.797Z" fill="white"/>
<path d="M18.5 3.619C19.3284 3.619 20 2.86155 20 1.92718C20 0.992808 19.3284 0.235352 18.5 0.235352C17.6716 0.235352 17 0.992808 17 1.92718C17 2.86155 17.6716 3.619 18.5 3.619Z" fill="white"/>
<path d="M18.5 163.797C19.3284 163.797 20 163.039 20 162.105C20 161.171 19.3284 160.413 18.5 160.413C17.6716 160.413 17 161.171 17 162.105C17 163.039 17.6716 163.797 18.5 163.797Z" fill="white"/>
<path d="M36.5 3.619C37.3284 3.619 38 2.86155 38 1.92718C38 0.992808 37.3284 0.235352 36.5 0.235352C35.6716 0.235352 35 0.992808 35 1.92718C35 2.86155 35.6716 3.619 36.5 3.619Z" fill="white"/>
<path d="M36.5 163.797C37.3284 163.797 38 163.039 38 162.105C38 161.171 37.3284 160.413 36.5 160.413C35.6716 160.413 35 161.171 35 162.105C35 163.039 35.6716 163.797 36.5 163.797Z" fill="white"/>
<path d="M54.5 3.619C55.3284 3.619 56 2.86155 56 1.92718C56 0.992808 55.3284 0.235352 54.5 0.235352C53.6716 0.235352 53 0.992808 53 1.92718C53 2.86155 53.6716 3.619 54.5 3.619Z" fill="white"/>
<path d="M54.5 163.797C55.3284 163.797 56 163.039 56 162.105C56 161.171 55.3284 160.413 54.5 160.413C53.6716 160.413 53 161.171 53 162.105C53 163.039 53.6716 163.797 54.5 163.797Z" fill="white"/>
<path d="M1.5 23.9232C2.32843 23.9232 3 23.1657 3 22.2314C3 21.297 2.32843 20.5396 1.5 20.5396C0.671573 20.5396 0 21.297 0 22.2314C0 23.1657 0.671573 23.9232 1.5 23.9232Z" fill="white"/>
<path d="M18.5 23.9232C19.3284 23.9232 20 23.1657 20 22.2314C20 21.297 19.3284 20.5396 18.5 20.5396C17.6716 20.5396 17 21.297 17 22.2314C17 23.1657 17.6716 23.9232 18.5 23.9232Z" fill="white"/>
<path d="M36.5 23.9232C37.3284 23.9232 38 23.1657 38 22.2314C38 21.297 37.3284 20.5396 36.5 20.5396C35.6716 20.5396 35 21.297 35 22.2314C35 23.1657 35.6716 23.9232 36.5 23.9232Z" fill="white"/>
<path d="M54.5 23.9232C55.3284 23.9232 56 23.1657 56 22.2314C56 21.297 55.3284 20.5396 54.5 20.5396C53.6716 20.5396 53 21.297 53 22.2314C53 23.1657 53.6716 23.9232 54.5 23.9232Z" fill="white"/>
<path d="M1.5 43.0995C2.32843 43.0995 3 42.342 3 41.4076C3 40.4733 2.32843 39.7158 1.5 39.7158C0.671573 39.7158 0 40.4733 0 41.4076C0 42.342 0.671573 43.0995 1.5 43.0995Z" fill="white"/>
<path d="M18.5 43.0995C19.3284 43.0995 20 42.342 20 41.4076C20 40.4733 19.3284 39.7158 18.5 39.7158C17.6716 39.7158 17 40.4733 17 41.4076C17 42.342 17.6716 43.0995 18.5 43.0995Z" fill="white"/>
<path d="M36.5 43.0995C37.3284 43.0995 38 42.342 38 41.4076C38 40.4733 37.3284 39.7158 36.5 39.7158C35.6716 39.7158 35 40.4733 35 41.4076C35 42.342 35.6716 43.0995 36.5 43.0995Z" fill="white"/>
<path d="M54.5 43.0995C55.3284 43.0995 56 42.342 56 41.4076C56 40.4733 55.3284 39.7158 54.5 39.7158C53.6716 39.7158 53 40.4733 53 41.4076C53 42.342 53.6716 43.0995 54.5 43.0995Z" fill="white"/>
<path d="M1.5 63.4032C2.32843 63.4032 3 62.6457 3 61.7114C3 60.777 2.32843 60.0195 1.5 60.0195C0.671573 60.0195 0 60.777 0 61.7114C0 62.6457 0.671573 63.4032 1.5 63.4032Z" fill="white"/>
<path d="M18.5 63.4032C19.3284 63.4032 20 62.6457 20 61.7114C20 60.777 19.3284 60.0195 18.5 60.0195C17.6716 60.0195 17 60.777 17 61.7114C17 62.6457 17.6716 63.4032 18.5 63.4032Z" fill="white"/>
<path d="M36.5 63.4032C37.3284 63.4032 38 62.6457 38 61.7114C38 60.777 37.3284 60.0195 36.5 60.0195C35.6716 60.0195 35 60.777 35 61.7114C35 62.6457 35.6716 63.4032 36.5 63.4032Z" fill="white"/>
<path d="M54.5 63.4032C55.3284 63.4032 56 62.6457 56 61.7114C56 60.777 55.3284 60.0195 54.5 60.0195C53.6716 60.0195 53 60.777 53 61.7114C53 62.6457 53.6716 63.4032 54.5 63.4032Z" fill="white"/>
<path d="M1.5 83.7084C2.32843 83.7084 3 82.9509 3 82.0165C3 81.0822 2.32843 80.3247 1.5 80.3247C0.671573 80.3247 0 81.0822 0 82.0165C0 82.9509 0.671573 83.7084 1.5 83.7084Z" fill="white"/>
<path d="M18.5 83.7084C19.3284 83.7084 20 82.9509 20 82.0165C20 81.0822 19.3284 80.3247 18.5 80.3247C17.6716 80.3247 17 81.0822 17 82.0165C17 82.9509 17.6716 83.7084 18.5 83.7084Z" fill="white"/>
<path d="M36.5 83.7084C37.3284 83.7084 38 82.9509 38 82.0165C38 81.0822 37.3284 80.3247 36.5 80.3247C35.6716 80.3247 35 81.0822 35 82.0165C35 82.9509 35.6716 83.7084 36.5 83.7084Z" fill="white"/>
<path d="M54.5 83.7084C55.3284 83.7084 56 82.9509 56 82.0165C56 81.0822 55.3284 80.3247 54.5 80.3247C53.6716 80.3247 53 81.0822 53 82.0165C53 82.9509 53.6716 83.7084 54.5 83.7084Z" fill="white"/>
<path d="M1.5 102.884C2.32843 102.884 3 102.127 3 101.192C3 100.258 2.32843 99.5005 1.5 99.5005C0.671573 99.5005 0 100.258 0 101.192C0 102.127 0.671573 102.884 1.5 102.884Z" fill="white"/>
<path d="M18.5 102.884C19.3284 102.884 20 102.127 20 101.192C20 100.258 19.3284 99.5005 18.5 99.5005C17.6716 99.5005 17 100.258 17 101.192C17 102.127 17.6716 102.884 18.5 102.884Z" fill="white"/>
<path d="M36.5 102.884C37.3284 102.884 38 102.127 38 101.192C38 100.258 37.3284 99.5005 36.5 99.5005C35.6716 99.5005 35 100.258 35 101.192C35 102.127 35.6716 102.884 36.5 102.884Z" fill="white"/>
<path d="M54.5 102.884C55.3284 102.884 56 102.127 56 101.192C56 100.258 55.3284 99.5005 54.5 99.5005C53.6716 99.5005 53 100.258 53 101.192C53 102.127 53.6716 102.884 54.5 102.884Z" fill="white"/>
<path d="M1.5 123.188C2.32843 123.188 3 122.431 3 121.497C3 120.562 2.32843 119.805 1.5 119.805C0.671573 119.805 0 120.562 0 121.497C0 122.431 0.671573 123.188 1.5 123.188Z" fill="white"/>
<path d="M18.5 123.188C19.3284 123.188 20 122.431 20 121.497C20 120.562 19.3284 119.805 18.5 119.805C17.6716 119.805 17 120.562 17 121.497C17 122.431 17.6716 123.188 18.5 123.188Z" fill="white"/>
<path d="M36.5 123.188C37.3284 123.188 38 122.431 38 121.497C38 120.562 37.3284 119.805 36.5 119.805C35.6716 119.805 35 120.562 35 121.497C35 122.431 35.6716 123.188 36.5 123.188Z" fill="white"/>
<path d="M54.5 123.188C55.3284 123.188 56 122.431 56 121.497C56 120.562 55.3284 119.805 54.5 119.805C53.6716 119.805 53 120.562 53 121.497C53 122.431 53.6716 123.188 54.5 123.188Z" fill="white"/>
<path d="M1.5 143.493C2.32843 143.493 3 142.735 3 141.801C3 140.866 2.32843 140.109 1.5 140.109C0.671573 140.109 0 140.866 0 141.801C0 142.735 0.671573 143.493 1.5 143.493Z" fill="white"/>
<path d="M18.5 143.493C19.3284 143.493 20 142.735 20 141.801C20 140.866 19.3284 140.109 18.5 140.109C17.6716 140.109 17 140.866 17 141.801C17 142.735 17.6716 143.493 18.5 143.493Z" fill="white"/>
<path d="M36.5 143.493C37.3284 143.493 38 142.735 38 141.801C38 140.866 37.3284 140.109 36.5 140.109C35.6716 140.109 35 140.866 35 141.801C35 142.735 35.6716 143.493 36.5 143.493Z" fill="white"/>
<path d="M54.5 143.493C55.3284 143.493 56 142.735 56 141.801C56 140.866 55.3284 140.109 54.5 140.109C53.6716 140.109 53 140.866 53 141.801C53 142.735 53.6716 143.493 54.5 143.493Z" fill="white"/>
</g>
</svg>
