<svg width="180" height="41" viewBox="0 0 180 41" fill="none" xmlns="http://www.w3.org/2000/svg">
<g opacity="0.1" clip-path="url(#clip0)">
<mask id="mask0" mask-type="alpha" maskUnits="userSpaceOnUse" x="0" y="-3" width="200" height="200">
<rect y="-3" width="200" height="200" fill="#F7F7F9"/>
</mask>
<g mask="url(#mask0)">
<rect x="-49.1465" y="43.4924" width="10" height="302" transform="rotate(-45 -49.1465 43.4924)" fill="#216B70"/>
<rect x="-35.0039" y="29.3503" width="10" height="302" transform="rotate(-45 -35.0039 29.3503)" fill="#216B70"/>
<rect x="35.707" y="-41.3604" width="10" height="302" transform="rotate(-45 35.707 -41.3604)" fill="#216B70"/>
<rect x="-20.8613" y="15.2083" width="10" height="302" transform="rotate(-45 -20.8613 15.2083)" fill="#216B70"/>
<rect x="49.8496" y="-55.5024" width="10" height="302" transform="rotate(-45 49.8496 -55.5024)" fill="#216B70"/>
<rect x="-6.7207" y="1.06616" width="10" height="302" transform="rotate(-45 -6.7207 1.06616)" fill="#216B70"/>
<rect x="63.9902" y="-69.6445" width="10" height="302" transform="rotate(-45 63.9902 -69.6445)" fill="#216B70"/>
<rect x="7.42188" y="-13.0759" width="10" height="302" transform="rotate(-45 7.42188 -13.0759)" fill="#216B70"/>
<rect x="78.1328" y="-83.7866" width="10" height="302" transform="rotate(-45 78.1328 -83.7866)" fill="#216B70"/>
<rect x="21.5645" y="-27.2183" width="10" height="302" transform="rotate(-45 21.5645 -27.2183)" fill="#216B70"/>
<rect x="92.2754" y="-97.929" width="10" height="302" transform="rotate(-45 92.2754 -97.929)" fill="#216B70"/>
</g>
</g>
<defs>
<clipPath id="clip0">
<rect width="180" height="41" fill="white"/>
</clipPath>
</defs>
</svg>
