<svg width="100" height="29" viewBox="0 0 100 29" fill="none" xmlns="http://www.w3.org/2000/svg">
<g opacity="0.1" clip-path="url(#clip0)">
<mask id="mask0" mask-type="alpha" maskUnits="userSpaceOnUse" x="-80" y="-3" width="200" height="200">
<rect x="-80" y="-3" width="200" height="200" fill="#F7F7F9"/>
</mask>
<g mask="url(#mask0)">
<rect x="-115.005" y="29.3503" width="10" height="302" transform="rotate(-45 -115.005 29.3503)" fill="#216B70"/>
<rect x="-44.2949" y="-41.3604" width="10" height="302" transform="rotate(-45 -44.2949 -41.3604)" fill="#216B70"/>
<rect x="-100.863" y="15.2083" width="10" height="302" transform="rotate(-45 -100.863 15.2083)" fill="#216B70"/>
<rect x="-30.1523" y="-55.5024" width="10" height="302" transform="rotate(-45 -30.1523 -55.5024)" fill="#216B70"/>
<rect x="-86.7207" y="1.06616" width="10" height="302" transform="rotate(-45 -86.7207 1.06616)" fill="#216B70"/>
<rect x="-16.0098" y="-69.6445" width="10" height="302" transform="rotate(-45 -16.0098 -69.6445)" fill="#216B70"/>
<rect x="-72.5791" y="-13.0759" width="10" height="302" transform="rotate(-45 -72.5791 -13.0759)" fill="#216B70"/>
<rect x="-1.86816" y="-83.7866" width="10" height="302" transform="rotate(-45 -1.86816 -83.7866)" fill="#216B70"/>
<rect x="-58.4365" y="-27.2183" width="10" height="302" transform="rotate(-45 -58.4365 -27.2183)" fill="#216B70"/>
<rect x="12.2744" y="-97.929" width="10" height="302" transform="rotate(-45 12.2744 -97.929)" fill="#216B70"/>
</g>
</g>
<defs>
<clipPath id="clip0">
<rect width="100" height="29" fill="white"/>
</clipPath>
</defs>
</svg>
