<svg width="200" height="200" fill="none" xmlns="http://www.w3.org/2000/svg"><g opacity=".3"><mask id="a" maskUnits="userSpaceOnUse" x="0" y="0" width="200" height="200"><path fill="#fff" d="M0 0h200v200H0z"/></mask><g mask="url(#a)" fill="#fff"><path d="M-105.715 103.061l7.071-7.071 213.546 213.546-7.07 7.071zm14.143-14.142l7.071-7.071 213.546 213.546-7.07 7.071zm14.142-14.142l7.071-7.071 213.547 213.546-7.071 7.071zm14.141-14.142l7.071-7.071L157.33 267.11l-7.071 7.071zm14.142-14.143l7.07-7.07L171.47 252.967l-7.07 7.07zm14.143-14.142l7.071-7.07 213.546 213.545-7.07 7.071zm70.711-70.71l7.07-7.072 213.547 213.546-7.071 7.071zm-56.568 56.568l7.07-7.071 213.547 213.546-7.07 7.071zM49.85-52.503l7.07-7.071 213.547 213.546-7.071 7.071zM-6.72 4.066l7.07-7.07L213.896 210.54l-7.07 7.071zm70.71-70.711l7.07-7.07L284.608 139.83l-7.07 7.071zM7.422-10.076l7.071-7.071L228.04 196.399l-7.07 7.071zm70.711-70.711l7.07-7.071L298.75 125.688l-7.07 7.071zM21.564-24.218l7.071-7.07 213.547 213.545-7.071 7.072zm70.711-70.711l7.071-7.07 213.546 213.545-7.07 7.072z"/></g></g></svg>