<svg width="100" height="45" fill="none" xmlns="http://www.w3.org/2000/svg"><g opacity=".1" clip-path="url(#clip0)"><mask id="a" maskUnits="userSpaceOnUse" x="0" y="0" width="116" height="116"><path fill="#fff" d="M0 0h116v116H0z"/></mask><g mask="url(#a)" fill="#216B70"><path d="M-44.91 43.37l4.101-4.1L83.048 163.126l-4.101 4.102zm8.202-8.202l4.101-4.101L91.25 154.924l-4.101 4.1zm8.202-8.202l4.102-4.101L99.452 146.722l-4.1 4.1zm8.203-8.203l4.101-4.1 123.857 123.856-4.101 4.101zm41.012-41.012l4.101-4.101L148.667 97.507l-4.101 4.1zM-12.1 10.561L-8 6.46l123.857 123.857-4.1 4.101zm41.011-41.012l4.102-4.101L156.869 89.305l-4.1 4.1zM-3.898 2.358l4.1-4.101L124.06 122.113l-4.102 4.102zm41.012-41.012l4.101-4.1L165.072 81.101l-4.101 4.101zM4.304-5.844l4.101-4.101L132.262 113.91l-4.101 4.102zm41.012-41.012l4.101-4.101L173.274 72.9l-4.1 4.101zM12.507-14.047l4.1-4.101 123.858 123.857-4.102 4.1zM53.519-55.06l4.101-4.1L181.477 64.696l-4.101 4.102z"/></g></g><defs><clipPath id="clip0"><path fill="#fff" d="M0 0h100v45H0z"/></clipPath></defs></svg>