<svg version="1" xmlns="http://www.w3.org/2000/svg" width="1109.333" height="1109.333" viewBox="0 0 832.000000 832.000000"><path d="M412.8 32.5c-.2.2-4 .6-8.3.9-4.4.2-8 .5-8 .6 0 0-2 .3-4.5.5-12.6 1-15 1.4-32.5 5.1-21.3 4.6-58.8 15.5-70 20.4-1.1.5-6 2.5-11 4.5-37.7 15.3-73.9 40-107 73-15.2 15.1-22.2 23.1-32.3 36.4-4 5.3-7.8 10.3-8.5 11.1-2.5 3.1-13 19.2-14.3 22-.4.8-1 1.7-1.4 2-1.3 1-16 28.9-16 30.4 0 .5-.6 1.7-1.3 2.5-1.5 1.7-13.1 29.8-12.8 30.9.1.1-.6 1.9-1.5 4-.8 2-1.7 4.6-2 5.7-.2 1.1-1.3 4.9-2.5 8.5-1.2 3.6-2.3 7.6-2.6 8.9-.2 1.4-.6 2.8-.8 3.1-.2.4-.7 2.2-1 4.1-.3 1.9-.8 4.1-1 4.9-.2.8-.7 3.1-1 5-.3 1.9-1.5 8-2.5 13.5s-2.1 12.2-2.5 15c-.3 2.7-.8 6.6-1 8.5-1 7.7-2.6 28.5-2.5 31.5.1 1.1.1 2.4.1 3-.4 11.3-.5 24.5-.1 24.5.3 0 .5 3.3.6 7.3.1 7.1 1 19.4 1.9 25.2.3 1.6.7 4.6 1 6.5 1.3 9 2.5 15.5 5.1 26.2.2 1 .6 2.8.9 3.9.9 4.3 3.6 13.5 5 17.2.8 2 1.5 4 1.6 4.5 1.1 6.1 19.5 48.2 22 50.2.3.3 1.7 2.5 3 5 5 9.4 16.6 25.8 26.9 38.1 7.8 9.4 32.1 33.2 42 41.1 13.8 11 38.3 27.6 39.2 26.6.2-.2 1.7.7 3.3 1.8 8.5 6 48.5 22.8 61.5 26 .8.2 4 1 7 1.8s7 1.8 8.8 2.1c1.7.3 4.7.7 6.5 1 1.7.3 4.5.8 6.1 1.1 3.8.6 31 1.4 30.4.9-.2-.3-2.2-.7-4.4-1-2.1-.4-4.6-.8-5.4-1-.8-.2-3.1-.7-5-1-5-.9-16.8-4-22-6-2.5-.9-4.9-1.7-5.5-1.9-6-1.8-31.6-14.6-43.5-21.8-16.9-10.1-15.9-9.5-20.6-13.3-1.8-1.4-3.5-2.5-3.8-2.5-.3 0-1.4-.7-2.3-1.5-1-.8-4.7-3.7-8.3-6.5-16.1-12.6-32.6-28.9-45.1-44.7-3.4-4.3-6.5-8-6.8-8.3-1.6-1.2-17.4-25.5-22.8-35-10.9-19.4-19.3-39.4-24.4-58.4-2-7.5-5.9-24.7-6.4-28.1-.1-1.1-.6-4.3-1-7-.3-2.8-.8-6.1-1-7.4-2.7-16.2-3.2-56.4-1.1-75.1.8-6.4 1.8-16 2.2-19.5.2-1.7.6-4.4.9-6 .2-1.7.7-4.1.9-5.5.3-1.4.5-2.7.6-3 .2-.3.2-.8.1-1.2 0-.4.6-4 1.5-8 .8-4 1.6-8.2 1.8-9.3.1-1.2.6-2.6 1-3.3.4-.7.5-1.2.3-1.2-.3 0 .4-3.3 1.4-7.3 1.1-3.9 2.2-8.1 2.4-9.2.3-1.1 1.6-5.3 2.9-9.3 1.4-3.9 2.2-7.2 1.9-7.2-.3 0 0-.6.6-1.3.6-.8 1.2-2.2 1.4-3.3.5-2.3.4-2.2 7.5-19.4 5.8-14.3 20.7-44.3 22.3-44.8.5-.2.9-.8.9-1.4 0-.8 10.9-18.3 13.3-21.3.4-.6 3.5-4.8 6.9-9.5 3.3-4.7 6.4-8.7 6.7-9 .3-.3 2.4-2.8 4.6-5.5 4.9-6.2 8.1-9.8 16.7-18.9 3.8-3.9 6.8-7.4 6.8-7.9 0-.4.4-.7.8-.7.5 0 3.6-2.6 6.9-5.8 6.4-6.3 24.4-21.2 33-27.5 5.7-4.1 20.1-13.7 20.7-13.7.2 0 4.4-2.5 9.4-5.5 8.4-5 41.1-21.5 42.6-21.5.6 0 2.5-.8 13.1-5.5 7.2-3.2 36.4-12.4 47.5-15.1 5.5-1.2 25.1-5.4 28-5.9 1.9-.3 5.8-1 8.5-1.5 2.8-.5 7.3-1.2 10-1.5 2.8-.3 6.4-.8 8.1-1.1 1.7-.3 5-.6 7.5-.9 2.4-.2 4.4-.4 4.4-.5 0-.4 31.8-2.3 39.2-2.4 3.4 0 6-.3 5.7-.7-.2-.4-1.2-.7-2.2-.7-.9.1-3.3-.2-5.2-.5-1.9-.3-6-.8-9-1.2-3-.3-7.1-.8-9-1.1-4.2-.6-59.6-1.4-60.2-.9z"/><path d="M462.7 56.6c-.1.1-5.3.5-11.4.8-6.2.4-11.8.8-12.5 1.1-.7.2-4 .6-7.3.9-3.3.3-9.8 1.3-14.5 2.2-4.7.8-9.4 1.7-10.5 1.8-11.9 2-48.9 13-59 17.6-1.1.5-5.4 2.3-9.5 4-31.7 13.4-66.4 35.3-93.9 59.5-7.2 6.3-29.1 28.4-34.1 34.4-2.5 3-5 5.9-5.5 6.5-5 5.4-25.5 34-25.5 35.6 0 .6-.4 1-1 1-.5 0-1 .4-1 1 0 .5-1.5 3.3-3.3 6.2-1.9 2.9-4.9 8.2-6.8 11.8-1.8 3.6-3.7 6.8-4.2 7.1-.5.3-.9 1-.9 1.5s-.8 2.5-1.8 4.5c-5.5 10.6-18.3 43-19.5 49.2-.2.9-.7 2.2-1 2.7-.3.5-.8 1.8-1 2.7-.3 1-.9 3.4-1.4 5.3-.5 1.9-1.7 6.4-2.5 10-.9 3.6-2.1 7.8-2.6 9.5-.4 1.6-1.1 5.2-1.5 7.9-.3 2.7-.8 5.3-1 5.6-.3.4-.7 2.5-1 4.6-.3 2.2-.7 4.8-.9 5.9-.2 1.1-.7 4.9-1.1 8.5-.4 3.6-.9 7.4-1.1 8.5-.4 2.2-1.6 23.1-1.7 31l-.1 5 21.7.2c16.2.1 21.7-.1 21.8-1 0-.7.2-4.8.4-9.2.2-4.4.3-8 .4-8 .1 0 .3-3.4.6-7.5.2-4.1.7-9.3 1-11.5.3-2.2.8-5.6 1-7.5 1.6-11.2 1.5-11 5-26.3 5.3-23.6 14.2-47.8 26.2-71.4 4.1-8.1 7.8-15 8.2-15.3.4-.3 1.1-1.2 1.5-2 1.3-2.9 9.6-16.1 10.6-17 .3-.3 2-2.8 3.9-5.5 1.9-2.8 4.1-5.7 4.8-6.5.7-.8 2.7-3.3 4.4-5.5 10.4-13.7 38-41.5 48.2-48.4 1.2-.8 2.4-1.7 2.7-2 .5-.6 7.1-5.5 15-11.3 9.2-6.6 40-24.4 44-25.3.3-.1 3.2-1.4 6.5-2.9s6.5-2.9 7-3c.6-.1 2.8-1 5-2 10-4.3 39.4-13.1 50-15 1.7-.3 5.7-1 9-1.6 3.3-.6 7.8-1.3 10-1.6 2.2-.3 5.4-.7 7-.9 17.6-2.6 55.8-2.6 74.5-.1 1.4.2 5 .7 8 1 3 .4 6.2.9 7 1.1.8.2 3.5.7 6 1 2.4.4 4.8.9 5.2 1.1.4.3 2.2.7 4 .9 1.8.3 5.8 1.2 8.8 2 8 2.3 8 2.3 14.5 4 3.3.9 6.4 2.1 7 2.6.5.5 1.6.9 2.5.9 3.9 0 50.2 20.5 52 23 .3.4 2.1 1.5 4 2.5 8.8 4.4 29 18.6 41.9 29.4 16.9 14.2 34.6 32.5 46.1 47.6 2.5 3.3 4.8 6.2 5.1 6.5 1.2.9 17.6 26.5 21 32.5 6.3 11.4 13.7 27.1 18.2 38.5 3.9 10.1 10.3 29.2 11.2 33.9.2.9 1.1 4.5 2 8.1 1.7 6.5 2.2 8.8 2.9 14.7.3 1.8.7 4 1 5 .5 1.6 1.3 6.8 2.1 13.3 1.1 8.2 2.3 25.9 2.4 34.2l.1 4.6 21.8-.1 21.7-.2-.1-8.5c-.1-8.8-1.3-26.5-1.9-30.3-.3-1.2-.7-4.3-.9-7-.5-4.1-1-7.5-3-18.7-.4-2.1-3-14.4-4.1-19-.1-.8-1-4.2-1.9-7.5-1-3.3-1.8-6.5-2-7-1.7-6.6-3.8-13.3-4.6-14.7-.6-1-1-2.2-1-2.8 0-.9-5.1-14.5-8.3-22-.6-1.4-1.1-2.7-1.1-3-.4-2.2-15.7-31.7-20.7-40-10.9-18.2-25.1-37.9-37.4-52-5.7-6.6-31-31.6-37.5-37.1-7.1-6-27.8-21.9-28.5-21.9-.3 0-2.6-1.5-5.2-3.4-8.7-6.2-23.6-14.8-37.8-21.8-7.7-3.8-14.8-7.4-15.7-7.9-1-.5-2.5-.9-3.3-.9-.8 0-1.5-.4-1.5-1 0-.5-.3-.9-.7-.8-.5 0-1.5-.2-2.3-.5-7.7-3.3-25.7-9.5-32.2-11.3-.5-.1-.9-.2-1-.4-.2-.1-1-.3-1.8-.5s-4.9-1.3-9-2.5c-4.1-1.1-8.6-2.2-10-2.5-1.4-.3-3.6-.7-5-1.1-1.4-.3-3.4-.7-4.5-.9-1.1-.2-4.5-.8-7.5-1.4-3-.6-7.1-1.3-9-1.5-1.9-.3-5.1-.7-7-1-14.9-2.1-24.3-2.8-44.3-3-9.2-.1-16.9-.1-17 0z"/><path d="M499 125c0 .3 5.1 1.5 11.3 2.8 11.5 2.2 25.4 6.4 34.2 10.2 14.8 6.3 46.4 23.8 47.3 26.2.2.4.8.8 1.4.8.6 0 2.3 1 3.8 2.2 1.5 1.3 6.3 4.8 10.5 7.8 4.3 3 8.3 5.9 8.9 6.5.6.5 4.1 3.4 7.6 6.4 6.7 5.7 28 26.5 28 27.4 0 .3 1.2 1.8 2.8 3.4 4.9 5.2 8.2 9.3 8.2 10.3 0 .5.4 1 .8 1 1.4 0 18.7 24.9 25.8 37.4 8.6 14.9 20.6 42 22.9 51.6.1.3.9 3.1 1.9 6.2.9 3.2 1.8 6.1 1.8 6.5 0 .5.5 1.9 1 3.3s1.1 3.6 1.3 5c.2 1.4.7 3.5 1 4.7 1.3 5.7 1.5 6.5 3 16 .2 1.3.6 4 .9 6 2 12.1 2.9 26.5 3 45.8 0 14.9-.9 34.3-1.8 39.1-.4 1.8-1.2 8.3-2.1 16.9-.2 1.6-.6 4.1-.9 5.5-.8 3.8-1.5 7.2-2.1 10.5-1.1 6.4-1.6 9.1-2.1 10.7-.3.9-.6 2.5-.8 3.5-.2 1-.9 3.8-1.6 6.3-.7 2.5-1.4 5.3-1.6 6.2-2.1 9.2-2.7 11.3-3.7 12.5-.5.7-.7 1.3-.4 1.3.3 0-1.4 5.5-3.7 12.2-6.3 17.9-8.3 23.1-11.5 29.8-1.6 3.3-2.6 6-2.3 6 .4 0 .3.4-.3.8-.5.4-3.2 5.2-5.9 10.7-6.3 12.6-14.8 26.9-24.4 41-4.2 6-7.8 11.2-8.1 11.5-.3.3-2.5 3-4.8 6s-5.3 6.8-6.8 8.5c-1.4 1.6-4.2 5-6.3 7.4-4.2 5.1-24.5 25.6-31.2 31.6-2.5 2.3-8.3 7.2-13 11-4.7 3.8-8.7 7.2-9 7.5-2.2 2.3-21.6 14.9-33.3 21.6-9.4 5.4-30.7 16.2-42.2 21.4-16.9 7.6-42.7 16.4-60 20.5-.5.1-2.1.5-3.5.8-14 3.4-31.2 6.8-41.5 8.2-1.1.2-3.9.6-6.2.9-18 2.5-38.4 4.1-57.7 4.5-2.7.1-4.7.3-4.5.5.4.4 6.7 1.5 12.9 2.1 1.4.2 4.8.6 7.5.9 2.8.3 7.4.8 10.4 1.1 2.9.3 5.8.8 6.4 1.2.6.4.7.1.2-.7-.6-.9-.4-1.1.4-.5 1.7 1 10.3 1.4 30.1 1.4 24.6 0 37.2-.8 54-3.4 1.4-.2 4.5-.7 6.9-1 2.3-.3 5.3-1 6.5-1.4 1.1-.5 2.4-.9 2.9-.9 1.7-.1 10.5-1.8 11-2.1.1-.2 1.3-.5 2.7-.7 3-.5 13.9-3.4 16-4.2.8-.3 2-.6 2.5-.7.6 0 1.7-.4 2.5-.7.8-.4 4.2-1.4 7.5-2.3 3.3-.9 6.9-2 8-2.5 1.1-.5 5.8-2.1 10.5-3.6s11-3.8 14-5.1c3-1.3 5.5-2.4 5.5-2.3 0 .3 5.7-2.1 9.7-4 2.3-1.1 4.7-2 5.4-2 .7 0 1.4-.3 1.6-.8.2-.4 3.8-2.4 8.1-4.5s11.9-6.2 16.9-9.2c5-3 9.4-5.5 9.9-5.5.4 0 .9-.3 1.1-.8.2-.4 2.3-2 4.8-3.7 4.3-2.8 19.2-13.8 21.7-16 .7-.5 2.6-2.1 4.3-3.5 8.2-6.7 12.4-10.5 24.5-22.5 13-13 16-16.2 24.6-26.5 10.2-12.3 31.9-43.3 31.9-45.6 0-.3.8-1.8 1.9-3.2 3.6-5.2 15.8-29.9 21.3-43.2 6.3-15.4 7-17.1 7.3-18.5.2-.6 1.7-5.2 3.4-10.2 3-9 7.3-24.3 7.6-27.3.1-.8.4-2.4.8-3.5.3-1.1.9-3.6 1.2-5.5.3-1.9 1-5.1 1.5-7 .9-3.5 1.8-9.2 2.5-16 .3-1.9.7-4.9.9-6.5 1.7-9.8 2.9-24.3 3-35.2.1-4.6.3-8.3.6-8.3s.5-5 .5-11c0-6.1-.2-11-.5-11s-.6-3.3-.6-7.3c-.4-24.1-5.2-51.9-13.5-78.7-1.7-5.2-3.4-10.4-3.9-11.5-.5-1.1-2.3-5.8-4.2-10.5-1.8-4.7-3.6-8.7-4-8.8-.5-.2-.8-1-.8-1.7 0-1.5-9.9-20.9-14.9-29.4-5-8.4-14.1-21.9-15.7-23.2-.8-.6-1.4-1.5-1.4-2s-1.1-2.2-2.4-3.7c-1.3-1.5-5.2-6.1-8.6-10.2-14.1-17.1-35.3-36.9-51.5-48.1-2.7-1.8-5.2-3.7-5.5-4-1.4-1.7-32.2-20.2-34-20.4-.3-.1-4.5-2-9.4-4.3s-9.3-4.2-9.8-4.2c-.4 0-1.6-.4-2.6-.9-6.6-3.3-35.2-12.5-38.4-12.3-1 0-1.8-.2-1.8-.6 0-.4-1-.8-2.2-.9-1.3 0-6.8-.8-12.3-1.7-10-1.5-31.5-2.6-31.5-1.6z"/><path d="M377 239.8c-23.4 6.1-37.1 29.1-29.6 49.8 1.2 3.3 12.9 28.9 25.1 54.9 1.8 3.8 4.5 9.7 6 13 1.6 3.3 4.4 9.4 6.4 13.6l3.5 7.6 4.9-1.9c2.7-1 4.6-1.4 4.2-.8-.4.6.2.7 1.7.2 4.3-1.5 12.1-.1 19.9 3.8l5.6 2.7 2.9-3.1c7.1-7.5 24.1-32.6 27.5-40.4 5.7-13.1 7.9-23.8 7.5-37.2-.3-9.5-.8-12.8-3.1-19-8-21.8-24.3-35.5-50.5-42.6-8.5-2.3-24.2-2.6-32-.6zM395.6 391.2c-5.4 1.5-12.1 8.2-13.6 13.7-2.2 8.3.7 17.7 6.8 21.7 5 3.4 6.7 4 11.9 4.3 11.7.6 21.2-8.9 20.8-20.9-.4-13.3-12.8-22.2-25.9-18.8zM296.5 405c-10.3 2.8-14.1 4.4-20.9 8.9-13 8.5-23.2 22.6-27 37.1-2.2 8.3-1.4 29 1.4 37.5.6 1.8 1.2 4.1 1.4 5.1 1.4 7.1 11.4 23.4 17.6 28.5 4.6 3.9 13.7 8.8 16.2 8.9.9 0 1.9.3 2.1.8.6.8 9.5.8 15-.2 5.8-.9 14.4-5.2 18.6-9.1 2-1.9 3.9-3.5 4.4-3.5.4 0 .7-.4.7-1 0-.5 1.5-2.9 3.3-5.3 3.8-5.1 5.2-7 11.7-16.2 2.7-3.9 5.4-7.5 6-8.2.5-.7 1-1.5 1-1.7 0-.3.7-1.4 1.5-2.3.8-1 4.1-5.6 7.4-10.3 3.3-4.7 6.4-9 6.8-9.5.4-.6 2.8-3.9 5.3-7.5 2.4-3.6 4.9-7 5.5-7.7 2.7-3.2 3.4-4.2 4.7-6.8 1.5-2.8 1.4-3-2.2-6.8-5.2-5.3-9.1-12.9-11-21.2-1.8-7.5-1.8-7.5-11.3-9-5.9-1-7.7-1.4-8.8-2.1-.6-.4-9.8-.8-20.3-.9-18.1-.3-19.6-.1-29.1 2.5z"/><path d="M3.7 410.8l-3.8.3.5 13.7c.4 7.5.8 15.5 1 17.7 1.5 13.8 1.7 16.2 2.2 18.5.3 1.4.6 3.8.8 5.5.2 1.6.6 4.3.9 6 .4 1.6.9 4.3 1.2 6 .7 4.4 1.4 7.4 1.9 9.3.3.9.8 2.9 1.1 4.4 1.2 6.6 1.6 8.2 2.1 9 .3.5.7 1.9 1 3.2.7 4.1 8.6 28.1 9.5 29.1.5.5.9 1.8.9 3s.4 2.5.8 3c.5.6 2.1 4.1 3.7 8 4.8 12 16.3 34.5 23.5 46.3 2.5 4 5 8.1 5.5 9 1.4 2.5 12.4 18.2 15.2 21.7 13.6 17.2 19.7 24.1 34.3 38.5 8.1 8 16.7 16.1 19 18 2.4 1.9 5.7 4.7 7.4 6.1 7.9 6.6 38.5 27.9 40.1 27.9.3 0 3 1.5 5.9 3.4 6.4 4.1 36.9 19.1 41.1 20.2.6.1 4.2 1.6 8.2 3.2 3.9 1.7 11.8 4.5 17.5 6.2 5.7 1.7 11.2 3.4 12.3 3.8 1.1.3 2.3.7 2.8.8.4.1.8.2 1 .4.1.1 1.1.3 2.2.5s4.5 1 7.5 1.8 7.1 1.8 9.1 2.1c2 .3 4.2.8 5 1 .8.3 3 .7 4.9 1 1.9.3 7.8 1.2 13 2s13.3 1.9 18 2.3c11 1 54.3 1 64 0 14-1.5 22.9-2.6 26.4-3.3 1.2-.2 3.6-.7 5.5-1 5-.8 7.1-1.3 8.9-1.8.9-.3 2.8-.7 4.2-1 1.4-.2 4.5-.9 7-1.6 2.5-.7 5.4-1.4 6.5-1.6 4.4-.8 28-8.3 33-10.4 1.1-.5 6.7-2.8 12.5-5.1 27.4-11 65.4-33.7 86.1-51.3 2-1.7 5.5-4.7 8-6.6 4.8-3.8 30.7-29.4 35.4-35 8.8-10.4 12.8-15.3 18.8-23.5 3.7-5 7.1-9.5 7.7-10.2.5-.7 1-1.5 1-1.8 0-.7 3.9-6.3 5.8-8.3.6-.7 1.2-1.7 1.2-2.2 0-.8 3.2-6.2 5.7-9.5.7-1 4.2-7.4 11.4-21.3 1.6-3.1 2.9-6.2 2.9-6.9 0-.7.5-1.3 1.2-1.3.6 0 .8-.3.5-.7-.4-.3-.3-1.1.2-1.7 2.2-2.6 17.6-43.6 16.4-43.6-.3 0 0-.7.7-1.5s1-1.5.6-1.5c-.3 0-.1-1.2.5-2.8 1-2.6 1.5-4.3 2.5-8.9.2-1.2.9-3.4 1.4-4.8.5-1.4.9-2.9.9-3.3-.1-.4 0-1 .1-1.5.4-1 .5-1.8 2.5-11.7.6-3 1.9-11.4 4-25.3.7-5 1.4-15 2.1-29l.5-12.7-2.8-.1c-1.5 0-11.3-.1-21.7-.1-17.9-.1-18.9 0-19.2 1.8-.1 1-.5 7.7-.8 14.9-.4 7.1-.8 14.3-1 16-1.1 9.3-1.7 13.3-2.1 15.7-.3 1.6-.7 3.8-.9 5-2.1 11.9-3 16.2-4.6 22.1-1 3.7-1.8 6.8-1.8 7 .2.7-6 19.7-9.4 28.7-8.4 22.1-21.2 46.8-33.6 64.5-2 2.7-4.5 6.3-5.6 8-1.2 1.6-2.4 3.2-2.7 3.5-.3.3-2.2 2.7-4.3 5.5-12.6 16.7-34.8 38.7-53.1 52.7-3.8 2.9-7.2 5.5-7.5 5.9-.7.7-20.9 14.1-23.5 15.5-1.1.6-4.5 2.5-7.5 4.3-7.6 4.3-24.2 12.4-32 15.6-3.6 1.4-7.4 3-8.5 3.5-2.3 1-17.2 6.1-18.9 6.5-.6.1-1.8.5-2.6.8-1.7.7-21.2 5.7-24.7 6.3-2.5.4-5.6 1-8.8 1.7-1.1.3-4.2.8-6.8 1.1-2.7.4-5.6.9-6.5 1.1-2.3.4-12.2 1.4-20.2 2.1-7.8.6-37.2.6-45-.1-13-1.1-20.7-2-29.3-3.6-3.2-.5-7-1.2-8.5-1.4-2.4-.4-5.5-1.1-13.7-3.2-1.1-.2-3.6-.8-5.5-1.3-26.4-6.3-66.9-24.6-90.2-40.7-2.6-1.8-5.2-3.3-5.7-3.3s-1.1-.4-1.3-.8c-.1-.4-2.5-2.3-5.3-4.2-5.4-3.8-8.9-6.6-11.7-9.3-1-.9-2.1-1.7-2.5-1.7-.5 0-3.3-2.3-6.3-5.2-16.7-15.5-25.6-24.5-35-35.8-3-3.6-5.8-6.7-6.2-6.8-.5-.2-.8-1-.8-1.7s-.3-1.5-.8-1.7c-1-.4-9.9-12.7-15.4-21.3-8.9-13.8-15.3-26-25.6-48.6-3.1-6.9-11.7-33.2-14-42.9-1.2-4.7-2.4-9.9-2.8-11.5-1.1-4.6-1.1-4.4-3-16.5-.2-1.4-.6-4.9-.9-7.9-.3-3-.7-5.7-.9-6-.5-.8-1.9-22.1-1.9-28.9 0-5.1-.1-5.2-3.1-5.3-18.4-.3-33.8-.3-36.9-.1z"/><path d="M437.6 416.6c-.3.8-.6 2.3-.6 3.2 0 2.9-4.6 11.6-8.1 15.7-1.9 2.1-5.2 5-7.5 6.5l-4.1 2.6 1.9 5.4c1 3 2 5.9 2.1 6.5.2.5 3 6.6 6.3 13.5 6.1 12.7 11.3 21.4 15.6 26.1 1.2 1.4 3.7 4.1 5.3 6 4.7 5.2 14.5 13.4 19.5 16.1 17.7 9.7 39.5 10.1 57.3 1.2 12.9-6.5 25.4-18.3 33.3-31.2 6.6-10.9 8.4-16.4 8.5-26.2 0-6.4-.3-7.9-2.7-14-5.6-14.6-18.3-22.9-37.4-24.5-12.5-1.1-18.8-1.7-21-2-1.4-.2-6.1-.7-10.5-1-4.4-.3-9.6-.8-11.5-1-4.9-.5-13.4-1.4-20.5-2-9.1-.8-16.5-1.5-21.1-2.1-3.2-.3-4.3-.1-4.8 1.2z"/></svg>