<svg width="146" height="147" fill="none" xmlns="http://www.w3.org/2000/svg"><path d="M2 4a2 2 0 100-4 2 2 0 000 4zm0 142.017a2 2 0 100-4 2 2 0 000 4zM20 4a2 2 0 100-4 2 2 0 000 4zm71 0a2 2 0 100-4 2 2 0 000 4zM20 146.017a2 2 0 100-4 2 2 0 000 4zm71 0a2 2 0 100-4 2 2 0 000 4zM37 4a2 2 0 100-4 2 2 0 000 4zm71 0a2 2 0 100-4 2 2 0 000 4zM37 146.017a2 2 0 100-4 2 2 0 000 4zm71 0a2 2 0 100-4 2 2 0 000 4zM55 4a2 2 0 100-4 2 2 0 000 4zm71 0a2 2 0 100-4 2 2 0 000 4zM55 146.017a2 2 0 100-4 2 2 0 000 4zm71 0a2 2 0 100-4 2 2 0 000 4zM73 4a2 2 0 100-4 2 2 0 000 4zm71 0a2 2 0 100-4 2 2 0 000 4zM73 146.017a2 2 0 100-4 2 2 0 000 4zm71 0a2 2 0 100-4 2 2 0 000 4zM2 22.002a2 2 0 100-4 2 2 0 000 4zm18 0a2 2 0 100-4 2 2 0 000 4zm71 0a2 2 0 100-4 2 2 0 000 4zm-54 0a2 2 0 100-4 2 2 0 000 4zm71 0a2 2 0 100-4 2 2 0 000 4zm-53 0a2 2 0 100-4 2 2 0 000 4zm71 0a2 2 0 100-4 2 2 0 000 4zm-53 0a2 2 0 100-4 2 2 0 000 4zm71 0a2 2 0 100-4 2 2 0 000 4zM2 39.004a2 2 0 100-4 2 2 0 000 4zm18 0a2 2 0 100-4 2 2 0 000 4zm71 0a2 2 0 100-4 2 2 0 000 4zm-54 0a2 2 0 100-4 2 2 0 000 4zm71 0a2 2 0 100-4 2 2 0 000 4zm-53 0a2 2 0 100-4 2 2 0 000 4zm71 0a2 2 0 100-4 2 2 0 000 4zm-53 0a2 2 0 100-4 2 2 0 000 4zm71 0a2 2 0 100-4 2 2 0 000 4zM2 57.006a2 2 0 100-4 2 2 0 000 4zm18 0a2 2 0 100-4 2 2 0 000 4zm71 0a2 2 0 100-4 2 2 0 000 4zm-54 0a2 2 0 100-4 2 2 0 000 4zm71 0a2 2 0 100-4 2 2 0 000 4zm-53 0a2 2 0 100-4 2 2 0 000 4zm71 0a2 2 0 100-4 2 2 0 000 4zm-53 0a2 2 0 100-4 2 2 0 000 4zm71 0a2 2 0 100-4 2 2 0 000 4zM2 75.008a2 2 0 100-4 2 2 0 000 4zm18 0a2 2 0 100-4 2 2 0 000 4zm71 0a2 2 0 100-4 2 2 0 000 4zm-54 0a2 2 0 100-4 2 2 0 000 4zm71 0a2 2 0 100-4 2 2 0 000 4zm-53 0a2 2 0 100-4 2 2 0 000 4zm71 0a2 2 0 100-4 2 2 0 000 4zm-53 0a2 2 0 100-4 2 2 0 000 4zm71 0a2 2 0 100-4 2 2 0 000 4zM2 92.01a2 2 0 100-4 2 2 0 000 4zm18 0a2 2 0 100-4 2 2 0 000 4zm71 0a2 2 0 100-4 2 2 0 000 4zm-54 0a2 2 0 100-4 2 2 0 000 4zm71 0a2 2 0 100-4 2 2 0 000 4zm-53 0a2 2 0 100-4 2 2 0 000 4zm71 0a2 2 0 100-4 2 2 0 000 4zm-53 0a2 2 0 100-4 2 2 0 000 4zm71 0a2 2 0 100-4 2 2 0 000 4zM2 110.012a2 2 0 100-4 2 2 0 000 4zm18 0a2 2 0 100-4 2 2 0 000 4zm71 0a2 2 0 100-4 2 2 0 000 4zm-54 0a2 2 0 100-4 2 2 0 000 4zm71 0a2 2 0 10.001-3.999 2 2 0 00-.001 3.999zm-53 0a2 2 0 100-4 2 2 0 000 4zm71 0a2 2 0 10.001-3.999 2 2 0 00-.001 3.999zm-53 0a2 2 0 100-4 2 2 0 000 4zm71 0a2 2 0 10.001-3.999 2 2 0 00-.001 3.999zM2 128.015a2 2 0 100-4 2 2 0 000 4zm18 0a2 2 0 100-4 2 2 0 000 4zm71 0a2 2 0 100-4 2 2 0 000 4zm-54 0a2 2 0 100-4 2 2 0 000 4zm71 0a2 2 0 100-4 2 2 0 000 4zm-53 0a2 2 0 100-4 2 2 0 000 4zm71 0a2 2 0 100-4 2 2 0 000 4zm-53 0a2 2 0 100-4 2 2 0 000 4zm71 0a2 2 0 100-4 2 2 0 000 4z" fill="#B6C0CE"/></svg>