<svg width="80" height="160" fill="none" xmlns="http://www.w3.org/2000/svg"><g opacity=".1" clip-path="url(#clip0)"><mask id="a" maskUnits="userSpaceOnUse" x="-100" y="-20" width="200" height="200"><path fill="#F7F7F9" d="M-100-20h200v200h-200z"/></mask><g mask="url(#a)" fill="#216B70"><path d="M-205.715 83.061l7.071-7.071L14.902 289.536l-7.07 7.071zm14.141-14.142l7.071-7.071L29.043 275.394l-7.07 7.071zm14.144-14.142l7.071-7.071L43.188 261.252l-7.072 7.071zm14.141-14.142l7.071-7.071L57.33 247.11l-7.071 7.071zm14.144-14.143l7.07-7.071L71.473 232.967l-7.071 7.071zm14.141-14.142l7.07-7.071L85.614 218.825l-7.071 7.071zm70.711-70.71l7.071-7.071 213.547 213.546-7.071 7.071zm-56.57 56.568l7.071-7.071L99.754 204.683l-7.07 7.071zm70.711-70.71l7.071-7.071 213.547 213.546-7.071 7.07zm-56.567 56.568l7.071-7.071L113.898 190.54l-7.07 7.071zm70.711-70.711l7.07-7.07L184.61 119.83l-7.07 7.071zm-56.57 56.569l7.071-7.071L128.04 176.399l-7.07 7.071zm70.711-70.711l7.071-7.071L198.75 105.688l-7.07 7.071zm-56.571 56.569l7.071-7.07L142.18 162.256l-7.071 7.072zm70.711-70.711l7.071-7.07L212.89 91.545l-7.07 7.072z"/></g></g><defs><clipPath id="clip0"><path fill="#fff" d="M0 0h80v160H0z"/></clipPath></defs></svg>