<svg width="199" height="200" fill="none" xmlns="http://www.w3.org/2000/svg"><path d="M144 22a2 2 0 100-4 2 2 0 000 4zM2 22a2 2 0 100-4 2 2 0 000 4zm160 0a2 2 0 100-4 2 2 0 000 4zM20 22a2 2 0 100-4 2 2 0 000 4zm159 0a2 2 0 100-4 2 2 0 000 4zM37 22a2 2 0 100-4 2 2 0 000 4zm160 0a2 2 0 100-4 2 2 0 000 4zM55 22a2 2 0 100-4 2 2 0 000 4zm18 0a2 2 0 100-4 2 2 0 000 4zm17 0a2 2 0 100-4 2 2 0 000 4zm18 0a2 2 0 100-4 2 2 0 000 4zm18 0a2 2 0 100-4 2 2 0 000 4zm18 18a2 2 0 100-4 2 2 0 000 4zM2 40a2 2 0 100-4 2 2 0 000 4zm160 0a2 2 0 100-4 2 2 0 000 4zM20 40a2 2 0 100-4 2 2 0 000 4zm159 0a2 2 0 100-4 2 2 0 000 4zM37 40a2 2 0 100-4 2 2 0 000 4zm160 0a2 2 0 100-4 2 2 0 000 4zM55 40a2 2 0 100-4 2 2 0 000 4zm18 0a2 2 0 100-4 2 2 0 000 4zm17 0a2 2 0 100-4 2 2 0 000 4zm18 0a2 2 0 100-4 2 2 0 000 4zm18 0a2 2 0 100-4 2 2 0 000 4zm18 17a2 2 0 100-4 2 2 0 000 4zM2 57a2 2 0 100-4 2 2 0 000 4zm160 0a2 2 0 100-4 2 2 0 000 4zM20 57a2 2 0 100-4 2 2 0 000 4zm159 0a2 2 0 100-4 2 2 0 000 4zM37 57a2 2 0 100-4 2 2 0 000 4zm160 0a2 2 0 100-4 2 2 0 000 4zM55 57a2 2 0 100-4 2 2 0 000 4zm18 0a2 2 0 100-4 2 2 0 000 4zm17 0a2 2 0 100-4 2 2 0 000 4zm18 0a2 2 0 100-4 2 2 0 000 4zm18 0a2 2 0 100-4 2 2 0 000 4zm18 18a2 2 0 100-4 2 2 0 000 4zM2 75a2 2 0 100-4 2 2 0 000 4zm160 0a2 2 0 100-4 2 2 0 000 4zM20 75a2 2 0 100-4 2 2 0 000 4zm159 0a2 2 0 100-4 2 2 0 000 4zM37 75a2 2 0 100-4 2 2 0 000 4zm160 0a2 2 0 100-4 2 2 0 000 4zM55 75a2 2 0 100-4 2 2 0 000 4zm18 0a2 2 0 100-4 2 2 0 000 4zm17 0a2 2 0 100-4 2 2 0 000 4zm18 0a2 2 0 100-4 2 2 0 000 4zm18 0a2 2 0 100-4 2 2 0 000 4zm18 18a2 2 0 100-4 2 2 0 000 4zM2 93a2 2 0 100-4 2 2 0 000 4zm160 0a2 2 0 100-4 2 2 0 000 4zM20 93a2 2 0 100-4 2 2 0 000 4zm159 0a2 2 0 100-4 2 2 0 000 4zM37 93a2 2 0 100-4 2 2 0 000 4zm160 0a2 2 0 100-4 2 2 0 000 4zM55 93a2 2 0 100-4 2 2 0 000 4zm18 0a2 2 0 100-4 2 2 0 000 4zm17 0a2 2 0 100-4 2 2 0 000 4zm18 0a2 2 0 100-4 2 2 0 000 4zm18 0a2 2 0 100-4 2 2 0 000 4zm18 17a2 2 0 10.001-3.999A2 2 0 00144 110zm0 54a2 2 0 10.001-3.999A2 2 0 00144 164zM2 110a2 2 0 100-4 2 2 0 000 4zm0 54a2 2 0 100-4 2 2 0 000 4zm160-54a2 2 0 10.001-3.999A2 2 0 00162 110zm0 54a2 2 0 10.001-3.999A2 2 0 00162 164zM20 110a2 2 0 100-4 2 2 0 000 4zm0 54a2 2 0 100-4 2 2 0 000 4zm159-54a2 2 0 10.001-3.999A2 2 0 00179 110zm0 54a2 2 0 10.001-3.999A2 2 0 00179 164zM37 110a2 2 0 100-4 2 2 0 000 4zm0 54a2 2 0 100-4 2 2 0 000 4zm160-54a2 2 0 10.001-3.999A2 2 0 00197 110zm0 54a2 2 0 10.001-3.999A2 2 0 00197 164zM55 110a2 2 0 100-4 2 2 0 000 4zm0 54a2 2 0 100-4 2 2 0 000 4zm18-54a2 2 0 100-4 2 2 0 000 4zm0 54a2 2 0 100-4 2 2 0 000 4zm17-54a2 2 0 100-4 2 2 0 000 4zm0 54a2 2 0 100-4 2 2 0 000 4zm18-54a2 2 0 10.001-3.999A2 2 0 00108 110zm0 54a2 2 0 10.001-3.999A2 2 0 00108 164zm18-54a2 2 0 10.001-3.999A2 2 0 00126 110zm0 54a2 2 0 10.001-3.999A2 2 0 00126 164zm18-36a2 2 0 10.001-3.999A2 2 0 00144 128zm0 54a2 2 0 10.001-3.999A2 2 0 00144 182zM2 128a2 2 0 100-4 2 2 0 000 4zm0 54a2 2 0 100-4 2 2 0 000 4zm160-54a2 2 0 10.001-3.999A2 2 0 00162 128zm0 54a2 2 0 10.001-3.999A2 2 0 00162 182zM20 128a2 2 0 100-4 2 2 0 000 4zm0 54a2 2 0 100-4 2 2 0 000 4zm159-54a2 2 0 10.001-3.999A2 2 0 00179 128zm0 54a2 2 0 10.001-3.999A2 2 0 00179 182zM37 128a2 2 0 100-4 2 2 0 000 4zm0 54a2 2 0 100-4 2 2 0 000 4zm160-54a2 2 0 10.001-3.999A2 2 0 00197 128zm0 54a2 2 0 10.001-3.999A2 2 0 00197 182zM55 128a2 2 0 100-4 2 2 0 000 4zm0 54a2 2 0 100-4 2 2 0 000 4zm18-54a2 2 0 100-4 2 2 0 000 4zm0 54a2 2 0 100-4 2 2 0 000 4zm17-54a2 2 0 100-4 2 2 0 000 4zm0 54a2 2 0 100-4 2 2 0 000 4zm18-54a2 2 0 10.001-3.999A2 2 0 00108 128zm0 54a2 2 0 10.001-3.999A2 2 0 00108 182zm18-54a2 2 0 10.001-3.999A2 2 0 00126 128zm0 54a2 2 0 10.001-3.999A2 2 0 00126 182zM2 4a2 2 0 100-4 2 2 0 000 4zm142 0a2 2 0 100-4 2 2 0 000 4zm0 142a2 2 0 10.001-3.999A2 2 0 00144 146zm0 54a2 2 0 10.001-3.999A2 2 0 00144 200zM2 146a2 2 0 100-4 2 2 0 000 4zm0 54a2 2 0 100-4 2 2 0 000 4zM20 4a2 2 0 100-4 2 2 0 000 4zm142 0a2 2 0 100-4 2 2 0 000 4zm0 142a2 2 0 10.001-3.999A2 2 0 00162 146zm0 54a2 2 0 10.001-3.999A2 2 0 00162 200zM20 146a2 2 0 100-4 2 2 0 000 4zm0 54a2 2 0 100-4 2 2 0 000 4zM37 4a2 2 0 100-4 2 2 0 000 4zm142 0a2 2 0 100-4 2 2 0 000 4zm0 142a2 2 0 10.001-3.999A2 2 0 00179 146zm0 54a2 2 0 10.001-3.999A2 2 0 00179 200zM37 146a2 2 0 100-4 2 2 0 000 4zm0 54a2 2 0 100-4 2 2 0 000 4zM55 4a2 2 0 100-4 2 2 0 000 4zm142 0a2 2 0 100-4 2 2 0 000 4zm0 142a2 2 0 10.001-3.999A2 2 0 00197 146zm0 54a2 2 0 10.001-3.999A2 2 0 00197 200zM55 146a2 2 0 100-4 2 2 0 000 4zm0 54a2 2 0 100-4 2 2 0 000 4zM73 4a2 2 0 100-4 2 2 0 000 4zm0 142a2 2 0 100-4 2 2 0 000 4zm0 54a2 2 0 100-4 2 2 0 000 4zM90 4a2 2 0 100-4 2 2 0 000 4zm0 142a2 2 0 100-4 2 2 0 000 4zm0 54a2 2 0 100-4 2 2 0 000 4zM108 4a2 2 0 100-4 2 2 0 000 4zm0 142a2 2 0 10.001-3.999A2 2 0 00108 146zm0 54a2 2 0 10.001-3.999A2 2 0 00108 200zM126 4a2 2 0 100-4 2 2 0 000 4zm0 142a2 2 0 10.001-3.999A2 2 0 00126 146zm0 54a2 2 0 10.001-3.999A2 2 0 00126 200z" fill="#B6C0CE"/></svg>