<svg width="94" height="94" fill="none" xmlns="http://www.w3.org/2000/svg"><path d="M18 20a2 2 0 104 0 2 2 0 00-4 0zm0-18a2 2 0 104 0 2 2 0 00-4 0zM0 20a2 2 0 104 0 2 2 0 00-4 0zM0 2a2 2 0 104 0 2 2 0 00-4 0zm18 36a2 2 0 104 0 2 2 0 00-4 0zM0 38a2 2 0 104 0 2 2 0 00-4 0zm18 18a2 2 0 104 0 2 2 0 00-4 0zM0 56a2 2 0 104 0 2 2 0 00-4 0zm18 18a2 2 0 104 0 2 2 0 00-4 0zM0 74a2 2 0 104 0 2 2 0 00-4 0zm18 18a2 2 0 104 0 2 2 0 00-4 0zM0 92a2 2 0 104 0 2 2 0 00-4 0z" fill="#fff"/><path d="M72 20a2 2 0 104 0 2 2 0 00-4 0zm0-18a2 2 0 104 0 2 2 0 00-4 0zm18 18a2 2 0 104 0 2 2 0 00-4 0zm0-18a2 2 0 104 0 2 2 0 00-4 0zM72 38a2 2 0 104 0 2 2 0 00-4 0zm18 0a2 2 0 104 0 2 2 0 00-4 0zM72 56a2 2 0 104 0 2 2 0 00-4 0zm18 0a2 2 0 104 0 2 2 0 00-4 0zM72 74a2 2 0 104 0 2 2 0 00-4 0zm18 0a2 2 0 104 0 2 2 0 00-4 0zM72 92a2 2 0 104 0 2 2 0 00-4 0zm18 0a2 2 0 104 0 2 2 0 00-4 0zM54 20a2 2 0 104 0 2 2 0 00-4 0zm0-18a2 2 0 104 0 2 2 0 00-4 0zm0 36a2 2 0 104 0 2 2 0 00-4 0zm0 18a2 2 0 104 0 2 2 0 00-4 0zm0 18a2 2 0 104 0 2 2 0 00-4 0zm0 18a2 2 0 104 0 2 2 0 00-4 0z" fill="#B6C0CE"/><path d="M36 20a2 2 0 104 0 2 2 0 00-4 0zm0-18a2 2 0 104 0 2 2 0 00-4 0zm0 36a2 2 0 104 0 2 2 0 00-4 0zm0 18a2 2 0 104 0 2 2 0 00-4 0zm0 18a2 2 0 104 0 2 2 0 00-4 0zm0 18a2 2 0 104 0 2 2 0 00-4 0z" fill="#fff"/></svg>