<svg width="16" height="17" fill="none" xmlns="http://www.w3.org/2000/svg"><path d="M15.372 13.873a7.99 7.99 0 00-1.715-2.552A7.992 7.992 0 0011.115 9.6l-.026-.01a5.291 5.291 0 002.188-4.294C13.277 2.371 10.915 0 8 0S2.723 2.37 2.723 5.296c0 1.767.862 3.332 2.188 4.295-.009.005-.017.007-.026.011a7.921 7.921 0 00-2.542 1.721A8.023 8.023 0 000 16.825.172.172 0 00.17 17h1.277a.17.17 0 00.17-.167 6.379 6.379 0 011.868-4.363A6.329 6.329 0 018 10.593c1.706 0 3.309.666 4.515 1.877a6.379 6.379 0 011.868 4.363.169.169 0 00.17.167h1.277a.17.17 0 00.17-.175 7.983 7.983 0 00-.628-2.952zM8 8.97a3.629 3.629 0 01-2.587-1.077A3.657 3.657 0 014.34 5.296c0-.98.381-1.902 1.073-2.597A3.629 3.629 0 018 1.623c.977 0 1.896.382 2.587 1.077a3.656 3.656 0 011.072 2.596c0 .98-.38 1.903-1.072 2.597A3.629 3.629 0 018 8.97z" fill="#575A64"/></svg>