<svg width="22" height="25" fill="none" xmlns="http://www.w3.org/2000/svg"><path d="M4.715 11.56h2.514v2.357H4.715V11.56zm0 4.714h2.514v2.357H4.715v-2.357zm5.028-4.714h2.515v2.357H9.743V11.56zm0 4.714h2.515v2.357H9.743v-2.357zm5.029-4.714h2.514v2.357h-2.514V11.56zm0 4.714h2.514v2.357h-2.514v-2.357z" fill="#575A64"/><path d="M2.444 24.919h17.112A2.443 2.443 0 0022 22.483V5.43a2.443 2.443 0 00-2.444-2.436H17.11V.559h-2.444v2.436H7.333V.559H4.89v2.436H2.444A2.443 2.443 0 000 5.43v17.052a2.443 2.443 0 002.444 2.436zM19.556 7.867v14.616H2.445V7.867h17.112z" fill="#575A64"/></svg>