<svg width="100" height="100" fill="none" xmlns="http://www.w3.org/2000/svg"><path fill="#216B70" d="M0 0h100v100H0z"/><path d="M54.917 26.275c13.28 0 23.973 10.833 23.973 24.035h3.377c0-15.12-12.268-27.42-27.35-27.42-15.083 0-27.35 12.3-27.35 27.42h3.376c0-13.315 10.692-24.035 23.974-24.035z" fill="#fff"/><path d="M45.35 74.344c-13.168 0-23.973-10.72-23.973-24.034H18c0 15.12 12.268 27.419 27.35 27.419s27.35-12.3 27.35-27.42h-3.376c0 13.315-10.693 24.035-23.974 24.035zm8.442-31.594c-.113.79-.338 1.58-.676 2.256-.45.79-1.013 1.58-1.575 2.37-.113.225-.45.451-.676.79-.788-.565-1.913-.79-2.813-.339l-3.04-6.545c-.675-1.466-.112-3.046 1.239-3.836 1.688-1.016 4.39-.339 5.74.79 1.35 1.015 2.026 2.708 1.8 4.513z" fill="#fff"/><path d="M61.895 54.259c0 1.918-1.913 3.95-3.601 4.626-1.688.677-3.49.339-4.84-.79-.563-.451-1.125-1.128-1.576-1.692-.45-.79-.9-1.693-1.238-2.483-.112-.225-.225-.564-.337-1.015.9-.452 1.463-1.242 1.575-2.257l7.204.677c1.575.113 2.813 1.354 2.813 2.934zm-14.407-1.693l-4.164 5.868c-.9 1.24-2.589 1.692-3.94.902-1.688-.902-2.476-3.61-2.25-5.416.224-1.692 1.462-3.16 3.038-3.836.676-.226 1.464-.452 2.251-.452.9 0 1.914 0 2.814.226.225 0 .563.113 1.013.226v.225a3.488 3.488 0 001.238 2.257zm1.576-.676c.87 0 1.576-.708 1.576-1.58 0-.873-.706-1.58-1.576-1.58-.87 0-1.576.707-1.576 1.58 0 .872.706 1.58 1.576 1.58z" fill="#fff"/><path d="M56.942 21.423c-3.376 0-6.753.452-10.017 1.354-3.151.903-6.19 2.37-8.892 4.175-5.29 3.724-9.116 9.253-10.805 15.572-1.575 6.206-1.575 13.089 1.576 18.73 1.576 2.822 3.714 5.417 6.303 7.335 1.35 1.016 2.814 1.918 4.277 2.595 1.463.79 3.151 1.242 4.84 1.467a13.66 13.66 0 01-5.178-.677c-1.688-.564-3.264-1.241-4.84-2.144a23.806 23.806 0 01-7.653-7.334 23.247 23.247 0 01-3.489-10.268c-.338-3.611 0-7.222.9-10.72 1.914-6.883 6.528-12.863 12.719-16.587 1.576-.903 3.151-1.58 4.84-2.144a42.077 42.077 0 015.064-1.354c3.377-.564 6.866-.564 10.355 0zM43.438 79.421c3.376 0 6.753-.451 10.017-1.354 3.151-.902 6.19-2.37 8.891-4.175 5.29-3.836 9.117-9.252 10.805-15.571 1.689-6.206 1.576-13.09-1.575-18.731-1.576-2.821-3.715-5.416-6.303-7.335-1.351-1.015-2.702-1.918-4.165-2.595-1.463-.79-3.151-1.241-4.84-1.467a13.66 13.66 0 015.178.677c1.576.452 3.151 1.129 4.727 2.031a22.89 22.89 0 0111.143 17.603c.337 3.61 0 7.221-.9 10.72-1.914 6.995-6.416 13.089-12.72 16.812-1.575.903-3.15 1.58-4.839 2.144a42.057 42.057 0 01-5.065 1.354c-3.489.564-6.978.451-10.355-.113z" fill="#fff"/></svg>