<svg width="52" height="48" fill="none" xmlns="http://www.w3.org/2000/svg"><path d="M29.818 4.26c10.727 0 19.363 8.75 19.363 19.413h2.728c0-12.212-9.91-22.146-22.09-22.146-12.183 0-22.091 9.934-22.091 22.146h2.727c0-10.754 8.636-19.412 19.363-19.412zM22.09 43.085c-10.636 0-19.363-8.658-19.363-19.412H0C0 35.886 9.909 45.82 22.09 45.82c12.182 0 22.091-9.934 22.091-22.147h-2.727c0 10.754-8.636 19.412-19.364 19.412z" fill="#216B70"/><path d="M28.909 17.567a6.056 6.056 0 01-.546 1.822c-.363.638-.818 1.276-1.272 1.914-.091.183-.364.365-.546.638-.636-.455-1.545-.638-2.272-.273l-2.455-5.286c-.545-1.185-.09-2.46 1-3.099 1.364-.82 3.545-.273 4.636.638 1.091.82 1.637 2.188 1.455 3.646zm6.544 9.296c0 1.55-1.545 3.19-2.909 3.736-1.363.547-2.818.274-3.909-.637-.454-.365-.909-.912-1.273-1.367a20.605 20.605 0 01-1-2.005 4.352 4.352 0 01-.272-.82 2.252 2.252 0 001.273-1.824l5.818.547c1.272.091 2.272 1.094 2.272 2.37zm-11.635-1.367l-3.364 4.739c-.727 1.002-2.09 1.367-3.181.729-1.364-.73-2-2.916-1.819-4.375.182-1.367 1.182-2.551 2.455-3.098.545-.183 1.182-.365 1.818-.365.727 0 1.545 0 2.273.182.181 0 .454.091.818.183v.182a2.81 2.81 0 001 1.823zm1.272-.547c.703 0 1.273-.571 1.273-1.276 0-.705-.57-1.276-1.273-1.276s-1.273.571-1.273 1.276c0 .705.57 1.276 1.273 1.276z" fill="#216B70"/><path d="M31.454.342a30.38 30.38 0 00-8.09 1.093c-2.546.73-5 1.914-7.182 3.373-4.273 3.007-7.364 7.473-8.727 12.576-1.273 5.013-1.273 10.572 1.272 15.13 1.273 2.278 3 4.374 5.091 5.923 1.091.82 2.273 1.55 3.455 2.096 1.181.638 2.545 1.003 3.909 1.185A11.035 11.035 0 0117 41.171a21.292 21.292 0 01-3.91-1.731 19.227 19.227 0 01-6.18-5.924 18.777 18.777 0 01-2.819-8.294c-.273-2.916 0-5.832.727-8.658 1.546-5.56 5.273-10.39 10.273-13.397A21.302 21.302 0 0119 1.435 33.979 33.979 0 0123.09.342a25.753 25.753 0 018.364 0zM20.545 47.187a30.38 30.38 0 008.09-1.094c2.546-.73 5-1.914 7.182-3.372 4.273-3.099 7.364-7.474 8.727-12.577 1.364-5.013 1.273-10.572-1.272-15.13-1.273-2.278-3-4.374-5.091-5.923-1.09-.82-2.182-1.55-3.364-2.096-1.181-.638-2.545-1.003-3.909-1.185a11.035 11.035 0 014.182.547c1.273.364 2.545.911 3.818 1.64a18.488 18.488 0 019 14.218c.273 2.916 0 5.832-.727 8.658-1.546 5.65-5.182 10.572-10.273 13.58A21.3 21.3 0 0133 46.183c-1.363.456-2.727.82-4.09 1.094-2.819.455-5.637.364-8.364-.091z" fill="#216B70"/></svg>