<svg width="182" height="59" fill="none" xmlns="http://www.w3.org/2000/svg"><path d="M36.917 5.275c13.28 0 23.973 10.833 23.973 24.035h3.377c0-15.12-12.268-27.42-27.35-27.42-15.083 0-27.35 12.3-27.35 27.42h3.376c0-13.315 10.693-24.035 23.974-24.035z" fill="#216B70"/><path d="M27.35 53.344c-13.168 0-23.973-10.72-23.973-24.034H0c0 15.12 12.268 27.419 27.35 27.419s27.35-12.3 27.35-27.42h-3.376c0 13.315-10.693 24.035-23.974 24.035zm8.442-31.594c-.113.79-.338 1.58-.676 2.256-.45.79-1.013 1.58-1.575 2.37-.113.225-.45.451-.676.79-.788-.565-1.913-.79-2.813-.339l-3.04-6.545c-.675-1.466-.112-3.046 1.239-3.836 1.688-1.016 4.39-.339 5.74.79 1.35 1.015 2.026 2.708 1.8 4.513z" fill="#216B70"/><path d="M43.894 33.259c0 1.918-1.914 3.95-3.602 4.626-1.688.677-3.49.339-4.84-.79-.563-.451-1.125-1.128-1.576-1.692-.45-.79-.9-1.693-1.238-2.483-.112-.225-.225-.564-.337-1.015.9-.452 1.463-1.242 1.575-2.257l7.204.677c1.576.113 2.814 1.354 2.814 2.934zM29.49 31.566l-4.164 5.868c-.9 1.24-2.589 1.692-3.94.902-1.688-.902-2.476-3.61-2.25-5.416.224-1.692 1.463-3.16 3.038-3.836.676-.226 1.463-.452 2.251-.452.9 0 1.914 0 2.814.226.225 0 .563.113 1.013.226v.225a3.488 3.488 0 001.238 2.257zm1.574-.677c.87 0 1.576-.707 1.576-1.58 0-.872-.706-1.58-1.576-1.58-.87 0-1.576.708-1.576 1.58 0 .873.706 1.58 1.576 1.58z" fill="#216B70"/><path d="M38.944.423c-3.377 0-6.753.451-10.017 1.354-3.151.903-6.19 2.37-8.892 4.175-5.29 3.724-9.116 9.253-10.805 15.572-1.575 6.206-1.575 13.089 1.576 18.73 1.576 2.822 3.714 5.417 6.303 7.335 1.35 1.016 2.814 1.918 4.277 2.595 1.463.79 3.151 1.242 4.84 1.467a13.66 13.66 0 01-5.178-.677c-1.688-.564-3.264-1.241-4.84-2.144a23.806 23.806 0 01-7.653-7.334 23.248 23.248 0 01-3.49-10.268c-.337-3.611 0-7.222.901-10.72C7.88 13.625 12.494 7.645 18.685 3.921c1.576-.903 3.151-1.58 4.84-2.144A42.064 42.064 0 0128.588.423c3.377-.564 6.866-.564 10.355 0zM25.438 58.421c3.376 0 6.753-.451 10.017-1.354 3.151-.903 6.19-2.37 8.891-4.175 5.29-3.836 9.117-9.252 10.805-15.571 1.688-6.206 1.576-13.09-1.576-18.731-1.575-2.821-3.714-5.416-6.302-7.335-1.351-1.015-2.702-1.918-4.165-2.595-1.463-.79-3.151-1.241-4.84-1.467 1.689-.113 3.49.113 5.178.677 1.576.452 3.151 1.129 4.727 2.031a22.89 22.89 0 0111.143 17.603c.337 3.61 0 7.221-.9 10.72-1.914 6.995-6.416 13.089-12.72 16.812-1.575.903-3.15 1.58-4.839 2.144a42.057 42.057 0 01-5.065 1.354c-3.489.564-6.978.452-10.355-.113zM76.41 28.628V18.296h4.64v1.476h-2.968v2.665h.962c1.672 0 2.508.902 2.508 2.542v1.107c0 1.64-.836 2.542-2.508 2.542H76.41zm2.634-1.476c.543 0 .836-.246.836-.984v-1.312c0-.738-.334-.984-.836-.984h-.962v3.28h.962zm8.947 1.476H86.32l-.25-1.886h-2.05l-.292 1.886h-1.505l1.672-10.332h2.424l1.672 10.332zm-3.762-3.28h1.589l-.795-5.207-.794 5.207zm4.094 1.845c.753 0 1.003-.123 1.003-1.066l.251-7.79h4.682v10.332h-1.672v-8.897h-1.463l-.167 6.232c-.042 1.886-.753 2.624-2.425 2.624h-.25v-1.435h.041zm6.732-8.897h5.099v1.476h-1.713v8.856h-1.672v-8.856h-1.714v-1.476zm7.565 10.332h-1.714V18.296h1.463v6.519l.586-2.255 1.337-4.264h1.84v10.332h-1.505V21.37l-.669 2.542-1.338 4.715zm6.395 0h-1.714V18.296h1.463v6.519l.585-2.255 1.338-4.264h1.839v10.332h-1.505V21.37l-.669 2.542-1.337 4.715zM110.729 16c-.042.533-.293.697-.753.697-.418 0-.669-.123-.71-.697h-1.004c.042.984.586 1.64 1.714 1.64 1.171 0 1.756-.615 1.756-1.64h-1.003zm7.86 8.774v1.353c0 1.64-.836 2.583-2.466 2.583-1.631 0-2.467-.943-2.467-2.583v-5.33c0-1.64.836-2.583 2.467-2.583 1.63 0 2.466.943 2.466 2.583v.984h-1.547v-1.107c0-.738-.334-1.025-.878-1.025-.543 0-.877.287-.877 1.025v5.576c0 .738.334.984.877.984.544 0 .878-.246.878-.985v-1.475h1.547zm3.179-.246l-.502.943v3.157h-1.672V18.296h1.672v4.51l2.174-4.51h1.672l-2.299 4.592 2.299 5.74h-1.714l-1.63-4.1zm3.927-3.731c0-1.64.878-2.583 2.508-2.583 1.631 0 2.509.943 2.509 2.583v5.37c0 1.64-.878 2.583-2.509 2.583-1.63 0-2.508-.942-2.508-2.582v-5.371zm1.631 5.453c0 .738.334 1.024.877 1.024.544 0 .878-.286.878-1.024v-5.576c0-.738-.334-1.025-.878-1.025-.543 0-.877.287-.877 1.025v5.576zm6.104-3.608h2.257v1.476h-2.257v3.034h2.842v1.476h-4.514V18.296h4.514v1.476h-2.842v2.87zm9.74 2.993l1.129-7.34h2.299v10.333h-1.588v-7.38l-1.129 7.42h-1.547l-1.254-7.297v7.298h-1.463V18.296h2.299l1.254 7.339zm4.471-4.838c0-1.64.877-2.583 2.508-2.583 1.63 0 2.508.943 2.508 2.583v5.37c0 1.64-.878 2.583-2.508 2.583-1.631 0-2.508-.942-2.508-2.582v-5.371zm1.672 5.453c0 .738.334 1.024.878 1.024.543 0 .877-.286.877-1.024v-5.576c0-.738-.334-1.025-.877-1.025-.544 0-.878.287-.878 1.025v5.576zm9.366-5.371v1.353c0 1.64-.794 2.542-2.467 2.542h-.794v3.895h-1.672V18.296h2.425c1.672 0 2.508.902 2.508 2.583zm-3.261-1.107v3.485h.794c.544 0 .795-.246.795-.984v-1.558c0-.738-.293-.984-.795-.984h-.794v.04zm8.819 5.002v1.353c0 1.64-.836 2.583-2.466 2.583-1.63 0-2.466-.943-2.466-2.583v-5.33c0-1.64.836-2.583 2.466-2.583 1.63 0 2.466.943 2.466 2.583v.984h-1.546v-1.107c0-.738-.335-1.025-.878-1.025-.544 0-.878.287-.878 1.025v5.576c0 .738.334.984.878.984.543 0 .878-.246.878-.985v-1.475h1.546zm3.179-.246l-.502.943v3.157h-1.672V18.296h1.672v4.51l2.174-4.51h1.672l-2.341 4.633 2.299 5.74h-1.714l-1.588-4.141zm3.928-3.731c0-1.64.878-2.583 2.508-2.583s2.508.943 2.508 2.583v5.37c0 1.64-.878 2.583-2.508 2.583s-2.508-.942-2.508-2.582v-5.371zm1.63 5.453c0 .738.334 1.024.878 1.024.543 0 .878-.286.878-1.024v-5.576c0-.738-.335-1.025-.878-1.025-.544 0-.878.287-.878 1.025v5.576zm6.105-3.608h2.257v1.476h-2.257v3.034h2.843v1.476h-4.516V18.296h4.516v1.476h-2.843v2.87zM76.41 45.038v-10.34h4.543v1.478h-2.906v2.667h.942c1.637 0 2.455.902 2.455 2.544v1.108c0 1.64-.818 2.543-2.455 2.543H76.41zm2.579-1.477c.532 0 .818-.246.818-.984v-1.313c0-.739-.327-.985-.818-.985h-.942v3.282h.942zm7.119-1.148c-.368 1.846-1.023 2.79-3.274 2.625v-1.436c.819.041 1.31-.082 1.432-.861v-.082l-2.25-7.96h1.596l.9 3.528.491 2.421.368-2.42.737-3.53h1.678l-1.678 7.715zm4.544-1.478l-.492.944v3.16h-1.637v-10.34h1.638v4.513l2.128-4.513h1.637l-2.251 4.595 2.25 5.744h-1.718l-1.555-4.103zm8.678.246v1.355c0 1.64-.82 2.584-2.415 2.584-1.597 0-2.415-.943-2.415-2.584v-5.334c0-1.642.819-2.585 2.415-2.585s2.414.943 2.414 2.585v.984h-1.514v-1.108c0-.738-.327-1.025-.86-1.025-.531 0-.859.287-.859 1.026v5.58c0 .738.328.984.86.984s.859-.246.859-.984V41.18h1.514zm2.661 3.857h-1.679v-10.34h1.433v6.524l.573-2.256 1.31-4.267h1.8v10.34h-1.473v-7.263l-.655 2.544-1.309 4.718zm9.413-7.754v1.354c0 1.64-.778 2.544-2.415 2.544h-.778v3.897h-1.637V34.7h2.374c1.678 0 2.456.903 2.456 2.585zm-3.193-1.108v3.487h.778c.532 0 .778-.246.778-.984v-1.56c0-.738-.287-.984-.778-.984h-.778v.04zm5.567 8.862h-1.637v-10.34h1.637v4.432h1.841v-4.431h1.637v10.34h-1.637v-4.432h-1.841v4.431zm4.542-7.836c0-1.642.86-2.585 2.456-2.585s2.455.943 2.455 2.585v5.375c0 1.64-.859 2.584-2.455 2.584s-2.456-.943-2.456-2.584v-5.375zm1.637 5.457c0 .738.328 1.025.86 1.025s.859-.287.859-1.025v-5.58c0-.739-.327-1.026-.859-1.026s-.86.287-.86 1.026v5.58zm5.934-3.611h2.21v1.477h-2.21v3.036h2.783v1.477h-4.42v-10.34h4.42v1.478h-2.783v2.872zm11.337 5.99h-1.637l-.287-1.887h-2.005l-.287 1.887h-1.473l1.637-10.34h2.374l1.678 10.34zm-3.684-3.282h1.556l-.778-5.21-.778 5.21zm4.46 3.282v-10.34h4.256v1.478h-2.66v8.862h-1.596zm7-5.99h2.21v1.477h-2.21v3.036h2.783v1.477h-4.42v-10.34h4.42v1.478h-2.783v2.872zm5.403 5.99h-1.637v-10.34h1.637v4.432h1.841v-4.431h1.637v10.34h-1.637v-4.432h-1.841v4.431zm4.214-10.339h4.993v1.477h-1.678v8.862h-1.637v-8.862h-1.678v-1.477zm10.396 6.482v1.355c0 1.64-.819 2.584-2.415 2.584s-2.414-.943-2.414-2.584v-5.334c0-1.642.818-2.585 2.414-2.585s2.415.943 2.415 2.585v.984h-1.514v-1.108c0-.738-.328-1.025-.86-1.025s-.859.287-.859 1.026v5.58c0 .738.327.984.859.984s.86-.246.86-.984V41.18h1.514zm.53-6.482h4.993v1.477h-1.678v8.862h-1.637v-8.862h-1.678v-1.477zm10.56 2.379v.37c0 1.067-.328 1.723-1.064 2.092.859.329 1.227 1.108 1.227 2.216v.862c0 1.6-.859 2.461-2.455 2.461h-2.538V34.7h2.456c1.637 0 2.374.78 2.374 2.38zm-3.234-.902v2.749h.614c.614 0 .983-.246.983-1.108v-.574c0-.739-.246-1.067-.819-1.067h-.778zm0 4.226v3.16h.942c.532 0 .859-.247.859-1.026v-.903c0-.944-.327-1.272-1.064-1.272h-.737v.041zm4.217-3.2c0-1.642.859-2.585 2.456-2.585 1.595 0 2.455.943 2.455 2.585v5.375c0 1.64-.86 2.584-2.455 2.584-1.597 0-2.456-.943-2.456-2.584v-5.375zm1.636 5.457c0 .738.329 1.025.86 1.025.533 0 .86-.287.86-1.025v-5.58c0-.739-.327-1.026-.86-1.026-.531 0-.86.287-.86 1.026v5.58z" fill="#216B70"/></svg>