<svg width="15" height="14" fill="none" xmlns="http://www.w3.org/2000/svg"><path d="M3.29.592c.859 0 1.564.307 2.116.92.583.583.874 1.319.874 2.208 0 .46-.046.92-.138 1.38-.092.43-.291 1.058-.598 1.886l-2.208 6.44H.438L2.14 6.572A3.072 3.072 0 01.714 5.514C.377 4.993.208 4.394.208 3.72c0-.92.291-1.671.874-2.254S2.401.592 3.29.592zm8.694 0c.859 0 1.564.307 2.116.92.583.583.874 1.319.874 2.208 0 .46-.046.92-.138 1.38-.092.43-.291 1.058-.598 1.886l-2.208 6.44H9.132l1.702-6.854a3.072 3.072 0 01-1.426-1.058c-.337-.521-.506-1.12-.506-1.794 0-.92.291-1.671.874-2.254s1.319-.874 2.208-.874z" fill="#A6B0BE"/></svg>