<svg width="80" height="160" viewBox="0 0 80 160" fill="none" xmlns="http://www.w3.org/2000/svg">
<g opacity="0.1" clip-path="url(#clip0)">
<mask id="mask0" mask-type="alpha" maskUnits="userSpaceOnUse" x="-100" y="-20" width="200" height="200">
<rect x="-100" y="-20" width="200" height="200" fill="#F7F7F9"/>
</mask>
<g mask="url(#mask0)">
<rect x="-205.715" y="83.061" width="10" height="302" transform="rotate(-45 -205.715 83.061)" fill="#216B70"/>
<rect x="-191.574" y="68.9188" width="10" height="302" transform="rotate(-45 -191.574 68.9188)" fill="#216B70"/>
<rect x="-177.43" y="54.7767" width="10" height="302" transform="rotate(-45 -177.43 54.7767)" fill="#216B70"/>
<rect x="-163.289" y="40.6346" width="10" height="302" transform="rotate(-45 -163.289 40.6346)" fill="#216B70"/>
<rect x="-149.145" y="26.4924" width="10" height="302" transform="rotate(-45 -149.145 26.4924)" fill="#216B70"/>
<rect x="-135.004" y="12.3503" width="10" height="302" transform="rotate(-45 -135.004 12.3503)" fill="#216B70"/>
<rect x="-64.293" y="-58.3604" width="10" height="302" transform="rotate(-45 -64.293 -58.3604)" fill="#216B70"/>
<rect x="-120.863" y="-1.79185" width="10" height="302" transform="rotate(-45 -120.863 -1.79185)" fill="#216B70"/>
<rect x="-50.1523" y="-72.5025" width="10" height="302" transform="rotate(-45 -50.1523 -72.5025)" fill="#216B70"/>
<rect x="-106.719" y="-15.934" width="10" height="302" transform="rotate(-45 -106.719 -15.934)" fill="#216B70"/>
<rect x="-36.0078" y="-86.6447" width="10" height="302" transform="rotate(-45 -36.0078 -86.6447)" fill="#216B70"/>
<rect x="-92.5781" y="-30.0761" width="10" height="302" transform="rotate(-45 -92.5781 -30.0761)" fill="#216B70"/>
<rect x="-21.8672" y="-100.787" width="10" height="302" transform="rotate(-45 -21.8672 -100.787)" fill="#216B70"/>
<rect x="-78.4375" y="-44.2183" width="10" height="302" transform="rotate(-45 -78.4375 -44.2183)" fill="#216B70"/>
<rect x="-7.72656" y="-114.929" width="10" height="302" transform="rotate(-45 -7.72656 -114.929)" fill="#216B70"/>
</g>
</g>
<defs>
<clipPath id="clip0">
<rect width="80" height="160" fill="white"/>
</clipPath>
</defs>
</svg>
