<svg width="57" height="59" fill="none" xmlns="http://www.w3.org/2000/svg"><path d="M2 58.645a2 2 0 100-4 2 2 0 000 4zm18 0a2 2 0 100-4 2 2 0 000 4zm17 0a2 2 0 100-4 2 2 0 000 4zm18 0a2 2 0 100-4 2 2 0 000 4z" fill="#fff"/><path d="M2 4.639a2 2 0 100-4 2 2 0 000 4zm18 0a2 2 0 100-4 2 2 0 000 4zm17 0a2 2 0 100-4 2 2 0 000 4zm18 0a2 2 0 100-4 2 2 0 000 4zM2 22.64a2 2 0 100-4 2 2 0 000 4zm18 0a2 2 0 100-4 2 2 0 000 4zm17 0a2 2 0 100-4 2 2 0 000 4zm18 0a2 2 0 100-4 2 2 0 000 4z" fill="#B6C0CE"/><path d="M2 40.643a2 2 0 100-4 2 2 0 000 4zm18 0a2 2 0 100-4 2 2 0 000 4zm17 0a2 2 0 100-4 2 2 0 000 4zm18 0a2 2 0 100-4 2 2 0 000 4z" fill="#fff"/></svg>