<svg width="100" height="95" fill="none" xmlns="http://www.w3.org/2000/svg"><g opacity=".1" clip-path="url(#clip0)"><mask id="a" maskUnits="userSpaceOnUse" x="0" y="0" width="100" height="100"><path fill="#F7F7F9" d="M0 0h100v100H0z"/></mask><g mask="url(#a)" fill="#216B70"><path d="M-52.857 51.53l3.536-3.535L57.452 154.768l-3.536 3.536zm7.071-7.07l3.535-3.536L64.522 147.697l-3.535 3.535zm7.071-7.072l3.535-3.535L71.593 140.626l-3.535 3.535zm7.07-7.071l3.535-3.535L78.664 133.555l-3.536 3.536zm7.072-7.071l3.535-3.536L85.736 126.483 82.2 130.02zm7.071-7.071l3.535-3.535L92.806 119.413l-3.535 3.535zM17.854-19.18l3.536-3.536L128.163 84.057l-3.536 3.536zM-10.431 9.104l3.535-3.535L99.878 112.342l-3.536 3.535zm35.356-35.355l3.536-3.536L135.234 76.986l-3.536 3.536zM-3.36 2.033L.175-1.503 106.95 105.27l-3.536 3.536zm35.355-35.355l3.536-3.536L142.304 69.916l-3.536 3.535zM3.711-5.038l3.536-3.536L114.02 98.2l-3.536 3.535zm35.355-35.355l3.536-3.535L149.375 62.845l-3.536 3.535zM10.782-12.109l3.536-3.535L121.09 91.129l-3.536 3.535zm35.356-35.355L49.674-51 156.447 55.773l-3.536 3.536z"/></g></g><defs><clipPath id="clip0"><path fill="#fff" d="M0 0h100v95H0z"/></clipPath></defs></svg>