<svg width="18" height="18" viewBox="0 0 18 18" fill="none" xmlns="http://www.w3.org/2000/svg">
<path d="M1.72727 6.09591H16.2727M9 17.0063C13.4182 17.0063 17 13.424 17 9.00534C17 4.58664 13.4182 1.00439 9 1.00439C4.58182 1.00439 1 4.58664 1 9.00534C1 13.424 4.58182 17.0063 9 17.0063ZM9 17.0063C11.1818 17.0063 11.9091 13.3695 11.9091 9.00534C11.9091 4.64119 11.1818 1.00439 9 1.00439C6.81818 1.00439 6.09091 4.64119 6.09091 9.00534C6.09091 13.3695 6.81818 17.0063 9 17.0063ZM1.72727 11.9148H16.2727H1.72727Z" stroke="#216B70" stroke-width="1.2"/>
</svg>
