<svg width="145" height="146" viewBox="0 0 145 146" fill="none" xmlns="http://www.w3.org/2000/svg">
<path d="M1.5 3.08826C2.32843 3.08826 3 2.41668 3 1.58826C3 0.75983 2.32843 0.0882568 1.5 0.0882568C0.671573 0.0882568 0 0.75983 0 1.58826C0 2.41668 0.671573 3.08826 1.5 3.08826Z" fill="white"/>
<path d="M1.5 145.105C2.32843 145.105 3 144.434 3 143.605C3 142.777 2.32843 142.105 1.5 142.105C0.671573 142.105 0 142.777 0 143.605C0 144.434 0.671573 145.105 1.5 145.105Z" fill="white"/>
<path d="M19.5 3.08826C20.3284 3.08826 21 2.41668 21 1.58826C21 0.75983 20.3284 0.0882568 19.5 0.0882568C18.6716 0.0882568 18 0.75983 18 1.58826C18 2.41668 18.6716 3.08826 19.5 3.08826Z" fill="white"/>
<path d="M90.5 3.08826C91.3284 3.08826 92 2.41668 92 1.58826C92 0.75983 91.3284 0.0882568 90.5 0.0882568C89.6716 0.0882568 89 0.75983 89 1.58826C89 2.41668 89.6716 3.08826 90.5 3.08826Z" fill="white"/>
<path d="M19.5 145.105C20.3284 145.105 21 144.434 21 143.605C21 142.777 20.3284 142.105 19.5 142.105C18.6716 142.105 18 142.777 18 143.605C18 144.434 18.6716 145.105 19.5 145.105Z" fill="white"/>
<path d="M90.5 145.105C91.3284 145.105 92 144.434 92 143.605C92 142.777 91.3284 142.105 90.5 142.105C89.6716 142.105 89 142.777 89 143.605C89 144.434 89.6716 145.105 90.5 145.105Z" fill="white"/>
<path d="M36.5 3.08826C37.3284 3.08826 38 2.41668 38 1.58826C38 0.75983 37.3284 0.0882568 36.5 0.0882568C35.6716 0.0882568 35 0.75983 35 1.58826C35 2.41668 35.6716 3.08826 36.5 3.08826Z" fill="white"/>
<path d="M107.5 3.08826C108.328 3.08826 109 2.41668 109 1.58826C109 0.75983 108.328 0.0882568 107.5 0.0882568C106.672 0.0882568 106 0.75983 106 1.58826C106 2.41668 106.672 3.08826 107.5 3.08826Z" fill="white"/>
<path d="M36.5 145.105C37.3284 145.105 38 144.434 38 143.605C38 142.777 37.3284 142.105 36.5 142.105C35.6716 142.105 35 142.777 35 143.605C35 144.434 35.6716 145.105 36.5 145.105Z" fill="white"/>
<path d="M107.5 145.105C108.328 145.105 109 144.434 109 143.605C109 142.777 108.328 142.105 107.5 142.105C106.672 142.105 106 142.777 106 143.605C106 144.434 106.672 145.105 107.5 145.105Z" fill="white"/>
<path d="M54.5 3.08826C55.3284 3.08826 56 2.41668 56 1.58826C56 0.75983 55.3284 0.0882568 54.5 0.0882568C53.6716 0.0882568 53 0.75983 53 1.58826C53 2.41668 53.6716 3.08826 54.5 3.08826Z" fill="white"/>
<path d="M125.5 3.08826C126.328 3.08826 127 2.41668 127 1.58826C127 0.75983 126.328 0.0882568 125.5 0.0882568C124.672 0.0882568 124 0.75983 124 1.58826C124 2.41668 124.672 3.08826 125.5 3.08826Z" fill="white"/>
<path d="M54.5 145.105C55.3284 145.105 56 144.434 56 143.605C56 142.777 55.3284 142.105 54.5 142.105C53.6716 142.105 53 142.777 53 143.605C53 144.434 53.6716 145.105 54.5 145.105Z" fill="white"/>
<path d="M125.5 145.105C126.328 145.105 127 144.434 127 143.605C127 142.777 126.328 142.105 125.5 142.105C124.672 142.105 124 142.777 124 143.605C124 144.434 124.672 145.105 125.5 145.105Z" fill="white"/>
<path d="M72.5 3.08826C73.3284 3.08826 74 2.41668 74 1.58826C74 0.75983 73.3284 0.0882568 72.5 0.0882568C71.6716 0.0882568 71 0.75983 71 1.58826C71 2.41668 71.6716 3.08826 72.5 3.08826Z" fill="white"/>
<path d="M143.5 3.08826C144.328 3.08826 145 2.41668 145 1.58826C145 0.75983 144.328 0.0882568 143.5 0.0882568C142.672 0.0882568 142 0.75983 142 1.58826C142 2.41668 142.672 3.08826 143.5 3.08826Z" fill="white"/>
<path d="M72.5 145.105C73.3284 145.105 74 144.434 74 143.605C74 142.777 73.3284 142.105 72.5 142.105C71.6716 142.105 71 142.777 71 143.605C71 144.434 71.6716 145.105 72.5 145.105Z" fill="white"/>
<path d="M143.5 145.105C144.328 145.105 145 144.434 145 143.605C145 142.777 144.328 142.105 143.5 142.105C142.672 142.105 142 142.777 142 143.605C142 144.434 142.672 145.105 143.5 145.105Z" fill="white"/>
<path d="M1.5 21.0904C2.32843 21.0904 3 20.4188 3 19.5904C3 18.762 2.32843 18.0904 1.5 18.0904C0.671573 18.0904 0 18.762 0 19.5904C0 20.4188 0.671573 21.0904 1.5 21.0904Z" fill="white"/>
<path d="M19.5 21.0904C20.3284 21.0904 21 20.4188 21 19.5904C21 18.762 20.3284 18.0904 19.5 18.0904C18.6716 18.0904 18 18.762 18 19.5904C18 20.4188 18.6716 21.0904 19.5 21.0904Z" fill="white"/>
<path d="M90.5 21.0904C91.3284 21.0904 92 20.4188 92 19.5904C92 18.762 91.3284 18.0904 90.5 18.0904C89.6716 18.0904 89 18.762 89 19.5904C89 20.4188 89.6716 21.0904 90.5 21.0904Z" fill="white"/>
<path d="M36.5 21.0904C37.3284 21.0904 38 20.4188 38 19.5904C38 18.762 37.3284 18.0904 36.5 18.0904C35.6716 18.0904 35 18.762 35 19.5904C35 20.4188 35.6716 21.0904 36.5 21.0904Z" fill="white"/>
<path d="M107.5 21.0904C108.328 21.0904 109 20.4188 109 19.5904C109 18.762 108.328 18.0904 107.5 18.0904C106.672 18.0904 106 18.762 106 19.5904C106 20.4188 106.672 21.0904 107.5 21.0904Z" fill="white"/>
<path d="M54.5 21.0904C55.3284 21.0904 56 20.4188 56 19.5904C56 18.762 55.3284 18.0904 54.5 18.0904C53.6716 18.0904 53 18.762 53 19.5904C53 20.4188 53.6716 21.0904 54.5 21.0904Z" fill="white"/>
<path d="M125.5 21.0904C126.328 21.0904 127 20.4188 127 19.5904C127 18.762 126.328 18.0904 125.5 18.0904C124.672 18.0904 124 18.762 124 19.5904C124 20.4188 124.672 21.0904 125.5 21.0904Z" fill="white"/>
<path d="M72.5 21.0904C73.3284 21.0904 74 20.4188 74 19.5904C74 18.762 73.3284 18.0904 72.5 18.0904C71.6716 18.0904 71 18.762 71 19.5904C71 20.4188 71.6716 21.0904 72.5 21.0904Z" fill="white"/>
<path d="M143.5 21.0904C144.328 21.0904 145 20.4188 145 19.5904C145 18.762 144.328 18.0904 143.5 18.0904C142.672 18.0904 142 18.762 142 19.5904C142 20.4188 142.672 21.0904 143.5 21.0904Z" fill="white"/>
<path d="M1.5 38.0924C2.32843 38.0924 3 37.4208 3 36.5924C3 35.764 2.32843 35.0924 1.5 35.0924C0.671573 35.0924 0 35.764 0 36.5924C0 37.4208 0.671573 38.0924 1.5 38.0924Z" fill="white"/>
<path d="M19.5 38.0924C20.3284 38.0924 21 37.4208 21 36.5924C21 35.764 20.3284 35.0924 19.5 35.0924C18.6716 35.0924 18 35.764 18 36.5924C18 37.4208 18.6716 38.0924 19.5 38.0924Z" fill="white"/>
<path d="M90.5 38.0924C91.3284 38.0924 92 37.4208 92 36.5924C92 35.764 91.3284 35.0924 90.5 35.0924C89.6716 35.0924 89 35.764 89 36.5924C89 37.4208 89.6716 38.0924 90.5 38.0924Z" fill="white"/>
<path d="M36.5 38.0924C37.3284 38.0924 38 37.4208 38 36.5924C38 35.764 37.3284 35.0924 36.5 35.0924C35.6716 35.0924 35 35.764 35 36.5924C35 37.4208 35.6716 38.0924 36.5 38.0924Z" fill="white"/>
<path d="M107.5 38.0924C108.328 38.0924 109 37.4208 109 36.5924C109 35.764 108.328 35.0924 107.5 35.0924C106.672 35.0924 106 35.764 106 36.5924C106 37.4208 106.672 38.0924 107.5 38.0924Z" fill="white"/>
<path d="M54.5 38.0924C55.3284 38.0924 56 37.4208 56 36.5924C56 35.764 55.3284 35.0924 54.5 35.0924C53.6716 35.0924 53 35.764 53 36.5924C53 37.4208 53.6716 38.0924 54.5 38.0924Z" fill="white"/>
<path d="M125.5 38.0924C126.328 38.0924 127 37.4208 127 36.5924C127 35.764 126.328 35.0924 125.5 35.0924C124.672 35.0924 124 35.764 124 36.5924C124 37.4208 124.672 38.0924 125.5 38.0924Z" fill="white"/>
<path d="M72.5 38.0924C73.3284 38.0924 74 37.4208 74 36.5924C74 35.764 73.3284 35.0924 72.5 35.0924C71.6716 35.0924 71 35.764 71 36.5924C71 37.4208 71.6716 38.0924 72.5 38.0924Z" fill="white"/>
<path d="M143.5 38.0924C144.328 38.0924 145 37.4208 145 36.5924C145 35.764 144.328 35.0924 143.5 35.0924C142.672 35.0924 142 35.764 142 36.5924C142 37.4208 142.672 38.0924 143.5 38.0924Z" fill="white"/>
<path d="M1.5 56.0946C2.32843 56.0946 3 55.423 3 54.5946C3 53.7662 2.32843 53.0946 1.5 53.0946C0.671573 53.0946 0 53.7662 0 54.5946C0 55.423 0.671573 56.0946 1.5 56.0946Z" fill="white"/>
<path d="M19.5 56.0946C20.3284 56.0946 21 55.423 21 54.5946C21 53.7662 20.3284 53.0946 19.5 53.0946C18.6716 53.0946 18 53.7662 18 54.5946C18 55.423 18.6716 56.0946 19.5 56.0946Z" fill="white"/>
<path d="M90.5 56.0946C91.3284 56.0946 92 55.423 92 54.5946C92 53.7662 91.3284 53.0946 90.5 53.0946C89.6716 53.0946 89 53.7662 89 54.5946C89 55.423 89.6716 56.0946 90.5 56.0946Z" fill="white"/>
<path d="M36.5 56.0946C37.3284 56.0946 38 55.423 38 54.5946C38 53.7662 37.3284 53.0946 36.5 53.0946C35.6716 53.0946 35 53.7662 35 54.5946C35 55.423 35.6716 56.0946 36.5 56.0946Z" fill="white"/>
<path d="M107.5 56.0946C108.328 56.0946 109 55.423 109 54.5946C109 53.7662 108.328 53.0946 107.5 53.0946C106.672 53.0946 106 53.7662 106 54.5946C106 55.423 106.672 56.0946 107.5 56.0946Z" fill="white"/>
<path d="M54.5 56.0946C55.3284 56.0946 56 55.423 56 54.5946C56 53.7662 55.3284 53.0946 54.5 53.0946C53.6716 53.0946 53 53.7662 53 54.5946C53 55.423 53.6716 56.0946 54.5 56.0946Z" fill="white"/>
<path d="M125.5 56.0946C126.328 56.0946 127 55.423 127 54.5946C127 53.7662 126.328 53.0946 125.5 53.0946C124.672 53.0946 124 53.7662 124 54.5946C124 55.423 124.672 56.0946 125.5 56.0946Z" fill="white"/>
<path d="M72.5 56.0946C73.3284 56.0946 74 55.423 74 54.5946C74 53.7662 73.3284 53.0946 72.5 53.0946C71.6716 53.0946 71 53.7662 71 54.5946C71 55.423 71.6716 56.0946 72.5 56.0946Z" fill="white"/>
<path d="M143.5 56.0946C144.328 56.0946 145 55.423 145 54.5946C145 53.7662 144.328 53.0946 143.5 53.0946C142.672 53.0946 142 53.7662 142 54.5946C142 55.423 142.672 56.0946 143.5 56.0946Z" fill="white"/>
<path d="M1.5 74.0967C2.32843 74.0967 3 73.4252 3 72.5967C3 71.7683 2.32843 71.0967 1.5 71.0967C0.671573 71.0967 0 71.7683 0 72.5967C0 73.4252 0.671573 74.0967 1.5 74.0967Z" fill="white"/>
<path d="M19.5 74.0967C20.3284 74.0967 21 73.4252 21 72.5967C21 71.7683 20.3284 71.0967 19.5 71.0967C18.6716 71.0967 18 71.7683 18 72.5967C18 73.4252 18.6716 74.0967 19.5 74.0967Z" fill="white"/>
<path d="M90.5 74.0967C91.3284 74.0967 92 73.4252 92 72.5967C92 71.7683 91.3284 71.0967 90.5 71.0967C89.6716 71.0967 89 71.7683 89 72.5967C89 73.4252 89.6716 74.0967 90.5 74.0967Z" fill="white"/>
<path d="M36.5 74.0967C37.3284 74.0967 38 73.4252 38 72.5967C38 71.7683 37.3284 71.0967 36.5 71.0967C35.6716 71.0967 35 71.7683 35 72.5967C35 73.4252 35.6716 74.0967 36.5 74.0967Z" fill="white"/>
<path d="M107.5 74.0967C108.328 74.0967 109 73.4252 109 72.5967C109 71.7683 108.328 71.0967 107.5 71.0967C106.672 71.0967 106 71.7683 106 72.5967C106 73.4252 106.672 74.0967 107.5 74.0967Z" fill="white"/>
<path d="M54.5 74.0967C55.3284 74.0967 56 73.4252 56 72.5967C56 71.7683 55.3284 71.0967 54.5 71.0967C53.6716 71.0967 53 71.7683 53 72.5967C53 73.4252 53.6716 74.0967 54.5 74.0967Z" fill="white"/>
<path d="M125.5 74.0967C126.328 74.0967 127 73.4252 127 72.5967C127 71.7683 126.328 71.0967 125.5 71.0967C124.672 71.0967 124 71.7683 124 72.5967C124 73.4252 124.672 74.0967 125.5 74.0967Z" fill="white"/>
<path d="M72.5 74.0967C73.3284 74.0967 74 73.4252 74 72.5967C74 71.7683 73.3284 71.0967 72.5 71.0967C71.6716 71.0967 71 71.7683 71 72.5967C71 73.4252 71.6716 74.0967 72.5 74.0967Z" fill="white"/>
<path d="M143.5 74.0967C144.328 74.0967 145 73.4252 145 72.5967C145 71.7683 144.328 71.0967 143.5 71.0967C142.672 71.0967 142 71.7683 142 72.5967C142 73.4252 142.672 74.0967 143.5 74.0967Z" fill="white"/>
<path d="M1.5 91.0988C2.32843 91.0988 3 90.4272 3 89.5988C3 88.7703 2.32843 88.0988 1.5 88.0988C0.671573 88.0988 0 88.7703 0 89.5988C0 90.4272 0.671573 91.0988 1.5 91.0988Z" fill="white"/>
<path d="M19.5 91.0988C20.3284 91.0988 21 90.4272 21 89.5988C21 88.7703 20.3284 88.0988 19.5 88.0988C18.6716 88.0988 18 88.7703 18 89.5988C18 90.4272 18.6716 91.0988 19.5 91.0988Z" fill="white"/>
<path d="M90.5 91.0988C91.3284 91.0988 92 90.4272 92 89.5988C92 88.7703 91.3284 88.0988 90.5 88.0988C89.6716 88.0988 89 88.7703 89 89.5988C89 90.4272 89.6716 91.0988 90.5 91.0988Z" fill="white"/>
<path d="M36.5 91.0988C37.3284 91.0988 38 90.4272 38 89.5988C38 88.7703 37.3284 88.0988 36.5 88.0988C35.6716 88.0988 35 88.7703 35 89.5988C35 90.4272 35.6716 91.0988 36.5 91.0988Z" fill="white"/>
<path d="M107.5 91.0988C108.328 91.0988 109 90.4272 109 89.5988C109 88.7703 108.328 88.0988 107.5 88.0988C106.672 88.0988 106 88.7703 106 89.5988C106 90.4272 106.672 91.0988 107.5 91.0988Z" fill="white"/>
<path d="M54.5 91.0988C55.3284 91.0988 56 90.4272 56 89.5988C56 88.7703 55.3284 88.0988 54.5 88.0988C53.6716 88.0988 53 88.7703 53 89.5988C53 90.4272 53.6716 91.0988 54.5 91.0988Z" fill="white"/>
<path d="M125.5 91.0988C126.328 91.0988 127 90.4272 127 89.5988C127 88.7703 126.328 88.0988 125.5 88.0988C124.672 88.0988 124 88.7703 124 89.5988C124 90.4272 124.672 91.0988 125.5 91.0988Z" fill="white"/>
<path d="M72.5 91.0988C73.3284 91.0988 74 90.4272 74 89.5988C74 88.7703 73.3284 88.0988 72.5 88.0988C71.6716 88.0988 71 88.7703 71 89.5988C71 90.4272 71.6716 91.0988 72.5 91.0988Z" fill="white"/>
<path d="M143.5 91.0988C144.328 91.0988 145 90.4272 145 89.5988C145 88.7703 144.328 88.0988 143.5 88.0988C142.672 88.0988 142 88.7703 142 89.5988C142 90.4272 142.672 91.0988 143.5 91.0988Z" fill="white"/>
<path d="M1.5 109.101C2.32843 109.101 3 108.429 3 107.601C3 106.772 2.32843 106.101 1.5 106.101C0.671573 106.101 0 106.772 0 107.601C0 108.429 0.671573 109.101 1.5 109.101Z" fill="white"/>
<path d="M19.5 109.101C20.3284 109.101 21 108.429 21 107.601C21 106.772 20.3284 106.101 19.5 106.101C18.6716 106.101 18 106.772 18 107.601C18 108.429 18.6716 109.101 19.5 109.101Z" fill="white"/>
<path d="M90.5 109.101C91.3284 109.101 92 108.429 92 107.601C92 106.772 91.3284 106.101 90.5 106.101C89.6716 106.101 89 106.772 89 107.601C89 108.429 89.6716 109.101 90.5 109.101Z" fill="white"/>
<path d="M36.5 109.101C37.3284 109.101 38 108.429 38 107.601C38 106.772 37.3284 106.101 36.5 106.101C35.6716 106.101 35 106.772 35 107.601C35 108.429 35.6716 109.101 36.5 109.101Z" fill="white"/>
<path d="M107.5 109.101C108.328 109.101 109 108.429 109 107.601C109 106.772 108.328 106.101 107.5 106.101C106.672 106.101 106 106.772 106 107.601C106 108.429 106.672 109.101 107.5 109.101Z" fill="white"/>
<path d="M54.5 109.101C55.3284 109.101 56 108.429 56 107.601C56 106.772 55.3284 106.101 54.5 106.101C53.6716 106.101 53 106.772 53 107.601C53 108.429 53.6716 109.101 54.5 109.101Z" fill="white"/>
<path d="M125.5 109.101C126.328 109.101 127 108.429 127 107.601C127 106.772 126.328 106.101 125.5 106.101C124.672 106.101 124 106.772 124 107.601C124 108.429 124.672 109.101 125.5 109.101Z" fill="white"/>
<path d="M72.5 109.101C73.3284 109.101 74 108.429 74 107.601C74 106.772 73.3284 106.101 72.5 106.101C71.6716 106.101 71 106.772 71 107.601C71 108.429 71.6716 109.101 72.5 109.101Z" fill="white"/>
<path d="M143.5 109.101C144.328 109.101 145 108.429 145 107.601C145 106.772 144.328 106.101 143.5 106.101C142.672 106.101 142 106.772 142 107.601C142 108.429 142.672 109.101 143.5 109.101Z" fill="white"/>
<path d="M1.5 127.103C2.32843 127.103 3 126.431 3 125.603C3 124.775 2.32843 124.103 1.5 124.103C0.671573 124.103 0 124.775 0 125.603C0 126.431 0.671573 127.103 1.5 127.103Z" fill="white"/>
<path d="M19.5 127.103C20.3284 127.103 21 126.431 21 125.603C21 124.775 20.3284 124.103 19.5 124.103C18.6716 124.103 18 124.775 18 125.603C18 126.431 18.6716 127.103 19.5 127.103Z" fill="white"/>
<path d="M90.5 127.103C91.3284 127.103 92 126.431 92 125.603C92 124.775 91.3284 124.103 90.5 124.103C89.6716 124.103 89 124.775 89 125.603C89 126.431 89.6716 127.103 90.5 127.103Z" fill="white"/>
<path d="M36.5 127.103C37.3284 127.103 38 126.431 38 125.603C38 124.775 37.3284 124.103 36.5 124.103C35.6716 124.103 35 124.775 35 125.603C35 126.431 35.6716 127.103 36.5 127.103Z" fill="white"/>
<path d="M107.5 127.103C108.328 127.103 109 126.431 109 125.603C109 124.775 108.328 124.103 107.5 124.103C106.672 124.103 106 124.775 106 125.603C106 126.431 106.672 127.103 107.5 127.103Z" fill="white"/>
<path d="M54.5 127.103C55.3284 127.103 56 126.431 56 125.603C56 124.775 55.3284 124.103 54.5 124.103C53.6716 124.103 53 124.775 53 125.603C53 126.431 53.6716 127.103 54.5 127.103Z" fill="white"/>
<path d="M125.5 127.103C126.328 127.103 127 126.431 127 125.603C127 124.775 126.328 124.103 125.5 124.103C124.672 124.103 124 124.775 124 125.603C124 126.431 124.672 127.103 125.5 127.103Z" fill="white"/>
<path d="M72.5 127.103C73.3284 127.103 74 126.431 74 125.603C74 124.775 73.3284 124.103 72.5 124.103C71.6716 124.103 71 124.775 71 125.603C71 126.431 71.6716 127.103 72.5 127.103Z" fill="white"/>
<path d="M143.5 127.103C144.328 127.103 145 126.431 145 125.603C145 124.775 144.328 124.103 143.5 124.103C142.672 124.103 142 124.775 142 125.603C142 126.431 142.672 127.103 143.5 127.103Z" fill="white"/>
</svg>
