<svg width="97" height="120" fill="none" xmlns="http://www.w3.org/2000/svg"><g opacity=".4" clip-path="url(#clip0)"><mask id="a" maskUnits="userSpaceOnUse" x="-103" y="-80" width="200" height="200"><path fill="#fff" d="M-103-80H97v200h-200z"/></mask><g mask="url(#a)" fill="#fff"><path d="M-208.715 23.061l7.071-7.071L11.902 229.536l-7.07 7.071zm14.143-14.142l7.071-7.071L26.045 215.394l-7.07 7.071zm14.142-14.142l7.07-7.071L40.186 201.252l-7.07 7.071zm14.142-14.143l7.07-7.07L54.33 187.108l-7.071 7.071zm14.142-14.142l7.07-7.071L68.472 172.967l-7.071 7.071zm14.142-14.142l7.07-7.071L82.614 158.825l-7.071 7.071zm70.71-70.71l7.071-7.071L153.323 88.115l-7.07 7.071zm-56.568 56.568l7.07-7.071L96.756 144.683l-7.071 7.071zm70.711-70.71l7.071-7.071L167.466 73.973l-7.07 7.071zm-56.569 56.568l7.07-7.071 213.547 213.546-7.07 7.071zm70.711-70.711l7.071-7.07L181.608 59.83l-7.07 7.071zm-56.569 56.569l7.071-7.071 213.546 213.546-7.07 7.071zm70.711-70.711l7.071-7.071L195.75 45.688l-7.07 7.071zm-56.569 56.569l7.071-7.07 213.546 213.546-7.07 7.07zm70.711-70.711l7.071-7.07L209.892 31.545l-7.07 7.072z"/></g></g><defs><clipPath id="clip0"><path fill="#fff" d="M0 0h97v120H0z"/></clipPath></defs></svg>