<svg xmlns="http://www.w3.org/2000/svg" xmlns:xlink="http://www.w3.org/1999/xlink" viewBox="-1 254.346 644 133.311" width="640" height="129.31"><defs><path d="M32.64 288.34c1.55-2.43 3.56-4.52 5.93-6.15a23.11 23.11 0 017.55-3.37c2.89-.79 5.85-1.3 8.83-1.51 2.67-.24 5.58-.24 8.83-.24h35.9c.14-.34.21-.54.23-.58 1.04-3.04 2.24-6.03 3.6-8.94a74.47 74.47 0 015.69-9.53c.05-.08.28-.46.7-1.16H53.09c-4.67.21-7.26.32-7.78.35a84.51 84.51 0 00-10.81 1.97 53.433 53.433 0 00-11.5 4.88 41.034 41.034 0 00-10.69 8.72c-3.5 4.27-6.17 9.15-7.9 14.4a85.728 85.728 0 00-3.6 16.85C.35 309.6 0 315.64 0 321.8c0 3.25.12 6.74.35 11.15.28 4.1.82 8.17 1.62 12.2.84 4.19 2.13 8.28 3.84 12.2 1.83 3.99 4.22 7.71 7.09 11.04 2.76 3.14 6.02 5.8 9.64 7.9 3.28 1.94 6.79 3.46 10.45 4.53 3.47.91 7.01 1.57 10.58 1.97 2.93.32 5.87.48 8.82.47h57.51c-.42-.7-.65-1.09-.7-1.17a67.889 67.889 0 01-6.27-10.92c-1.05-2.2-1.98-4.76-3.02-7.66v-.47H62.85c-4.28.01-8.55-.3-12.78-.93-3.78-.52-7.43-1.7-10.8-3.48a20.989 20.989 0 01-7.79-7.21 47.51 47.51 0 01-2.55-5.34c-.99-3.07-1.73-6.22-2.21-9.41-.67-5.04-.98-10.13-.93-15.22-.04-5.2.27-10.4.93-15.57.52-3.62 1.34-7.19 2.44-10.68.82-2.44 2-4.75 3.48-6.86z" id="a"/><path d="M615.6 256.74a.588.588 0 00-.58.35l-67.49 90.27c-.32.32-.83.33-1.15.02a.777.777 0 01-.25-.49v-77.83c.04-3.51-1.44-6.86-4.06-9.18a11.914 11.914 0 00-8.14-3.14h-12.08c-.38 0-.7.32-.7.7v125.12c0 .38.32.7.7.7h23.58c.25.02.49-.12.59-.35 6.76-9.03 60.85-81.24 67.61-90.27.31-.32.82-.33 1.15-.02.13.13.22.3.24.49v77.83c-.04 3.11 1.13 6.11 3.26 8.37 2.29 2.51 5.54 3.95 8.94 3.95h12.08c.39 0 .7-.32.7-.7V257.44c0-.38-.31-.7-.7-.7h-23.7z" id="b"/><path d="M236.18 293.69c-.88-4.42-2.2-8.74-3.95-12.9-1.41-3.12-3.2-6.04-5.34-8.71a25.041 25.041 0 00-5.93-5.69 38.08 38.08 0 00-6.62-4.07c-2.09-.81-4.07-1.63-6.27-2.32a91.493 91.493 0 00-29.63-4.65c-23.81 0-43.91 8.02-49.72 18.7a31.672 31.672 0 00-4.07 6.86 55.652 55.652 0 00-4.06 12.66c-.86 4.45-1.44 8.95-1.74 13.48-.24 4.64-.35 8.83-.24 13.01.12 4.18 0 7.55.24 11.62.14 4.48.6 8.94 1.39 13.36.82 4.59 2.19 9.08 4.07 13.36 1.16 2.62 2.6 5.11 4.29 7.43 5.58 10.8 25.79 18.82 49.84 18.82 10.06.12 20.07-1.41 29.63-4.53.62-.23 5.64-2.09 6.27-2.32 2.31-1.18 4.53-2.54 6.62-4.07 2.21-1.55 4.17-3.43 5.81-5.58 1.85-2.19 3.42-4.61 4.65-7.2 1.64-3.34 2.92-6.85 3.83-10.45.96-3.63 1.66-7.32 2.09-11.04.47-3.49.7-6.97.82-10.46.11-3.48.23-6.27.23-8.94s-.12-8.25-.47-12.9c-.24-4.53-.82-9.03-1.74-13.47zm-22.54 41.7a49.58 49.58 0 01-2.55 10.81c-.87 2.52-2.08 4.9-3.6 7.08a20.623 20.623 0 01-6.28 5.7 28.92 28.92 0 01-7.32 3.13c-2.56.56-5.16.95-7.78 1.16-.43.02-2.56.1-6.39.24h-2.44c-3.57.02-7.15-.22-10.69-.7-3.29-.37-6.48-1.35-9.41-2.9-3-1.58-5.59-3.85-7.55-6.63a30.715 30.715 0 01-3.95-7.55 54.313 54.313 0 01-2.44-10.69c-.59-4.97-.87-9.97-.81-14.98-.07-5.24.2-10.48.81-15.69.43-3.61 1.29-7.16 2.56-10.57.94-2.56 2.23-4.99 3.83-7.2 1.73-2.19 3.81-4.07 6.16-5.58a28.12 28.12 0 017.2-3.02c2.56-.62 5.16-1.01 7.79-1.16.44-.01 2.64-.09 6.62-.23h2.09c3.9.14 6.07.22 6.5.23 2.66.17 5.31.56 7.9 1.16 2.57.67 5.03 1.68 7.32 3.02a23.58 23.58 0 016.28 5.58 32.29 32.29 0 013.71 7.2c1.2 3.47 2.02 7.05 2.44 10.69.65 5.16.96 10.36.93 15.57.03 5.12-.28 10.25-.93 15.33z" id="c"/><path d="M416.13 309.95c-.4.01-.75-.29-.81-.7v-31.71c0-.39.31-.7.7-.7h52.16c3.1.04 6.1-1.12 8.36-3.25 2.52-2.29 3.96-5.54 3.95-8.95v-7.08c-.05-.41-.4-.7-.81-.7h-88.64c-.38 0-.7.31-.7.7v125c0 .38.32.7.7.7h70.52c10.12 0 19.8-4.11 26.83-11.39a36.84 36.84 0 0010.81-27.07c-.35-19.17-16.73-34.85-36.48-34.85h-46.59zm40.43 53.09h-40.54c-.39 0-.7-.31-.7-.69v-31.49c.06-.4.41-.7.81-.69h40.43c8.72 0 16.15 6.5 16.96 14.75.71 7.78-4.06 15.02-11.5 17.43-1.77.52-3.61.75-5.46.69z" id="d"/><path d="M250.93 256.86c-.4 0-.75.29-.81.7v7.2a12.6 12.6 0 003.25 8.36c2.34 2.53 5.63 3.96 9.07 3.95h33.34a.7.7 0 01.69.7v104.79c.06.4.41.7.82.7h23.47c.4 0 .75-.3.81-.7V277.77c0-.38.31-.7.7-.7h45.3c.45 0 .82-.36.82-.81v-18.7a.82.82 0 00-.82-.7H250.93z" id="e"/></defs><use xlink:href="#a" fill="#fff"/><use xlink:href="#a" fill-opacity="0" stroke="#000" stroke-opacity="0"/><use xlink:href="#b" fill="#fff"/><use xlink:href="#b" fill-opacity="0" stroke="#000" stroke-opacity="0"/><use xlink:href="#c" fill="#fff"/><use xlink:href="#c" fill-opacity="0" stroke="#000" stroke-opacity="0"/><use xlink:href="#d" fill="#fff"/><use xlink:href="#d" fill-opacity="0" stroke="#000" stroke-opacity="0"/><use xlink:href="#e" fill="#fff"/><use xlink:href="#e" fill-opacity="0" stroke="#000" stroke-opacity="0"/></svg>