<svg width="100" height="200" fill="none" xmlns="http://www.w3.org/2000/svg"><g opacity=".1" clip-path="url(#clip0)"><mask id="a" maskUnits="userSpaceOnUse" x="-100" y="0" width="200" height="200"><path fill="#F7F7F9" d="M-100 0h200v200h-200z"/></mask><g mask="url(#a)" fill="#216B70"><path d="M-205.715 103.061l7.071-7.071L14.902 309.536l-7.07 7.071zm14.141-14.142l7.071-7.071L29.043 295.394l-7.07 7.071zm14.144-14.142l7.071-7.071L43.187 281.252l-7.07 7.071zm14.141-14.142l7.071-7.071L57.33 267.11l-7.071 7.071zm14.144-14.143l7.07-7.071L71.473 252.967l-7.071 7.071zm14.141-14.142l7.07-7.071L85.614 238.825l-7.071 7.071zm70.711-70.71l7.071-7.071 213.547 213.546-7.071 7.071zm-56.57 56.568l7.07-7.071L99.755 224.683l-7.071 7.071zm70.711-70.71l7.071-7.071 213.547 213.546-7.072 7.07zM-106.72 4.066l7.072-7.071 213.546 213.546-7.07 7.071zm70.712-70.71l7.071-7.071L184.61 139.83l-7.071 7.071zm-56.57 56.568l7.071-7.071 213.546 213.546-7.07 7.071zm70.711-70.711l7.07-7.071L198.75 125.688l-7.071 7.071zm-56.571 56.569l7.071-7.07L142.18 182.256l-7.071 7.072zm70.711-70.711l7.071-7.07L212.89 111.545l-7.07 7.072z"/></g></g><defs><clipPath id="clip0"><path fill="#fff" d="M0 0h100v200H0z"/></clipPath></defs></svg>