<svg width="100" height="29" fill="none" xmlns="http://www.w3.org/2000/svg"><g opacity=".1" clip-path="url(#clip0)"><mask id="a" maskUnits="userSpaceOnUse" x="-80" y="-3" width="200" height="200"><path fill="#F7F7F9" d="M-80-3h200v200H-80z"/></mask><g mask="url(#a)" fill="#216B70"><path d="M-115.005 29.35l7.07-7.071 213.547 213.546-7.071 7.071zm70.71-70.71l7.071-7.071 213.547 213.546-7.071 7.071zm-56.568 56.568l7.07-7.071 213.547 213.546-7.071 7.071zm70.711-70.71l7.071-7.071 213.547 213.546-7.072 7.07zM-86.721 1.066l7.071-7.07L133.896 207.54l-7.07 7.072zm70.711-70.71l7.071-7.071L204.608 136.83l-7.071 7.071zm-56.57 56.568l7.072-7.071 213.546 213.546-7.07 7.071zm70.712-70.711l7.07-7.071L218.75 122.688l-7.071 7.071zm-56.569 56.569l7.071-7.07 213.547 213.545-7.071 7.072zm70.711-70.711l7.071-7.07 213.546 213.545-7.07 7.072z"/></g></g><defs><clipPath id="clip0"><path fill="#fff" d="M0 0h100v29H0z"/></clipPath></defs></svg>