<svg width="180" height="41" fill="none" xmlns="http://www.w3.org/2000/svg"><g opacity=".1" clip-path="url(#clip0)"><mask id="a" maskUnits="userSpaceOnUse" x="0" y="-3" width="200" height="200"><path fill="#F7F7F9" d="M0-3h200v200H0z"/></mask><g mask="url(#a)" fill="#216B70"><path d="M-49.147 43.492l7.07-7.07L171.47 249.967l-7.07 7.07zm14.143-14.142l7.07-7.07 213.547 213.545-7.07 7.071zm70.711-70.71l7.071-7.071 213.547 213.546-7.071 7.071zm-56.568 56.568l7.07-7.071 213.547 213.546-7.071 7.071zm70.711-70.71l7.071-7.071 213.546 213.546-7.07 7.07zM-6.721 1.066L.35-6.004 213.896 207.54l-7.07 7.072zm70.711-70.71l7.071-7.071L284.608 136.83l-7.071 7.071zM7.422-13.076l7.071-7.071 213.546 213.546-7.07 7.071zm70.711-70.711l7.07-7.071L298.75 122.688l-7.071 7.071zM21.564-27.218l7.071-7.07 213.547 213.545-7.071 7.072zm70.711-70.711l7.071-7.07 213.546 213.545-7.07 7.072z"/></g></g><defs><clipPath id="clip0"><path fill="#fff" d="M0 0h180v41H0z"/></clipPath></defs></svg>