<svg width="57" height="59" viewBox="0 0 57 59" fill="none" xmlns="http://www.w3.org/2000/svg">
<path d="M2 58.645C3.10457 58.645 4 57.7496 4 56.645C4 55.5405 3.10457 54.645 2 54.645C0.895431 54.645 0 55.5405 0 56.645C0 57.7496 0.895431 58.645 2 58.645Z" fill="white"/>
<path d="M20 58.645C21.1046 58.645 22 57.7496 22 56.645C22 55.5405 21.1046 54.645 20 54.645C18.8954 54.645 18 55.5405 18 56.645C18 57.7496 18.8954 58.645 20 58.645Z" fill="white"/>
<path d="M37 58.645C38.1046 58.645 39 57.7496 39 56.645C39 55.5405 38.1046 54.645 37 54.645C35.8954 54.645 35 55.5405 35 56.645C35 57.7496 35.8954 58.645 37 58.645Z" fill="white"/>
<path d="M55 58.645C56.1046 58.645 57 57.7496 57 56.645C57 55.5405 56.1046 54.645 55 54.645C53.8954 54.645 53 55.5405 53 56.645C53 57.7496 53.8954 58.645 55 58.645Z" fill="white"/>
<path d="M2 4.63867C3.10457 4.63867 4 3.74324 4 2.63867C4 1.5341 3.10457 0.638672 2 0.638672C0.895431 0.638672 0 1.5341 0 2.63867C0 3.74324 0.895431 4.63867 2 4.63867Z" fill="#B6C0CE"/>
<path d="M20 4.63867C21.1046 4.63867 22 3.74324 22 2.63867C22 1.5341 21.1046 0.638672 20 0.638672C18.8954 0.638672 18 1.5341 18 2.63867C18 3.74324 18.8954 4.63867 20 4.63867Z" fill="#B6C0CE"/>
<path d="M37 4.63867C38.1046 4.63867 39 3.74324 39 2.63867C39 1.5341 38.1046 0.638672 37 0.638672C35.8954 0.638672 35 1.5341 35 2.63867C35 3.74324 35.8954 4.63867 37 4.63867Z" fill="#B6C0CE"/>
<path d="M55 4.63867C56.1046 4.63867 57 3.74324 57 2.63867C57 1.5341 56.1046 0.638672 55 0.638672C53.8954 0.638672 53 1.5341 53 2.63867C53 3.74324 53.8954 4.63867 55 4.63867Z" fill="#B6C0CE"/>
<path d="M2 22.6406C3.10457 22.6406 4 21.7452 4 20.6406C4 19.5361 3.10457 18.6406 2 18.6406C0.895431 18.6406 0 19.5361 0 20.6406C0 21.7452 0.895431 22.6406 2 22.6406Z" fill="#B6C0CE"/>
<path d="M20 22.6406C21.1046 22.6406 22 21.7452 22 20.6406C22 19.5361 21.1046 18.6406 20 18.6406C18.8954 18.6406 18 19.5361 18 20.6406C18 21.7452 18.8954 22.6406 20 22.6406Z" fill="#B6C0CE"/>
<path d="M37 22.6406C38.1046 22.6406 39 21.7452 39 20.6406C39 19.5361 38.1046 18.6406 37 18.6406C35.8954 18.6406 35 19.5361 35 20.6406C35 21.7452 35.8954 22.6406 37 22.6406Z" fill="#B6C0CE"/>
<path d="M55 22.6406C56.1046 22.6406 57 21.7452 57 20.6406C57 19.5361 56.1046 18.6406 55 18.6406C53.8954 18.6406 53 19.5361 53 20.6406C53 21.7452 53.8954 22.6406 55 22.6406Z" fill="#B6C0CE"/>
<path d="M2 40.6426C3.10457 40.6426 4 39.7471 4 38.6426C4 37.538 3.10457 36.6426 2 36.6426C0.895431 36.6426 0 37.538 0 38.6426C0 39.7471 0.895431 40.6426 2 40.6426Z" fill="white"/>
<path d="M20 40.6426C21.1046 40.6426 22 39.7471 22 38.6426C22 37.538 21.1046 36.6426 20 36.6426C18.8954 36.6426 18 37.538 18 38.6426C18 39.7471 18.8954 40.6426 20 40.6426Z" fill="white"/>
<path d="M37 40.6426C38.1046 40.6426 39 39.7471 39 38.6426C39 37.538 38.1046 36.6426 37 36.6426C35.8954 36.6426 35 37.538 35 38.6426C35 39.7471 35.8954 40.6426 37 40.6426Z" fill="white"/>
<path d="M55 40.6426C56.1046 40.6426 57 39.7471 57 38.6426C57 37.538 56.1046 36.6426 55 36.6426C53.8954 36.6426 53 37.538 53 38.6426C53 39.7471 53.8954 40.6426 55 40.6426Z" fill="white"/>
</svg>
