<svg width="145" height="146" fill="none" xmlns="http://www.w3.org/2000/svg"><path d="M1.5 3.088a1.5 1.5 0 100-3 1.5 1.5 0 000 3zm0 142.017a1.5 1.5 0 100-3 1.5 1.5 0 000 3zm18-142.017a1.5 1.5 0 100-3 1.5 1.5 0 000 3zm71 0a1.5 1.5 0 100-3 1.5 1.5 0 000 3zm-71 142.017a1.5 1.5 0 100-3 1.5 1.5 0 000 3zm71 0a1.5 1.5 0 100-3 1.5 1.5 0 000 3zM36.5 3.088a1.5 1.5 0 100-3 1.5 1.5 0 000 3zm71 0a1.5 1.5 0 100-3 1.5 1.5 0 000 3zm-71 142.017a1.5 1.5 0 100-3 1.5 1.5 0 000 3zm71 0a1.5 1.5 0 100-3 1.5 1.5 0 000 3zM54.5 3.088a1.5 1.5 0 100-3 1.5 1.5 0 000 3zm71 0a1.5 1.5 0 100-3 1.5 1.5 0 000 3zm-71 142.017a1.5 1.5 0 100-3 1.5 1.5 0 000 3zm71 0a1.5 1.5 0 100-3 1.5 1.5 0 000 3zM72.5 3.088a1.5 1.5 0 100-3 1.5 1.5 0 000 3zm71 0a1.5 1.5 0 100-3 1.5 1.5 0 000 3zm-71 142.017a1.5 1.5 0 100-3 1.5 1.5 0 000 3zm71 0a1.5 1.5 0 100-3 1.5 1.5 0 000 3zM1.5 21.09a1.5 1.5 0 100-3 1.5 1.5 0 000 3zm18 0a1.5 1.5 0 100-3 1.5 1.5 0 000 3zm71 0a1.5 1.5 0 100-3 1.5 1.5 0 000 3zm-54 0a1.5 1.5 0 100-3 1.5 1.5 0 000 3zm71 0a1.5 1.5 0 100-3 1.5 1.5 0 000 3zm-53 0a1.5 1.5 0 100-3 1.5 1.5 0 000 3zm71 0a1.5 1.5 0 100-3 1.5 1.5 0 000 3zm-53 0a1.5 1.5 0 100-3 1.5 1.5 0 000 3zm71 0a1.5 1.5 0 100-3 1.5 1.5 0 000 3zM1.5 38.092a1.5 1.5 0 100-3 1.5 1.5 0 000 3zm18 0a1.5 1.5 0 100-3 1.5 1.5 0 000 3zm71 0a1.5 1.5 0 100-3 1.5 1.5 0 000 3zm-54 0a1.5 1.5 0 100-3 1.5 1.5 0 000 3zm71 0a1.5 1.5 0 100-3 1.5 1.5 0 000 3zm-53 0a1.5 1.5 0 100-3 1.5 1.5 0 000 3zm71 0a1.5 1.5 0 100-3 1.5 1.5 0 000 3zm-53 0a1.5 1.5 0 100-3 1.5 1.5 0 000 3zm71 0a1.5 1.5 0 100-3 1.5 1.5 0 000 3zM1.5 56.095a1.5 1.5 0 100-3 1.5 1.5 0 000 3zm18 0a1.5 1.5 0 100-3 1.5 1.5 0 000 3zm71 0a1.5 1.5 0 100-3 1.5 1.5 0 000 3zm-54 0a1.5 1.5 0 100-3 1.5 1.5 0 000 3zm71 0a1.5 1.5 0 100-3.001 1.5 1.5 0 000 3zm-53 0a1.5 1.5 0 100-3 1.5 1.5 0 000 3zm71 0a1.5 1.5 0 100-3.001 1.5 1.5 0 000 3zm-53 0a1.5 1.5 0 100-3 1.5 1.5 0 000 3zm71 0a1.5 1.5 0 100-3.001 1.5 1.5 0 000 3zM1.5 74.097a1.5 1.5 0 100-3 1.5 1.5 0 000 3zm18 0a1.5 1.5 0 100-3 1.5 1.5 0 000 3zm71 0a1.5 1.5 0 100-3 1.5 1.5 0 000 3zm-54 0a1.5 1.5 0 100-3 1.5 1.5 0 000 3zm71 0a1.5 1.5 0 100-3 1.5 1.5 0 000 3zm-53 0a1.5 1.5 0 100-3 1.5 1.5 0 000 3zm71 0a1.5 1.5 0 100-3 1.5 1.5 0 000 3zm-53 0a1.5 1.5 0 100-3 1.5 1.5 0 000 3zm71 0a1.5 1.5 0 100-3 1.5 1.5 0 000 3zM1.5 91.099a1.5 1.5 0 100-3 1.5 1.5 0 000 3zm18 0a1.5 1.5 0 100-3 1.5 1.5 0 000 3zm71 0a1.5 1.5 0 100-3 1.5 1.5 0 000 3zm-54 0a1.5 1.5 0 100-3 1.5 1.5 0 000 3zm71 0a1.5 1.5 0 100-3 1.5 1.5 0 000 3zm-53 0a1.5 1.5 0 100-3 1.5 1.5 0 000 3zm71 0a1.5 1.5 0 100-3 1.5 1.5 0 000 3zm-53 0a1.5 1.5 0 100-3 1.5 1.5 0 000 3zm71 0a1.5 1.5 0 100-3 1.5 1.5 0 000 3zm-142 18.002a1.5 1.5 0 100-3 1.5 1.5 0 000 3zm18 0a1.5 1.5 0 100-3 1.5 1.5 0 000 3zm71 0a1.5 1.5 0 100-3 1.5 1.5 0 000 3zm-54 0a1.5 1.5 0 100-3 1.5 1.5 0 000 3zm71 0a1.5 1.5 0 10-.001-3.001 1.5 1.5 0 00.001 3.001zm-53 0a1.5 1.5 0 100-3 1.5 1.5 0 000 3zm71 0a1.5 1.5 0 10-.001-3.001 1.5 1.5 0 00.001 3.001zm-53 0a1.5 1.5 0 100-3 1.5 1.5 0 000 3zm71 0a1.5 1.5 0 10-.001-3.001 1.5 1.5 0 00.001 3.001zm-142 18.002a1.5 1.5 0 100-3 1.5 1.5 0 000 3zm18 0a1.5 1.5 0 100-3 1.5 1.5 0 000 3zm71 0a1.5 1.5 0 100-3 1.5 1.5 0 000 3zm-54 0a1.5 1.5 0 100-3 1.5 1.5 0 000 3zm71 0a1.5 1.5 0 10-.001-3.001 1.5 1.5 0 00.001 3.001zm-53 0a1.5 1.5 0 100-3 1.5 1.5 0 000 3zm71 0a1.5 1.5 0 10-.001-3.001 1.5 1.5 0 00.001 3.001zm-53 0a1.5 1.5 0 100-3 1.5 1.5 0 000 3zm71 0a1.5 1.5 0 10-.001-3.001 1.5 1.5 0 00.001 3.001z" fill="#fff"/></svg>