<svg width="199" height="200" viewBox="0 0 199 200" fill="none" xmlns="http://www.w3.org/2000/svg">
<path d="M144 22C145.105 22 146 21.1046 146 20C146 18.8954 145.105 18 144 18C142.895 18 142 18.8954 142 20C142 21.1046 142.895 22 144 22Z" fill="#B6C0CE"/>
<path d="M2 22C3.10457 22 4 21.1046 4 20C4 18.8954 3.10457 18 2 18C0.895431 18 0 18.8954 0 20C0 21.1046 0.895431 22 2 22Z" fill="#B6C0CE"/>
<path d="M162 22C163.105 22 164 21.1046 164 20C164 18.8954 163.105 18 162 18C160.895 18 160 18.8954 160 20C160 21.1046 160.895 22 162 22Z" fill="#B6C0CE"/>
<path d="M20 22C21.1046 22 22 21.1046 22 20C22 18.8954 21.1046 18 20 18C18.8954 18 18 18.8954 18 20C18 21.1046 18.8954 22 20 22Z" fill="#B6C0CE"/>
<path d="M179 22C180.105 22 181 21.1046 181 20C181 18.8954 180.105 18 179 18C177.895 18 177 18.8954 177 20C177 21.1046 177.895 22 179 22Z" fill="#B6C0CE"/>
<path d="M37 22C38.1046 22 39 21.1046 39 20C39 18.8954 38.1046 18 37 18C35.8954 18 35 18.8954 35 20C35 21.1046 35.8954 22 37 22Z" fill="#B6C0CE"/>
<path d="M197 22C198.105 22 199 21.1046 199 20C199 18.8954 198.105 18 197 18C195.895 18 195 18.8954 195 20C195 21.1046 195.895 22 197 22Z" fill="#B6C0CE"/>
<path d="M55 22C56.1046 22 57 21.1046 57 20C57 18.8954 56.1046 18 55 18C53.8954 18 53 18.8954 53 20C53 21.1046 53.8954 22 55 22Z" fill="#B6C0CE"/>
<path d="M73 22C74.1046 22 75 21.1046 75 20C75 18.8954 74.1046 18 73 18C71.8954 18 71 18.8954 71 20C71 21.1046 71.8954 22 73 22Z" fill="#B6C0CE"/>
<path d="M90 22C91.1046 22 92 21.1046 92 20C92 18.8954 91.1046 18 90 18C88.8954 18 88 18.8954 88 20C88 21.1046 88.8954 22 90 22Z" fill="#B6C0CE"/>
<path d="M108 22C109.105 22 110 21.1046 110 20C110 18.8954 109.105 18 108 18C106.895 18 106 18.8954 106 20C106 21.1046 106.895 22 108 22Z" fill="#B6C0CE"/>
<path d="M126 22C127.105 22 128 21.1046 128 20C128 18.8954 127.105 18 126 18C124.895 18 124 18.8954 124 20C124 21.1046 124.895 22 126 22Z" fill="#B6C0CE"/>
<path d="M144 40C145.105 40 146 39.1046 146 38C146 36.8954 145.105 36 144 36C142.895 36 142 36.8954 142 38C142 39.1046 142.895 40 144 40Z" fill="#B6C0CE"/>
<path d="M2 40C3.10457 40 4 39.1046 4 38C4 36.8954 3.10457 36 2 36C0.895431 36 0 36.8954 0 38C0 39.1046 0.895431 40 2 40Z" fill="#B6C0CE"/>
<path d="M162 40C163.105 40 164 39.1046 164 38C164 36.8954 163.105 36 162 36C160.895 36 160 36.8954 160 38C160 39.1046 160.895 40 162 40Z" fill="#B6C0CE"/>
<path d="M20 40C21.1046 40 22 39.1046 22 38C22 36.8954 21.1046 36 20 36C18.8954 36 18 36.8954 18 38C18 39.1046 18.8954 40 20 40Z" fill="#B6C0CE"/>
<path d="M179 40C180.105 40 181 39.1046 181 38C181 36.8954 180.105 36 179 36C177.895 36 177 36.8954 177 38C177 39.1046 177.895 40 179 40Z" fill="#B6C0CE"/>
<path d="M37 40C38.1046 40 39 39.1046 39 38C39 36.8954 38.1046 36 37 36C35.8954 36 35 36.8954 35 38C35 39.1046 35.8954 40 37 40Z" fill="#B6C0CE"/>
<path d="M197 40C198.105 40 199 39.1046 199 38C199 36.8954 198.105 36 197 36C195.895 36 195 36.8954 195 38C195 39.1046 195.895 40 197 40Z" fill="#B6C0CE"/>
<path d="M55 40C56.1046 40 57 39.1046 57 38C57 36.8954 56.1046 36 55 36C53.8954 36 53 36.8954 53 38C53 39.1046 53.8954 40 55 40Z" fill="#B6C0CE"/>
<path d="M73 40C74.1046 40 75 39.1046 75 38C75 36.8954 74.1046 36 73 36C71.8954 36 71 36.8954 71 38C71 39.1046 71.8954 40 73 40Z" fill="#B6C0CE"/>
<path d="M90 40C91.1046 40 92 39.1046 92 38C92 36.8954 91.1046 36 90 36C88.8954 36 88 36.8954 88 38C88 39.1046 88.8954 40 90 40Z" fill="#B6C0CE"/>
<path d="M108 40C109.105 40 110 39.1046 110 38C110 36.8954 109.105 36 108 36C106.895 36 106 36.8954 106 38C106 39.1046 106.895 40 108 40Z" fill="#B6C0CE"/>
<path d="M126 40C127.105 40 128 39.1046 128 38C128 36.8954 127.105 36 126 36C124.895 36 124 36.8954 124 38C124 39.1046 124.895 40 126 40Z" fill="#B6C0CE"/>
<path d="M144 57C145.105 57 146 56.1046 146 55C146 53.8954 145.105 53 144 53C142.895 53 142 53.8954 142 55C142 56.1046 142.895 57 144 57Z" fill="#B6C0CE"/>
<path d="M2 57C3.10457 57 4 56.1046 4 55C4 53.8954 3.10457 53 2 53C0.895431 53 0 53.8954 0 55C0 56.1046 0.895431 57 2 57Z" fill="#B6C0CE"/>
<path d="M162 57C163.105 57 164 56.1046 164 55C164 53.8954 163.105 53 162 53C160.895 53 160 53.8954 160 55C160 56.1046 160.895 57 162 57Z" fill="#B6C0CE"/>
<path d="M20 57C21.1046 57 22 56.1046 22 55C22 53.8954 21.1046 53 20 53C18.8954 53 18 53.8954 18 55C18 56.1046 18.8954 57 20 57Z" fill="#B6C0CE"/>
<path d="M179 57C180.105 57 181 56.1046 181 55C181 53.8954 180.105 53 179 53C177.895 53 177 53.8954 177 55C177 56.1046 177.895 57 179 57Z" fill="#B6C0CE"/>
<path d="M37 57C38.1046 57 39 56.1046 39 55C39 53.8954 38.1046 53 37 53C35.8954 53 35 53.8954 35 55C35 56.1046 35.8954 57 37 57Z" fill="#B6C0CE"/>
<path d="M197 57C198.105 57 199 56.1046 199 55C199 53.8954 198.105 53 197 53C195.895 53 195 53.8954 195 55C195 56.1046 195.895 57 197 57Z" fill="#B6C0CE"/>
<path d="M55 57C56.1046 57 57 56.1046 57 55C57 53.8954 56.1046 53 55 53C53.8954 53 53 53.8954 53 55C53 56.1046 53.8954 57 55 57Z" fill="#B6C0CE"/>
<path d="M73 57C74.1046 57 75 56.1046 75 55C75 53.8954 74.1046 53 73 53C71.8954 53 71 53.8954 71 55C71 56.1046 71.8954 57 73 57Z" fill="#B6C0CE"/>
<path d="M90 57C91.1046 57 92 56.1046 92 55C92 53.8954 91.1046 53 90 53C88.8954 53 88 53.8954 88 55C88 56.1046 88.8954 57 90 57Z" fill="#B6C0CE"/>
<path d="M108 57C109.105 57 110 56.1046 110 55C110 53.8954 109.105 53 108 53C106.895 53 106 53.8954 106 55C106 56.1046 106.895 57 108 57Z" fill="#B6C0CE"/>
<path d="M126 57C127.105 57 128 56.1046 128 55C128 53.8954 127.105 53 126 53C124.895 53 124 53.8954 124 55C124 56.1046 124.895 57 126 57Z" fill="#B6C0CE"/>
<path d="M144 75C145.105 75 146 74.1046 146 73C146 71.8954 145.105 71 144 71C142.895 71 142 71.8954 142 73C142 74.1046 142.895 75 144 75Z" fill="#B6C0CE"/>
<path d="M2 75C3.10457 75 4 74.1046 4 73C4 71.8954 3.10457 71 2 71C0.895431 71 0 71.8954 0 73C0 74.1046 0.895431 75 2 75Z" fill="#B6C0CE"/>
<path d="M162 75C163.105 75 164 74.1046 164 73C164 71.8954 163.105 71 162 71C160.895 71 160 71.8954 160 73C160 74.1046 160.895 75 162 75Z" fill="#B6C0CE"/>
<path d="M20 75C21.1046 75 22 74.1046 22 73C22 71.8954 21.1046 71 20 71C18.8954 71 18 71.8954 18 73C18 74.1046 18.8954 75 20 75Z" fill="#B6C0CE"/>
<path d="M179 75C180.105 75 181 74.1046 181 73C181 71.8954 180.105 71 179 71C177.895 71 177 71.8954 177 73C177 74.1046 177.895 75 179 75Z" fill="#B6C0CE"/>
<path d="M37 75C38.1046 75 39 74.1046 39 73C39 71.8954 38.1046 71 37 71C35.8954 71 35 71.8954 35 73C35 74.1046 35.8954 75 37 75Z" fill="#B6C0CE"/>
<path d="M197 75C198.105 75 199 74.1046 199 73C199 71.8954 198.105 71 197 71C195.895 71 195 71.8954 195 73C195 74.1046 195.895 75 197 75Z" fill="#B6C0CE"/>
<path d="M55 75C56.1046 75 57 74.1046 57 73C57 71.8954 56.1046 71 55 71C53.8954 71 53 71.8954 53 73C53 74.1046 53.8954 75 55 75Z" fill="#B6C0CE"/>
<path d="M73 75C74.1046 75 75 74.1046 75 73C75 71.8954 74.1046 71 73 71C71.8954 71 71 71.8954 71 73C71 74.1046 71.8954 75 73 75Z" fill="#B6C0CE"/>
<path d="M90 75C91.1046 75 92 74.1046 92 73C92 71.8954 91.1046 71 90 71C88.8954 71 88 71.8954 88 73C88 74.1046 88.8954 75 90 75Z" fill="#B6C0CE"/>
<path d="M108 75C109.105 75 110 74.1046 110 73C110 71.8954 109.105 71 108 71C106.895 71 106 71.8954 106 73C106 74.1046 106.895 75 108 75Z" fill="#B6C0CE"/>
<path d="M126 75C127.105 75 128 74.1046 128 73C128 71.8954 127.105 71 126 71C124.895 71 124 71.8954 124 73C124 74.1046 124.895 75 126 75Z" fill="#B6C0CE"/>
<path d="M144 93C145.105 93 146 92.1046 146 91C146 89.8954 145.105 89 144 89C142.895 89 142 89.8954 142 91C142 92.1046 142.895 93 144 93Z" fill="#B6C0CE"/>
<path d="M2 93C3.10457 93 4 92.1046 4 91C4 89.8954 3.10457 89 2 89C0.895431 89 0 89.8954 0 91C0 92.1046 0.895431 93 2 93Z" fill="#B6C0CE"/>
<path d="M162 93C163.105 93 164 92.1046 164 91C164 89.8954 163.105 89 162 89C160.895 89 160 89.8954 160 91C160 92.1046 160.895 93 162 93Z" fill="#B6C0CE"/>
<path d="M20 93C21.1046 93 22 92.1046 22 91C22 89.8954 21.1046 89 20 89C18.8954 89 18 89.8954 18 91C18 92.1046 18.8954 93 20 93Z" fill="#B6C0CE"/>
<path d="M179 93C180.105 93 181 92.1046 181 91C181 89.8954 180.105 89 179 89C177.895 89 177 89.8954 177 91C177 92.1046 177.895 93 179 93Z" fill="#B6C0CE"/>
<path d="M37 93C38.1046 93 39 92.1046 39 91C39 89.8954 38.1046 89 37 89C35.8954 89 35 89.8954 35 91C35 92.1046 35.8954 93 37 93Z" fill="#B6C0CE"/>
<path d="M197 93C198.105 93 199 92.1046 199 91C199 89.8954 198.105 89 197 89C195.895 89 195 89.8954 195 91C195 92.1046 195.895 93 197 93Z" fill="#B6C0CE"/>
<path d="M55 93C56.1046 93 57 92.1046 57 91C57 89.8954 56.1046 89 55 89C53.8954 89 53 89.8954 53 91C53 92.1046 53.8954 93 55 93Z" fill="#B6C0CE"/>
<path d="M73 93C74.1046 93 75 92.1046 75 91C75 89.8954 74.1046 89 73 89C71.8954 89 71 89.8954 71 91C71 92.1046 71.8954 93 73 93Z" fill="#B6C0CE"/>
<path d="M90 93C91.1046 93 92 92.1046 92 91C92 89.8954 91.1046 89 90 89C88.8954 89 88 89.8954 88 91C88 92.1046 88.8954 93 90 93Z" fill="#B6C0CE"/>
<path d="M108 93C109.105 93 110 92.1046 110 91C110 89.8954 109.105 89 108 89C106.895 89 106 89.8954 106 91C106 92.1046 106.895 93 108 93Z" fill="#B6C0CE"/>
<path d="M126 93C127.105 93 128 92.1046 128 91C128 89.8954 127.105 89 126 89C124.895 89 124 89.8954 124 91C124 92.1046 124.895 93 126 93Z" fill="#B6C0CE"/>
<path d="M144 110C145.105 110 146 109.105 146 108C146 106.895 145.105 106 144 106C142.895 106 142 106.895 142 108C142 109.105 142.895 110 144 110Z" fill="#B6C0CE"/>
<path d="M144 164C145.105 164 146 163.105 146 162C146 160.895 145.105 160 144 160C142.895 160 142 160.895 142 162C142 163.105 142.895 164 144 164Z" fill="#B6C0CE"/>
<path d="M2 110C3.10457 110 4 109.105 4 108C4 106.895 3.10457 106 2 106C0.895431 106 0 106.895 0 108C0 109.105 0.895431 110 2 110Z" fill="#B6C0CE"/>
<path d="M2 164C3.10457 164 4 163.105 4 162C4 160.895 3.10457 160 2 160C0.895431 160 0 160.895 0 162C0 163.105 0.895431 164 2 164Z" fill="#B6C0CE"/>
<path d="M162 110C163.105 110 164 109.105 164 108C164 106.895 163.105 106 162 106C160.895 106 160 106.895 160 108C160 109.105 160.895 110 162 110Z" fill="#B6C0CE"/>
<path d="M162 164C163.105 164 164 163.105 164 162C164 160.895 163.105 160 162 160C160.895 160 160 160.895 160 162C160 163.105 160.895 164 162 164Z" fill="#B6C0CE"/>
<path d="M20 110C21.1046 110 22 109.105 22 108C22 106.895 21.1046 106 20 106C18.8954 106 18 106.895 18 108C18 109.105 18.8954 110 20 110Z" fill="#B6C0CE"/>
<path d="M20 164C21.1046 164 22 163.105 22 162C22 160.895 21.1046 160 20 160C18.8954 160 18 160.895 18 162C18 163.105 18.8954 164 20 164Z" fill="#B6C0CE"/>
<path d="M179 110C180.105 110 181 109.105 181 108C181 106.895 180.105 106 179 106C177.895 106 177 106.895 177 108C177 109.105 177.895 110 179 110Z" fill="#B6C0CE"/>
<path d="M179 164C180.105 164 181 163.105 181 162C181 160.895 180.105 160 179 160C177.895 160 177 160.895 177 162C177 163.105 177.895 164 179 164Z" fill="#B6C0CE"/>
<path d="M37 110C38.1046 110 39 109.105 39 108C39 106.895 38.1046 106 37 106C35.8954 106 35 106.895 35 108C35 109.105 35.8954 110 37 110Z" fill="#B6C0CE"/>
<path d="M37 164C38.1046 164 39 163.105 39 162C39 160.895 38.1046 160 37 160C35.8954 160 35 160.895 35 162C35 163.105 35.8954 164 37 164Z" fill="#B6C0CE"/>
<path d="M197 110C198.105 110 199 109.105 199 108C199 106.895 198.105 106 197 106C195.895 106 195 106.895 195 108C195 109.105 195.895 110 197 110Z" fill="#B6C0CE"/>
<path d="M197 164C198.105 164 199 163.105 199 162C199 160.895 198.105 160 197 160C195.895 160 195 160.895 195 162C195 163.105 195.895 164 197 164Z" fill="#B6C0CE"/>
<path d="M55 110C56.1046 110 57 109.105 57 108C57 106.895 56.1046 106 55 106C53.8954 106 53 106.895 53 108C53 109.105 53.8954 110 55 110Z" fill="#B6C0CE"/>
<path d="M55 164C56.1046 164 57 163.105 57 162C57 160.895 56.1046 160 55 160C53.8954 160 53 160.895 53 162C53 163.105 53.8954 164 55 164Z" fill="#B6C0CE"/>
<path d="M73 110C74.1046 110 75 109.105 75 108C75 106.895 74.1046 106 73 106C71.8954 106 71 106.895 71 108C71 109.105 71.8954 110 73 110Z" fill="#B6C0CE"/>
<path d="M73 164C74.1046 164 75 163.105 75 162C75 160.895 74.1046 160 73 160C71.8954 160 71 160.895 71 162C71 163.105 71.8954 164 73 164Z" fill="#B6C0CE"/>
<path d="M90 110C91.1046 110 92 109.105 92 108C92 106.895 91.1046 106 90 106C88.8954 106 88 106.895 88 108C88 109.105 88.8954 110 90 110Z" fill="#B6C0CE"/>
<path d="M90 164C91.1046 164 92 163.105 92 162C92 160.895 91.1046 160 90 160C88.8954 160 88 160.895 88 162C88 163.105 88.8954 164 90 164Z" fill="#B6C0CE"/>
<path d="M108 110C109.105 110 110 109.105 110 108C110 106.895 109.105 106 108 106C106.895 106 106 106.895 106 108C106 109.105 106.895 110 108 110Z" fill="#B6C0CE"/>
<path d="M108 164C109.105 164 110 163.105 110 162C110 160.895 109.105 160 108 160C106.895 160 106 160.895 106 162C106 163.105 106.895 164 108 164Z" fill="#B6C0CE"/>
<path d="M126 110C127.105 110 128 109.105 128 108C128 106.895 127.105 106 126 106C124.895 106 124 106.895 124 108C124 109.105 124.895 110 126 110Z" fill="#B6C0CE"/>
<path d="M126 164C127.105 164 128 163.105 128 162C128 160.895 127.105 160 126 160C124.895 160 124 160.895 124 162C124 163.105 124.895 164 126 164Z" fill="#B6C0CE"/>
<path d="M144 128C145.105 128 146 127.105 146 126C146 124.895 145.105 124 144 124C142.895 124 142 124.895 142 126C142 127.105 142.895 128 144 128Z" fill="#B6C0CE"/>
<path d="M144 182C145.105 182 146 181.105 146 180C146 178.895 145.105 178 144 178C142.895 178 142 178.895 142 180C142 181.105 142.895 182 144 182Z" fill="#B6C0CE"/>
<path d="M2 128C3.10457 128 4 127.105 4 126C4 124.895 3.10457 124 2 124C0.895431 124 0 124.895 0 126C0 127.105 0.895431 128 2 128Z" fill="#B6C0CE"/>
<path d="M2 182C3.10457 182 4 181.105 4 180C4 178.895 3.10457 178 2 178C0.895431 178 0 178.895 0 180C0 181.105 0.895431 182 2 182Z" fill="#B6C0CE"/>
<path d="M162 128C163.105 128 164 127.105 164 126C164 124.895 163.105 124 162 124C160.895 124 160 124.895 160 126C160 127.105 160.895 128 162 128Z" fill="#B6C0CE"/>
<path d="M162 182C163.105 182 164 181.105 164 180C164 178.895 163.105 178 162 178C160.895 178 160 178.895 160 180C160 181.105 160.895 182 162 182Z" fill="#B6C0CE"/>
<path d="M20 128C21.1046 128 22 127.105 22 126C22 124.895 21.1046 124 20 124C18.8954 124 18 124.895 18 126C18 127.105 18.8954 128 20 128Z" fill="#B6C0CE"/>
<path d="M20 182C21.1046 182 22 181.105 22 180C22 178.895 21.1046 178 20 178C18.8954 178 18 178.895 18 180C18 181.105 18.8954 182 20 182Z" fill="#B6C0CE"/>
<path d="M179 128C180.105 128 181 127.105 181 126C181 124.895 180.105 124 179 124C177.895 124 177 124.895 177 126C177 127.105 177.895 128 179 128Z" fill="#B6C0CE"/>
<path d="M179 182C180.105 182 181 181.105 181 180C181 178.895 180.105 178 179 178C177.895 178 177 178.895 177 180C177 181.105 177.895 182 179 182Z" fill="#B6C0CE"/>
<path d="M37 128C38.1046 128 39 127.105 39 126C39 124.895 38.1046 124 37 124C35.8954 124 35 124.895 35 126C35 127.105 35.8954 128 37 128Z" fill="#B6C0CE"/>
<path d="M37 182C38.1046 182 39 181.105 39 180C39 178.895 38.1046 178 37 178C35.8954 178 35 178.895 35 180C35 181.105 35.8954 182 37 182Z" fill="#B6C0CE"/>
<path d="M197 128C198.105 128 199 127.105 199 126C199 124.895 198.105 124 197 124C195.895 124 195 124.895 195 126C195 127.105 195.895 128 197 128Z" fill="#B6C0CE"/>
<path d="M197 182C198.105 182 199 181.105 199 180C199 178.895 198.105 178 197 178C195.895 178 195 178.895 195 180C195 181.105 195.895 182 197 182Z" fill="#B6C0CE"/>
<path d="M55 128C56.1046 128 57 127.105 57 126C57 124.895 56.1046 124 55 124C53.8954 124 53 124.895 53 126C53 127.105 53.8954 128 55 128Z" fill="#B6C0CE"/>
<path d="M55 182C56.1046 182 57 181.105 57 180C57 178.895 56.1046 178 55 178C53.8954 178 53 178.895 53 180C53 181.105 53.8954 182 55 182Z" fill="#B6C0CE"/>
<path d="M73 128C74.1046 128 75 127.105 75 126C75 124.895 74.1046 124 73 124C71.8954 124 71 124.895 71 126C71 127.105 71.8954 128 73 128Z" fill="#B6C0CE"/>
<path d="M73 182C74.1046 182 75 181.105 75 180C75 178.895 74.1046 178 73 178C71.8954 178 71 178.895 71 180C71 181.105 71.8954 182 73 182Z" fill="#B6C0CE"/>
<path d="M90 128C91.1046 128 92 127.105 92 126C92 124.895 91.1046 124 90 124C88.8954 124 88 124.895 88 126C88 127.105 88.8954 128 90 128Z" fill="#B6C0CE"/>
<path d="M90 182C91.1046 182 92 181.105 92 180C92 178.895 91.1046 178 90 178C88.8954 178 88 178.895 88 180C88 181.105 88.8954 182 90 182Z" fill="#B6C0CE"/>
<path d="M108 128C109.105 128 110 127.105 110 126C110 124.895 109.105 124 108 124C106.895 124 106 124.895 106 126C106 127.105 106.895 128 108 128Z" fill="#B6C0CE"/>
<path d="M108 182C109.105 182 110 181.105 110 180C110 178.895 109.105 178 108 178C106.895 178 106 178.895 106 180C106 181.105 106.895 182 108 182Z" fill="#B6C0CE"/>
<path d="M126 128C127.105 128 128 127.105 128 126C128 124.895 127.105 124 126 124C124.895 124 124 124.895 124 126C124 127.105 124.895 128 126 128Z" fill="#B6C0CE"/>
<path d="M126 182C127.105 182 128 181.105 128 180C128 178.895 127.105 178 126 178C124.895 178 124 178.895 124 180C124 181.105 124.895 182 126 182Z" fill="#B6C0CE"/>
<path d="M2 4C3.10457 4 4 3.10457 4 2C4 0.895431 3.10457 0 2 0C0.895431 0 0 0.895431 0 2C0 3.10457 0.895431 4 2 4Z" fill="#B6C0CE"/>
<path d="M144 4C145.105 4 146 3.10457 146 2C146 0.895431 145.105 0 144 0C142.895 0 142 0.895431 142 2C142 3.10457 142.895 4 144 4Z" fill="#B6C0CE"/>
<path d="M144 146C145.105 146 146 145.105 146 144C146 142.895 145.105 142 144 142C142.895 142 142 142.895 142 144C142 145.105 142.895 146 144 146Z" fill="#B6C0CE"/>
<path d="M144 200C145.105 200 146 199.105 146 198C146 196.895 145.105 196 144 196C142.895 196 142 196.895 142 198C142 199.105 142.895 200 144 200Z" fill="#B6C0CE"/>
<path d="M2 146C3.10457 146 4 145.105 4 144C4 142.895 3.10457 142 2 142C0.895431 142 0 142.895 0 144C0 145.105 0.895431 146 2 146Z" fill="#B6C0CE"/>
<path d="M2 200C3.10457 200 4 199.105 4 198C4 196.895 3.10457 196 2 196C0.895431 196 0 196.895 0 198C0 199.105 0.895431 200 2 200Z" fill="#B6C0CE"/>
<path d="M20 4C21.1046 4 22 3.10457 22 2C22 0.895431 21.1046 0 20 0C18.8954 0 18 0.895431 18 2C18 3.10457 18.8954 4 20 4Z" fill="#B6C0CE"/>
<path d="M162 4C163.105 4 164 3.10457 164 2C164 0.895431 163.105 0 162 0C160.895 0 160 0.895431 160 2C160 3.10457 160.895 4 162 4Z" fill="#B6C0CE"/>
<path d="M162 146C163.105 146 164 145.105 164 144C164 142.895 163.105 142 162 142C160.895 142 160 142.895 160 144C160 145.105 160.895 146 162 146Z" fill="#B6C0CE"/>
<path d="M162 200C163.105 200 164 199.105 164 198C164 196.895 163.105 196 162 196C160.895 196 160 196.895 160 198C160 199.105 160.895 200 162 200Z" fill="#B6C0CE"/>
<path d="M20 146C21.1046 146 22 145.105 22 144C22 142.895 21.1046 142 20 142C18.8954 142 18 142.895 18 144C18 145.105 18.8954 146 20 146Z" fill="#B6C0CE"/>
<path d="M20 200C21.1046 200 22 199.105 22 198C22 196.895 21.1046 196 20 196C18.8954 196 18 196.895 18 198C18 199.105 18.8954 200 20 200Z" fill="#B6C0CE"/>
<path d="M37 4C38.1046 4 39 3.10457 39 2C39 0.895431 38.1046 0 37 0C35.8954 0 35 0.895431 35 2C35 3.10457 35.8954 4 37 4Z" fill="#B6C0CE"/>
<path d="M179 4C180.105 4 181 3.10457 181 2C181 0.895431 180.105 0 179 0C177.895 0 177 0.895431 177 2C177 3.10457 177.895 4 179 4Z" fill="#B6C0CE"/>
<path d="M179 146C180.105 146 181 145.105 181 144C181 142.895 180.105 142 179 142C177.895 142 177 142.895 177 144C177 145.105 177.895 146 179 146Z" fill="#B6C0CE"/>
<path d="M179 200C180.105 200 181 199.105 181 198C181 196.895 180.105 196 179 196C177.895 196 177 196.895 177 198C177 199.105 177.895 200 179 200Z" fill="#B6C0CE"/>
<path d="M37 146C38.1046 146 39 145.105 39 144C39 142.895 38.1046 142 37 142C35.8954 142 35 142.895 35 144C35 145.105 35.8954 146 37 146Z" fill="#B6C0CE"/>
<path d="M37 200C38.1046 200 39 199.105 39 198C39 196.895 38.1046 196 37 196C35.8954 196 35 196.895 35 198C35 199.105 35.8954 200 37 200Z" fill="#B6C0CE"/>
<path d="M55 4C56.1046 4 57 3.10457 57 2C57 0.895431 56.1046 0 55 0C53.8954 0 53 0.895431 53 2C53 3.10457 53.8954 4 55 4Z" fill="#B6C0CE"/>
<path d="M197 4C198.105 4 199 3.10457 199 2C199 0.895431 198.105 0 197 0C195.895 0 195 0.895431 195 2C195 3.10457 195.895 4 197 4Z" fill="#B6C0CE"/>
<path d="M197 146C198.105 146 199 145.105 199 144C199 142.895 198.105 142 197 142C195.895 142 195 142.895 195 144C195 145.105 195.895 146 197 146Z" fill="#B6C0CE"/>
<path d="M197 200C198.105 200 199 199.105 199 198C199 196.895 198.105 196 197 196C195.895 196 195 196.895 195 198C195 199.105 195.895 200 197 200Z" fill="#B6C0CE"/>
<path d="M55 146C56.1046 146 57 145.105 57 144C57 142.895 56.1046 142 55 142C53.8954 142 53 142.895 53 144C53 145.105 53.8954 146 55 146Z" fill="#B6C0CE"/>
<path d="M55 200C56.1046 200 57 199.105 57 198C57 196.895 56.1046 196 55 196C53.8954 196 53 196.895 53 198C53 199.105 53.8954 200 55 200Z" fill="#B6C0CE"/>
<path d="M73 4C74.1046 4 75 3.10457 75 2C75 0.895431 74.1046 0 73 0C71.8954 0 71 0.895431 71 2C71 3.10457 71.8954 4 73 4Z" fill="#B6C0CE"/>
<path d="M73 146C74.1046 146 75 145.105 75 144C75 142.895 74.1046 142 73 142C71.8954 142 71 142.895 71 144C71 145.105 71.8954 146 73 146Z" fill="#B6C0CE"/>
<path d="M73 200C74.1046 200 75 199.105 75 198C75 196.895 74.1046 196 73 196C71.8954 196 71 196.895 71 198C71 199.105 71.8954 200 73 200Z" fill="#B6C0CE"/>
<path d="M90 4C91.1046 4 92 3.10457 92 2C92 0.895431 91.1046 0 90 0C88.8954 0 88 0.895431 88 2C88 3.10457 88.8954 4 90 4Z" fill="#B6C0CE"/>
<path d="M90 146C91.1046 146 92 145.105 92 144C92 142.895 91.1046 142 90 142C88.8954 142 88 142.895 88 144C88 145.105 88.8954 146 90 146Z" fill="#B6C0CE"/>
<path d="M90 200C91.1046 200 92 199.105 92 198C92 196.895 91.1046 196 90 196C88.8954 196 88 196.895 88 198C88 199.105 88.8954 200 90 200Z" fill="#B6C0CE"/>
<path d="M108 4C109.105 4 110 3.10457 110 2C110 0.895431 109.105 0 108 0C106.895 0 106 0.895431 106 2C106 3.10457 106.895 4 108 4Z" fill="#B6C0CE"/>
<path d="M108 146C109.105 146 110 145.105 110 144C110 142.895 109.105 142 108 142C106.895 142 106 142.895 106 144C106 145.105 106.895 146 108 146Z" fill="#B6C0CE"/>
<path d="M108 200C109.105 200 110 199.105 110 198C110 196.895 109.105 196 108 196C106.895 196 106 196.895 106 198C106 199.105 106.895 200 108 200Z" fill="#B6C0CE"/>
<path d="M126 4C127.105 4 128 3.10457 128 2C128 0.895431 127.105 0 126 0C124.895 0 124 0.895431 124 2C124 3.10457 124.895 4 126 4Z" fill="#B6C0CE"/>
<path d="M126 146C127.105 146 128 145.105 128 144C128 142.895 127.105 142 126 142C124.895 142 124 142.895 124 144C124 145.105 124.895 146 126 146Z" fill="#B6C0CE"/>
<path d="M126 200C127.105 200 128 199.105 128 198C128 196.895 127.105 196 126 196C124.895 196 124 196.895 124 198C124 199.105 124.895 200 126 200Z" fill="#B6C0CE"/>
</svg>
