<svg width="94" height="94" viewBox="0 0 94 94" fill="none" xmlns="http://www.w3.org/2000/svg">
<path d="M18 20C18 21.1046 18.8954 22 20 22C21.1046 22 22 21.1046 22 20C22 18.8954 21.1046 18 20 18C18.8954 18 18 18.8954 18 20Z" fill="white"/>
<path d="M18 2C18 3.10457 18.8954 4 20 4C21.1046 4 22 3.10457 22 2C22 0.895431 21.1046 1.06779e-08 20 2.38498e-08C18.8954 3.70216e-08 18 0.895431 18 2Z" fill="white"/>
<path d="M2.38498e-08 20C3.70216e-08 21.1046 0.89543 22 2 22C3.10457 22 4 21.1046 4 20C4 18.8954 3.10457 18 2 18C0.89543 18 1.06779e-08 18.8954 2.38498e-08 20Z" fill="white"/>
<path d="M2.38498e-08 2C3.70216e-08 3.10457 0.89543 4 2 4C3.10457 4 4 3.10457 4 2C4 0.895431 3.10457 1.06779e-08 2 2.38498e-08C0.89543 3.70216e-08 1.06779e-08 0.895431 2.38498e-08 2Z" fill="white"/>
<path d="M18 38C18 39.1046 18.8954 40 20 40C21.1046 40 22 39.1046 22 38C22 36.8954 21.1046 36 20 36C18.8954 36 18 36.8954 18 38Z" fill="white"/>
<path d="M2.38498e-08 38C3.70216e-08 39.1046 0.89543 40 2 40C3.10457 40 4 39.1046 4 38C4 36.8954 3.10457 36 2 36C0.89543 36 1.06779e-08 36.8954 2.38498e-08 38Z" fill="white"/>
<path d="M18 56C18 57.1046 18.8954 58 20 58C21.1046 58 22 57.1046 22 56C22 54.8954 21.1046 54 20 54C18.8954 54 18 54.8954 18 56Z" fill="white"/>
<path d="M2.38498e-08 56C3.70216e-08 57.1046 0.89543 58 2 58C3.10457 58 4 57.1046 4 56C4 54.8954 3.10457 54 2 54C0.89543 54 1.06779e-08 54.8954 2.38498e-08 56Z" fill="white"/>
<path d="M18 74C18 75.1046 18.8954 76 20 76C21.1046 76 22 75.1046 22 74C22 72.8954 21.1046 72 20 72C18.8954 72 18 72.8954 18 74Z" fill="white"/>
<path d="M2.38498e-08 74C3.70216e-08 75.1046 0.89543 76 2 76C3.10457 76 4 75.1046 4 74C4 72.8954 3.10457 72 2 72C0.89543 72 1.06779e-08 72.8954 2.38498e-08 74Z" fill="white"/>
<path d="M18 92C18 93.1046 18.8954 94 20 94C21.1046 94 22 93.1046 22 92C22 90.8954 21.1046 90 20 90C18.8954 90 18 90.8954 18 92Z" fill="white"/>
<path d="M2.38498e-08 92C3.70216e-08 93.1046 0.89543 94 2 94C3.10457 94 4 93.1046 4 92C4 90.8954 3.10457 90 2 90C0.89543 90 1.06779e-08 90.8954 2.38498e-08 92Z" fill="white"/>
<path d="M72 20C72 21.1046 72.8954 22 74 22C75.1046 22 76 21.1046 76 20C76 18.8954 75.1046 18 74 18C72.8954 18 72 18.8954 72 20Z" fill="#B6C0CE"/>
<path d="M72 2C72 3.10457 72.8954 4 74 4C75.1046 4 76 3.10457 76 2C76 0.895431 75.1046 1.06779e-08 74 2.38498e-08C72.8954 3.70216e-08 72 0.895431 72 2Z" fill="#B6C0CE"/>
<path d="M90 20C90 21.1046 90.8954 22 92 22C93.1046 22 94 21.1046 94 20C94 18.8954 93.1046 18 92 18C90.8954 18 90 18.8954 90 20Z" fill="#B6C0CE"/>
<path d="M90 2C90 3.10457 90.8954 4 92 4C93.1046 4 94 3.10457 94 2C94 0.895431 93.1046 1.06779e-08 92 2.38498e-08C90.8954 3.70216e-08 90 0.895431 90 2Z" fill="#B6C0CE"/>
<path d="M72 38C72 39.1046 72.8954 40 74 40C75.1046 40 76 39.1046 76 38C76 36.8954 75.1046 36 74 36C72.8954 36 72 36.8954 72 38Z" fill="#B6C0CE"/>
<path d="M90 38C90 39.1046 90.8954 40 92 40C93.1046 40 94 39.1046 94 38C94 36.8954 93.1046 36 92 36C90.8954 36 90 36.8954 90 38Z" fill="#B6C0CE"/>
<path d="M72 56C72 57.1046 72.8954 58 74 58C75.1046 58 76 57.1046 76 56C76 54.8954 75.1046 54 74 54C72.8954 54 72 54.8954 72 56Z" fill="#B6C0CE"/>
<path d="M90 56C90 57.1046 90.8954 58 92 58C93.1046 58 94 57.1046 94 56C94 54.8954 93.1046 54 92 54C90.8954 54 90 54.8954 90 56Z" fill="#B6C0CE"/>
<path d="M72 74C72 75.1046 72.8954 76 74 76C75.1046 76 76 75.1046 76 74C76 72.8954 75.1046 72 74 72C72.8954 72 72 72.8954 72 74Z" fill="#B6C0CE"/>
<path d="M90 74C90 75.1046 90.8954 76 92 76C93.1046 76 94 75.1046 94 74C94 72.8954 93.1046 72 92 72C90.8954 72 90 72.8954 90 74Z" fill="#B6C0CE"/>
<path d="M72 92C72 93.1046 72.8954 94 74 94C75.1046 94 76 93.1046 76 92C76 90.8954 75.1046 90 74 90C72.8954 90 72 90.8954 72 92Z" fill="#B6C0CE"/>
<path d="M90 92C90 93.1046 90.8954 94 92 94C93.1046 94 94 93.1046 94 92C94 90.8954 93.1046 90 92 90C90.8954 90 90 90.8954 90 92Z" fill="#B6C0CE"/>
<path d="M54 20C54 21.1046 54.8954 22 56 22C57.1046 22 58 21.1046 58 20C58 18.8954 57.1046 18 56 18C54.8954 18 54 18.8954 54 20Z" fill="#B6C0CE"/>
<path d="M54 2C54 3.10457 54.8954 4 56 4C57.1046 4 58 3.10457 58 2C58 0.895431 57.1046 1.06779e-08 56 2.38498e-08C54.8954 3.70216e-08 54 0.895431 54 2Z" fill="#B6C0CE"/>
<path d="M54 38C54 39.1046 54.8954 40 56 40C57.1046 40 58 39.1046 58 38C58 36.8954 57.1046 36 56 36C54.8954 36 54 36.8954 54 38Z" fill="#B6C0CE"/>
<path d="M54 56C54 57.1046 54.8954 58 56 58C57.1046 58 58 57.1046 58 56C58 54.8954 57.1046 54 56 54C54.8954 54 54 54.8954 54 56Z" fill="#B6C0CE"/>
<path d="M54 74C54 75.1046 54.8954 76 56 76C57.1046 76 58 75.1046 58 74C58 72.8954 57.1046 72 56 72C54.8954 72 54 72.8954 54 74Z" fill="#B6C0CE"/>
<path d="M54 92C54 93.1046 54.8954 94 56 94C57.1046 94 58 93.1046 58 92C58 90.8954 57.1046 90 56 90C54.8954 90 54 90.8954 54 92Z" fill="#B6C0CE"/>
<path d="M36 20C36 21.1046 36.8954 22 38 22C39.1046 22 40 21.1046 40 20C40 18.8954 39.1046 18 38 18C36.8954 18 36 18.8954 36 20Z" fill="white"/>
<path d="M36 2C36 3.10457 36.8954 4 38 4C39.1046 4 40 3.10457 40 2C40 0.895431 39.1046 1.06779e-08 38 2.38498e-08C36.8954 3.70216e-08 36 0.895431 36 2Z" fill="white"/>
<path d="M36 38C36 39.1046 36.8954 40 38 40C39.1046 40 40 39.1046 40 38C40 36.8954 39.1046 36 38 36C36.8954 36 36 36.8954 36 38Z" fill="white"/>
<path d="M36 56C36 57.1046 36.8954 58 38 58C39.1046 58 40 57.1046 40 56C40 54.8954 39.1046 54 38 54C36.8954 54 36 54.8954 36 56Z" fill="white"/>
<path d="M36 74C36 75.1046 36.8954 76 38 76C39.1046 76 40 75.1046 40 74C40 72.8954 39.1046 72 38 72C36.8954 72 36 72.8954 36 74Z" fill="white"/>
<path d="M36 92C36 93.1046 36.8954 94 38 94C39.1046 94 40 93.1046 40 92C40 90.8954 39.1046 90 38 90C36.8954 90 36 90.8954 36 92Z" fill="white"/>
</svg>
