<svg width="22" height="25" viewBox="0 0 22 25" fill="none" xmlns="http://www.w3.org/2000/svg">
<path d="M4.71484 11.5596H7.22913V13.9167H4.71484V11.5596ZM4.71484 16.2739H7.22913V18.631H4.71484V16.2739ZM9.74341 11.5596H12.2577V13.9167H9.74341V11.5596ZM9.74341 16.2739H12.2577V18.631H9.74341V16.2739ZM14.772 11.5596H17.2863V13.9167H14.772V11.5596ZM14.772 16.2739H17.2863V18.631H14.772V16.2739Z" fill="#575A64"/>
<path d="M2.44444 24.9185H19.5556C20.9037 24.9185 22 23.8259 22 22.4825V5.43057C22 4.08712 20.9037 2.99458 19.5556 2.99458H17.1111V0.558594H14.6667V2.99458H7.33333V0.558594H4.88889V2.99458H2.44444C1.09633 2.99458 0 4.08712 0 5.43057V22.4825C0 23.8259 1.09633 24.9185 2.44444 24.9185ZM19.5556 7.86655L19.5568 22.4825H2.44444V7.86655H19.5556Z" fill="#575A64"/>
</svg>
