<svg width="182" height="59" viewBox="0 0 182 59" fill="none" xmlns="http://www.w3.org/2000/svg">
<path d="M36.9166 5.27525C50.1977 5.27525 60.8902 16.1076 60.8902 29.3096H64.2668C64.2668 14.1894 51.9986 1.89014 36.9166 1.89014C21.8345 1.89014 9.56641 14.1894 9.56641 29.3096H12.943C12.943 15.9948 23.6355 5.27525 36.9166 5.27525Z" fill="#216B70"/>
<path d="M27.3502 53.3439C14.1816 53.3439 3.37656 42.6243 3.37656 29.3096H0C0 44.4298 12.2682 56.729 27.3502 56.729C42.4322 56.729 54.7004 44.4298 54.7004 29.3096H51.3238C51.3238 42.6243 40.6313 53.3439 27.3502 53.3439Z" fill="#216B70"/>
<path d="M35.7917 21.7493C35.6793 22.5391 35.4541 23.3291 35.1164 24.006C34.6663 24.7958 34.1034 25.5858 33.5407 26.3756C33.4282 26.6013 33.0905 26.827 32.8654 27.1654C32.0775 26.6013 30.952 26.3756 30.0516 26.827L27.0126 20.2824C26.3375 18.8155 26.9002 17.2358 28.2507 16.4459C29.939 15.4304 32.6402 16.1074 33.991 17.2358C35.3415 18.2514 36.0168 19.9439 35.7917 21.7493Z" fill="#216B70"/>
<path d="M43.8936 33.2588C43.8936 35.177 41.9802 37.2081 40.2919 37.8851C38.6037 38.5622 36.8028 38.2236 35.4523 37.0953C34.8894 36.6439 34.3267 35.9669 33.8764 35.4027C33.4262 34.6127 32.9761 33.7102 32.6384 32.9203C32.5259 32.6946 32.4133 32.356 32.3008 31.9047C33.2011 31.4534 33.764 30.6635 33.8764 29.6479L41.0799 30.325C42.6555 30.4378 43.8936 31.6791 43.8936 33.2588Z" fill="#216B70"/>
<path d="M29.4902 31.5661L25.3258 37.4336C24.4253 38.6748 22.737 39.1262 21.3865 38.3364C19.6982 37.4336 18.9103 34.7256 19.1353 32.9202C19.3604 31.2276 20.5985 29.7608 22.1743 29.0837C22.8496 28.858 23.6375 28.6323 24.4253 28.6323C25.3258 28.6323 26.3387 28.6323 27.2392 28.858C27.4643 28.858 27.8019 28.9708 28.2521 29.0837C28.2521 29.1965 28.2521 29.3094 28.2521 29.3094C28.3646 30.2121 28.8148 31.002 29.4902 31.5661Z" fill="#216B70"/>
<path d="M31.0641 30.889C31.9344 30.889 32.6398 30.1818 32.6398 29.3093C32.6398 28.4368 31.9344 27.7295 31.0641 27.7295C30.1938 27.7295 29.4883 28.4368 29.4883 29.3093C29.4883 30.1818 30.1938 30.889 31.0641 30.889Z" fill="#216B70"/>
<path d="M38.9441 0.42314C35.5675 0.42314 32.1911 0.874488 28.927 1.77718C25.7755 2.67988 22.7366 4.14677 20.0354 5.95215C14.7454 9.67578 10.9186 15.2048 9.23036 21.5237C7.65464 27.7297 7.65464 34.6127 10.8061 40.2546C12.3818 43.0756 14.5203 45.6709 17.109 47.589C18.4596 48.6047 19.9228 49.5073 21.3859 50.1843C22.8491 50.9741 24.5374 51.4255 26.2257 51.6512C24.5374 51.764 22.7366 51.5384 21.0483 50.9741C19.36 50.41 17.7844 49.7329 16.2086 48.8302C13.1697 47.0249 10.4684 44.4295 8.55506 41.4959C6.64166 38.4492 5.4036 34.9513 5.06594 31.2277C4.72828 27.6169 5.06594 24.0061 5.96636 20.5082C7.87974 13.6251 12.4944 7.64471 18.6847 3.92108C20.2605 3.0184 21.8362 2.34137 23.5245 1.77718C25.2128 1.213 26.9011 0.761651 28.5894 0.42314C31.966 -0.141047 35.455 -0.141047 38.9441 0.42314Z" fill="#216B70"/>
<path d="M25.4375 58.4214C28.8141 58.4214 32.1907 57.97 35.4546 57.0672C38.6061 56.1645 41.645 54.6976 44.3462 52.8923C49.6362 49.0557 53.463 43.6396 55.1512 37.3208C56.8395 31.1147 56.727 24.2316 53.5755 18.5898C51.9999 15.7689 49.8613 13.1736 47.2726 11.2554C45.922 10.2398 44.5713 9.33715 43.1081 8.66012C41.645 7.87026 39.9567 7.41892 38.2684 7.19325C39.9567 7.08041 41.7576 7.30608 43.4459 7.87026C45.0216 8.32162 46.5972 8.99863 48.173 9.90133C54.476 13.625 58.6404 20.1696 59.3156 27.504C59.6534 31.1147 59.3156 34.7255 58.4153 38.2234C56.5019 45.2194 51.9999 51.3126 45.6969 55.0362C44.1211 55.939 42.5454 56.6159 40.8571 57.1802C39.1688 57.7443 37.4805 58.1957 35.7922 58.5341C32.3032 59.0983 28.8141 58.9855 25.4375 58.4214Z" fill="#216B70"/>
<path d="M76.4102 28.6277V18.2959H81.0503V19.7719H78.0823V22.4367H79.0438C80.7159 22.4367 81.5519 23.3388 81.5519 24.9786V26.0856C81.5519 27.7256 80.7159 28.6277 79.0438 28.6277H76.4102ZM79.0438 27.1516C79.5873 27.1516 79.8798 26.9057 79.8798 26.1678V24.8557C79.8798 24.1178 79.5455 23.8717 79.0438 23.8717H78.0823V27.1516H79.0438Z" fill="#216B70"/>
<path d="M87.9914 28.6277H86.3193L86.0684 26.7417H84.0201L83.7275 28.6277H82.2227L83.8948 18.2959H86.3193L87.9914 28.6277ZM84.2292 25.3477H85.8176L85.0234 20.1408L84.2292 25.3477Z" fill="#216B70"/>
<path d="M88.3231 27.1927C89.0755 27.1927 89.3264 27.0698 89.3264 26.1268L89.5772 18.3369H94.2591V28.6687H92.587V19.772H91.1238L90.9567 26.0037C90.9149 27.8897 90.2041 28.6278 88.532 28.6278H88.2812V27.1927H88.3231Z" fill="#216B70"/>
<path d="M95.0547 18.2959H100.154V19.7719H98.4407V28.6277H96.7686V19.7719H95.0547V18.2959Z" fill="#216B70"/>
<path d="M102.62 28.6277H100.906V18.2959H102.369V24.8146L102.955 22.5598L104.292 18.2959H106.132V28.6277H104.627V21.3708L103.958 23.9127L102.62 28.6277Z" fill="#216B70"/>
<path d="M109.015 28.6277H107.301V18.2959H108.764V24.8147L109.349 22.5598L110.687 18.2959H112.526V28.6277H111.021V21.3709L110.352 23.9128L109.015 28.6277ZM110.729 16C110.687 16.533 110.436 16.697 109.976 16.697C109.558 16.697 109.307 16.5739 109.266 16H108.262C108.304 16.9839 108.848 17.64 109.976 17.64C111.147 17.64 111.732 17.025 111.732 16H110.729Z" fill="#216B70"/>
<path d="M118.589 24.7737V26.1266C118.589 27.7666 117.753 28.7096 116.123 28.7096C114.492 28.7096 113.656 27.7666 113.656 26.1266V20.7967C113.656 19.1569 114.492 18.2139 116.123 18.2139C117.753 18.2139 118.589 19.1569 118.589 20.7967V21.7808H117.042V20.6738C117.042 19.9359 116.708 19.6488 116.164 19.6488C115.621 19.6488 115.287 19.9359 115.287 20.6738V26.2495C115.287 26.9876 115.621 27.2336 116.164 27.2336C116.708 27.2336 117.042 26.9876 117.042 26.2495V24.7737H118.589Z" fill="#216B70"/>
<path d="M121.768 24.5278L121.266 25.4707V28.6277H119.594V18.2959H121.266V22.8058L123.44 18.2959H125.112L122.813 22.8878L125.112 28.6277H123.398L121.768 24.5278Z" fill="#216B70"/>
<path d="M125.695 20.7967C125.695 19.1569 126.573 18.2139 128.203 18.2139C129.834 18.2139 130.712 19.1569 130.712 20.7967V26.1675C130.712 27.8075 129.834 28.7505 128.203 28.7505C126.573 28.7505 125.695 27.8075 125.695 26.1675V20.7967ZM127.326 26.2497C127.326 26.9876 127.66 27.2745 128.203 27.2745C128.747 27.2745 129.081 26.9876 129.081 26.2497V20.6738C129.081 19.9359 128.747 19.6488 128.203 19.6488C127.66 19.6488 127.326 19.9359 127.326 20.6738V26.2497Z" fill="#216B70"/>
<path d="M133.43 22.6418H135.687V24.1178H133.43V27.1516H136.272V28.6277H131.758V18.2959H136.272V19.7719H133.43V22.6418Z" fill="#216B70"/>
<path d="M143.17 25.6347L144.299 18.2959H146.598V28.6277H145.01V21.2478L143.881 28.6686H142.334L141.08 21.3708V28.6686H139.617V18.2959H141.916L143.17 25.6347Z" fill="#216B70"/>
<path d="M147.641 20.7967C147.641 19.1569 148.518 18.2139 150.149 18.2139C151.779 18.2139 152.657 19.1569 152.657 20.7967V26.1675C152.657 27.8075 151.779 28.7505 150.149 28.7505C148.518 28.7505 147.641 27.8075 147.641 26.1675V20.7967ZM149.313 26.2497C149.313 26.9876 149.647 27.2745 150.191 27.2745C150.734 27.2745 151.068 26.9876 151.068 26.2497V20.6738C151.068 19.9359 150.734 19.6488 150.191 19.6488C149.647 19.6488 149.313 19.9359 149.313 20.6738V26.2497Z" fill="#216B70"/>
<path d="M158.679 20.8789V22.2318C158.679 23.8717 157.885 24.7737 156.212 24.7737H155.418V28.6686H153.746V18.2959H156.171C157.843 18.2959 158.679 19.1978 158.679 20.8789ZM155.418 19.7719V23.2568H156.212C156.756 23.2568 157.007 23.0108 157.007 22.2727V20.7147C157.007 19.9768 156.714 19.7308 156.212 19.7308H155.418V19.7719Z" fill="#216B70"/>
<path d="M164.237 24.7737V26.1266C164.237 27.7666 163.401 28.7096 161.771 28.7096C160.141 28.7096 159.305 27.7666 159.305 26.1266V20.7967C159.305 19.1569 160.141 18.2139 161.771 18.2139C163.401 18.2139 164.237 19.1569 164.237 20.7967V21.7808H162.691V20.6738C162.691 19.9359 162.356 19.6488 161.813 19.6488C161.269 19.6488 160.935 19.9359 160.935 20.6738V26.2495C160.935 26.9876 161.269 27.2336 161.813 27.2336C162.356 27.2336 162.691 26.9876 162.691 26.2495V24.7737H164.237Z" fill="#216B70"/>
<path d="M167.416 24.5278L166.914 25.4707V28.6277H165.242V18.2959H166.914V22.8058L169.088 18.2959H170.76L168.419 22.9288L170.718 28.6686H169.004L167.416 24.5278Z" fill="#216B70"/>
<path d="M171.344 20.7967C171.344 19.1569 172.222 18.2139 173.852 18.2139C175.482 18.2139 176.36 19.1569 176.36 20.7967V26.1675C176.36 27.8075 175.482 28.7505 173.852 28.7505C172.222 28.7505 171.344 27.8075 171.344 26.1675V20.7967ZM172.974 26.2497C172.974 26.9876 173.308 27.2745 173.852 27.2745C174.395 27.2745 174.73 26.9876 174.73 26.2497V20.6738C174.73 19.9359 174.395 19.6488 173.852 19.6488C173.308 19.6488 172.974 19.9359 172.974 20.6738V26.2497Z" fill="#216B70"/>
<path d="M179.079 22.6418H181.336V24.1178H179.079V27.1516H181.922V28.6277H177.406V18.2959H181.922V19.7719H179.079V22.6418Z" fill="#216B70"/>
<path d="M76.4102 45.0383V34.6987H80.953V36.1759H78.0474V38.8428H78.9886C80.6257 38.8428 81.4442 39.7455 81.4442 41.3867V42.4945C81.4442 44.1357 80.6257 45.0383 78.9886 45.0383H76.4102ZM78.9886 43.5612C79.5207 43.5612 79.8072 43.3151 79.8072 42.5765V41.2636C79.8072 40.525 79.4797 40.2789 78.9886 40.2789H78.0474V43.5612H78.9886Z" fill="#216B70"/>
<path d="M86.1082 42.4125C85.7399 44.2588 85.085 45.2024 82.8341 45.0383V43.6023C83.6527 43.6434 84.1437 43.5202 84.2665 42.7407V42.6587L82.0156 34.6987H83.6117L84.5122 38.2274L85.0032 40.6481L85.3715 38.2274L86.1082 34.6987H87.7862L86.1082 42.4125Z" fill="#216B70"/>
<path d="M90.6517 40.9353L90.1605 41.879V45.0383H88.5234V34.6987H90.1605V39.2122L92.2887 34.6987H93.9258L91.6748 39.2941L93.9258 45.0383H92.2069L90.6517 40.9353Z" fill="#216B70"/>
<path d="M99.3293 41.1814V42.5356C99.3293 44.1767 98.5108 45.1204 96.9146 45.1204C95.3185 45.1204 94.5 44.1767 94.5 42.5356V37.2015C94.5 35.5604 95.3185 34.6167 96.9146 34.6167C98.5108 34.6167 99.3293 35.5604 99.3293 37.2015V38.1863H97.815V37.0785C97.815 36.34 97.4876 36.0528 96.9556 36.0528C96.4235 36.0528 96.0961 36.34 96.0961 37.0785V42.6586C96.0961 43.3971 96.4235 43.6434 96.9556 43.6434C97.4876 43.6434 97.815 43.3971 97.815 42.6586V41.1814H99.3293Z" fill="#216B70"/>
<path d="M101.991 45.0383H100.312V34.6987H101.745V41.2225L102.318 38.9658L103.628 34.6987H105.428V45.0383H103.955V37.776L103.3 40.32L101.991 45.0383Z" fill="#216B70"/>
<path d="M111.404 37.2837V38.6377C111.404 40.2789 110.626 41.1815 108.989 41.1815H108.211V45.0794H106.574V34.6987H108.948C110.626 34.6987 111.404 35.6015 111.404 37.2837ZM108.211 36.1759V39.6634H108.989C109.521 39.6634 109.767 39.4172 109.767 38.6788V37.1196C109.767 36.381 109.48 36.1349 108.989 36.1349H108.211V36.1759Z" fill="#216B70"/>
<path d="M113.778 45.0383H112.141V34.6987H113.778V39.13H115.619V34.6987H117.256V45.0383H115.619V40.6072H113.778V45.0383Z" fill="#216B70"/>
<path d="M118.32 37.2015C118.32 35.5604 119.18 34.6167 120.776 34.6167C122.372 34.6167 123.231 35.5604 123.231 37.2015V42.5765C123.231 44.2176 122.372 45.1615 120.776 45.1615C119.18 45.1615 118.32 44.2176 118.32 42.5765V37.2015ZM119.957 42.6586C119.957 43.3971 120.285 43.6843 120.817 43.6843C121.349 43.6843 121.676 43.3971 121.676 42.6586V37.0785C121.676 36.34 121.349 36.0528 120.817 36.0528C120.285 36.0528 119.957 36.34 119.957 37.0785V42.6586Z" fill="#216B70"/>
<path d="M125.891 39.048H128.101V40.525H125.891V43.5612H128.674V45.0383H124.254V34.6987H128.674V36.1759H125.891V39.048Z" fill="#216B70"/>
<path d="M137.228 45.0383H135.591L135.304 43.1509H133.299L133.012 45.0383H131.539L133.176 34.6987H135.55L137.228 45.0383ZM133.544 41.7559H135.1L134.322 36.5451L133.544 41.7559Z" fill="#216B70"/>
<path d="M138.004 45.0383V34.6987H142.26V36.1759H139.6V45.0383H138.004Z" fill="#216B70"/>
<path d="M145.004 39.048H147.214V40.525H145.004V43.5612H147.787V45.0383H143.367V34.6987H147.787V36.1759H145.004V39.048Z" fill="#216B70"/>
<path d="M150.407 45.0383H148.77V34.6987H150.407V39.13H152.248V34.6987H153.885V45.0383H152.248V40.6072H150.407V45.0383Z" fill="#216B70"/>
<path d="M154.621 34.6987H159.614V36.1759H157.936V45.0383H156.299V36.1759H154.621V34.6987Z" fill="#216B70"/>
<path d="M165.017 41.1814V42.5356C165.017 44.1767 164.198 45.1204 162.602 45.1204C161.006 45.1204 160.188 44.1767 160.188 42.5356V37.2015C160.188 35.5604 161.006 34.6167 162.602 34.6167C164.198 34.6167 165.017 35.5604 165.017 37.2015V38.1863H163.503V37.0785C163.503 36.34 163.175 36.0528 162.643 36.0528C162.111 36.0528 161.784 36.34 161.784 37.0785V42.6586C161.784 43.3971 162.111 43.6434 162.643 43.6434C163.175 43.6434 163.503 43.3971 163.503 42.6586V41.1814H165.017Z" fill="#216B70"/>
<path d="M165.547 34.6987H170.54V36.1759H168.862V45.0383H167.225V36.1759H165.547V34.6987Z" fill="#216B70"/>
<path d="M176.107 37.0785V37.4477C176.107 38.5146 175.779 39.1711 175.043 39.5403C175.902 39.8686 176.27 40.6481 176.27 41.7559V42.6176C176.27 44.2177 175.411 45.0794 173.815 45.0794H171.277V34.6987H173.733C175.37 34.6987 176.107 35.4784 176.107 37.0785ZM172.873 36.1759V38.9249H173.487C174.101 38.9249 174.47 38.6788 174.47 37.8171V37.2427C174.47 36.5041 174.224 36.1759 173.651 36.1759H172.873ZM172.873 40.402V43.5612H173.815C174.347 43.5612 174.674 43.3151 174.674 42.5356V41.6328C174.674 40.6892 174.347 40.3609 173.61 40.3609H172.873V40.402Z" fill="#216B70"/>
<path d="M177.09 37.2015C177.09 35.5604 177.949 34.6167 179.546 34.6167C181.141 34.6167 182.001 35.5604 182.001 37.2015V42.5765C182.001 44.2176 181.141 45.1615 179.546 45.1615C177.949 45.1615 177.09 44.2176 177.09 42.5765V37.2015ZM178.726 42.6586C178.726 43.3971 179.055 43.6843 179.586 43.6843C180.119 43.6843 180.446 43.3971 180.446 42.6586V37.0785C180.446 36.34 180.119 36.0528 179.586 36.0528C179.055 36.0528 178.726 36.34 178.726 37.0785V42.6586Z" fill="#216B70"/>
</svg>
