<svg width="52" height="48" viewBox="0 0 52 48" fill="none" xmlns="http://www.w3.org/2000/svg">
<path d="M29.8181 4.2608C40.5451 4.2608 49.1813 13.01 49.1813 23.6731H51.9086C51.9086 11.4607 41.9997 1.52667 29.8181 1.52667C17.6364 1.52667 7.72754 11.4607 7.72754 23.6731H10.4548C10.4548 12.9189 19.091 4.2608 29.8181 4.2608Z" fill="#216B70"/>
<path d="M22.0905 43.0854C11.4543 43.0854 2.72722 34.4273 2.72722 23.6731H0C0 35.8856 9.90891 45.8196 22.0905 45.8196C34.2722 45.8196 44.181 35.8856 44.181 23.6731H41.4538C41.4538 34.4273 32.8176 43.0854 22.0905 43.0854Z" fill="#216B70"/>
<path d="M28.9088 17.5667C28.8179 18.2047 28.6361 18.8427 28.3633 19.3894C27.9998 20.0274 27.5451 20.6654 27.0907 21.3034C26.9998 21.4857 26.727 21.668 26.5452 21.9413C25.9089 21.4857 24.9997 21.3034 24.2726 21.668L21.818 16.3819C21.2726 15.1971 21.7271 13.9213 22.818 13.2833C24.1816 12.463 26.3633 13.0098 27.4543 13.9213C28.5451 14.7415 29.0906 16.1086 28.9088 17.5667Z" fill="#216B70"/>
<path d="M35.4532 26.8628C35.4532 28.4122 33.9078 30.0526 32.5442 30.5995C31.1807 31.1464 29.7261 30.8729 28.6353 29.9616C28.1806 29.597 27.7261 29.0501 27.3625 28.5945C26.9988 27.9564 26.6353 27.2274 26.3625 26.5895C26.2717 26.4072 26.1807 26.1337 26.0898 25.7691C26.817 25.4047 27.2716 24.7666 27.3625 23.9464L33.1806 24.4933C34.4533 24.5843 35.4532 25.587 35.4532 26.8628Z" fill="#216B70"/>
<path d="M23.8178 25.4957L20.4542 30.2348C19.7269 31.2374 18.3633 31.6019 17.2725 30.964C15.9089 30.2348 15.2725 28.0475 15.4542 26.5894C15.636 25.2223 16.636 24.0375 17.9088 23.4907C18.4543 23.3084 19.0906 23.1261 19.7269 23.1261C20.4542 23.1261 21.2724 23.1261 21.9997 23.3084C22.1815 23.3084 22.4542 23.3995 22.8178 23.4907C22.8178 23.5817 22.8178 23.673 22.8178 23.673C22.9087 24.4021 23.2723 25.04 23.8178 25.4957Z" fill="#216B70"/>
<path d="M25.0902 24.9488C25.7931 24.9488 26.3628 24.3776 26.3628 23.6729C26.3628 22.9682 25.7931 22.3969 25.0902 22.3969C24.3872 22.3969 23.8174 22.9682 23.8174 23.6729C23.8174 24.3776 24.3872 24.9488 25.0902 24.9488Z" fill="#216B70"/>
<path d="M31.4542 0.341766C28.7269 0.341766 25.9998 0.706317 23.3634 1.43542C20.818 2.16452 18.3635 3.34931 16.1818 4.80751C11.9091 7.81505 8.81822 12.2808 7.45461 17.3845C6.18192 22.397 6.18192 27.9564 8.72733 32.5133C10 34.7918 11.7273 36.888 13.8182 38.4372C14.909 39.2576 16.0908 39.9866 17.2726 40.5335C18.4544 41.1714 19.818 41.536 21.1816 41.7183C19.818 41.8093 18.3635 41.6272 16.9999 41.1714C15.6363 40.7157 14.3636 40.1689 13.0909 39.4397C10.6364 37.9816 8.4546 35.8854 6.90918 33.5159C5.36374 31.0551 4.36377 28.2299 4.09104 25.2224C3.81832 22.3059 4.09104 19.3895 4.81831 16.5643C6.36373 11.0049 10.0909 6.17457 15.0908 3.16703C16.3636 2.43794 17.6362 1.89111 18.9998 1.43542C20.3635 0.97973 21.7271 0.615179 23.0907 0.341766C25.818 -0.113922 28.6361 -0.113922 31.4542 0.341766Z" fill="#216B70"/>
<path d="M20.5449 47.1865C23.2722 47.1865 25.9994 46.8219 28.6357 46.0928C31.1811 45.3636 33.6356 44.1788 35.8173 42.7207C40.09 39.622 43.1809 35.2474 44.5444 30.1438C45.908 25.1311 45.8172 19.5717 43.2718 15.0148C41.9991 12.7364 40.2719 10.6403 38.1809 9.0909C37.0901 8.27067 35.9992 7.54157 34.8174 6.99474C33.6356 6.35677 32.2719 5.99223 30.9083 5.80996C32.2719 5.71881 33.7265 5.90109 35.0902 6.35677C36.3628 6.72133 37.6355 7.26815 38.9082 7.99725C43.9991 11.0048 47.3626 16.2908 47.908 22.2148C48.1808 25.1311 47.908 28.0475 47.1808 30.8728C45.6354 36.5234 41.9991 41.4448 36.9083 44.4523C35.6355 45.1815 34.3629 45.7282 32.9992 46.184C31.6356 46.6396 30.272 47.0042 28.9084 47.2776C26.0903 47.7332 23.2722 47.6421 20.5449 47.1865Z" fill="#216B70"/>
</svg>
