<svg width="100" height="100" viewBox="0 0 100 100" fill="none" xmlns="http://www.w3.org/2000/svg">
<rect width="100" height="100" fill="#216B70"/>
<path d="M54.9166 26.2752C68.1977 26.2752 78.8902 37.1076 78.8902 50.3096H82.2668C82.2668 35.1894 69.9986 22.8901 54.9166 22.8901C39.8345 22.8901 27.5664 35.1894 27.5664 50.3096H30.943C30.943 36.9948 41.6355 26.2752 54.9166 26.2752Z" fill="white"/>
<path d="M45.3502 74.3439C32.1816 74.3439 21.3766 63.6243 21.3766 50.3096H18C18 65.4298 30.2682 77.729 45.3502 77.729C60.4322 77.729 72.7004 65.4298 72.7004 50.3096H69.3238C69.3238 63.6243 58.6313 74.3439 45.3502 74.3439Z" fill="white"/>
<path d="M53.7917 42.7493C53.6793 43.5391 53.4541 44.3291 53.1164 45.006C52.6663 45.7958 52.1034 46.5858 51.5407 47.3756C51.4282 47.6013 51.0905 47.827 50.8654 48.1654C50.0775 47.6013 48.952 47.3756 48.0516 47.827L45.0126 41.2824C44.3375 39.8155 44.9002 38.2358 46.2507 37.4459C47.939 36.4304 50.6402 37.1074 51.991 38.2358C53.3415 39.2514 54.0168 40.9439 53.7917 42.7493Z" fill="white"/>
<path d="M61.8955 54.2588C61.8955 56.177 59.9821 58.2081 58.2938 58.8851C56.6057 59.5622 54.8047 59.2236 53.4542 58.0953C52.8913 57.6439 52.3286 56.9669 51.8784 56.4027C51.4282 55.6127 50.9781 54.7102 50.6403 53.9203C50.5279 53.6946 50.4152 53.356 50.3027 52.9047C51.203 52.4534 51.7659 51.6635 51.8784 50.6479L59.0818 51.325C60.6575 51.4378 61.8955 52.6791 61.8955 54.2588Z" fill="white"/>
<path d="M47.4882 52.5661L43.3238 58.4336C42.4233 59.6748 40.735 60.1262 39.3845 59.3364C37.6962 58.4336 36.9084 55.7256 37.1333 53.9202C37.3584 52.2276 38.5965 50.7608 40.1723 50.0837C40.8477 49.858 41.6355 49.6323 42.4233 49.6323C43.3238 49.6323 44.3368 49.6323 45.2372 49.858C45.4623 49.858 45.7999 49.9708 46.2502 50.0837C46.2502 50.1965 46.2502 50.3094 46.2502 50.3094C46.3627 51.2121 46.8129 52.002 47.4882 52.5661Z" fill="white"/>
<path d="M49.0641 51.8892C49.9344 51.8892 50.6398 51.1821 50.6398 50.3096C50.6398 49.4371 49.9344 48.7297 49.0641 48.7297C48.1938 48.7297 47.4883 49.4371 47.4883 50.3096C47.4883 51.1821 48.1938 51.8892 49.0641 51.8892Z" fill="white"/>
<path d="M56.9422 21.4231C53.5656 21.4231 50.1891 21.8745 46.925 22.7772C43.7735 23.6799 40.7347 25.1468 38.0334 26.9522C32.7435 30.6758 28.9167 36.2048 27.2284 42.5237C25.6527 48.7297 25.6527 55.6127 28.8041 61.2546C30.3799 64.0756 32.5184 66.6709 35.1071 68.589C36.4576 69.6047 37.9208 70.5073 39.384 71.1843C40.8472 71.9741 42.5355 72.4255 44.2238 72.6512C42.5355 72.764 40.7347 72.5384 39.0464 71.9741C37.3581 71.41 35.7824 70.7329 34.2067 69.8302C31.1677 68.0249 28.4665 65.4295 26.5531 62.4959C24.6397 59.4492 23.4016 55.9513 23.064 52.2277C22.7263 48.6169 23.064 45.0061 23.9644 41.5082C25.8778 34.6251 30.4924 28.6447 36.6827 24.9211C38.2586 24.0184 39.8342 23.3414 41.5225 22.7772C43.2108 22.213 44.8991 21.7617 46.5874 21.4231C49.964 20.859 53.4531 20.859 56.9422 21.4231Z" fill="white"/>
<path d="M43.4375 79.4214C46.8141 79.4214 50.1907 78.97 53.4546 78.0672C56.6061 77.1645 59.645 75.6976 62.3462 73.8923C67.6362 70.0557 71.463 64.6396 73.1512 58.3208C74.8395 52.1147 74.727 45.2316 71.5755 39.5898C69.9999 36.7689 67.8613 34.1736 65.2726 32.2554C63.922 31.2398 62.5713 30.3371 61.1081 29.6601C59.645 28.8703 57.9567 28.4189 56.2684 28.1933C57.9567 28.0804 59.7576 28.3061 61.4459 28.8703C63.0216 29.3216 64.5972 29.9986 66.173 30.9013C72.476 34.625 76.6404 41.1696 77.3156 48.504C77.6534 52.1147 77.3156 55.7255 76.4153 59.2234C74.5019 66.2194 69.9999 72.3126 63.6969 76.0362C62.1211 76.939 60.5454 77.6159 58.8571 78.1802C57.1688 78.7443 55.4805 79.1957 53.7922 79.5341C50.3032 80.0983 46.8141 79.9855 43.4375 79.4214Z" fill="white"/>
</svg>
