<svg width="15" height="14" viewBox="0 0 15 14" fill="none" xmlns="http://www.w3.org/2000/svg">
<path d="M3.29 0.591999C4.14867 0.591999 4.854 0.898665 5.406 1.512C5.98867 2.09466 6.28 2.83066 6.28 3.72C6.28 4.18 6.234 4.64 6.142 5.1C6.05 5.52933 5.85067 6.158 5.544 6.986L3.336 13.426H0.438L2.14 6.572C1.55733 6.35733 1.082 6.00467 0.714 5.514C0.376667 4.99266 0.208 4.39466 0.208 3.72C0.208 2.8 0.499333 2.04867 1.082 1.466C1.66467 0.883332 2.40067 0.591999 3.29 0.591999ZM11.984 0.591999C12.8427 0.591999 13.548 0.898665 14.1 1.512C14.6827 2.09466 14.974 2.83066 14.974 3.72C14.974 4.18 14.928 4.64 14.836 5.1C14.744 5.52933 14.5447 6.158 14.238 6.986L12.03 13.426H9.132L10.834 6.572C10.2513 6.35733 9.776 6.00467 9.408 5.514C9.07067 4.99266 8.902 4.39466 8.902 3.72C8.902 2.8 9.19333 2.04867 9.776 1.466C10.3587 0.883332 11.0947 0.591999 11.984 0.591999Z" fill="#A6B0BE"/>
</svg>
